<svg width="215" height="47" viewBox="0 0 215 47" fill="none" xmlns="http://www.w3.org/2000/svg">
<g clip-path="url(#clip0_10284_126521)">
<path d="M2.26581 14.5991V32.5111C2.26581 33.6551 2.87381 34.7111 3.86581 35.2791L19.3778 44.2311C20.3698 44.7991 21.5858 44.7991 22.5778 44.2311L38.0898 35.2791C39.0818 34.7111 39.6898 33.6551 39.6898 32.5111V14.5991C39.6898 13.4551 39.0818 12.3991 38.0898 11.8311L22.5698 2.87912C21.5778 2.31112 20.3618 2.31112 19.3698 2.87912L3.85781 11.8311C2.87381 12.3991 2.25781 13.4551 2.25781 14.5991H2.26581Z" fill="#213147"/>
<path d="M24.3617 27.0315L22.1457 33.0955C22.0817 33.2635 22.0817 33.4475 22.1457 33.6155L25.9457 44.0555L30.3457 41.5115L25.0657 27.0235C24.9457 26.6875 24.4737 26.6875 24.3537 27.0235L24.3617 27.0315Z" fill="#12AAFF"/>
<path d="M28.7924 16.8243C28.6724 16.4883 28.2004 16.4883 28.0804 16.8243L25.8644 22.8883C25.8004 23.0563 25.8004 23.2403 25.8644 23.4083L32.0964 40.5043L36.4964 37.9603L28.7844 16.8243H28.7924Z" fill="#12AAFF"/>
<path d="M20.9705 3.54312C21.0825 3.54312 21.1865 3.57513 21.2905 3.63113L38.0745 13.3191C38.2745 13.4311 38.3945 13.6391 38.3945 13.8631V33.2471C38.3945 33.4711 38.2745 33.6791 38.0745 33.7911L21.2905 43.4951C21.1945 43.5511 21.0825 43.5831 20.9705 43.5831C20.8585 43.5831 20.7545 43.5511 20.6505 43.4951L3.88247 33.7911C3.68247 33.6791 3.56247 33.4711 3.56247 33.2471V13.8551C3.56247 13.6311 3.68247 13.4231 3.88247 13.3111L20.6665 3.62313C20.7625 3.56713 20.8745 3.53513 20.9785 3.53513M20.9785 0.703125C20.3785 0.703125 19.7785 0.863125 19.2505 1.16712L2.45847 10.8711C1.39447 11.4871 0.730469 12.6311 0.730469 13.8631V33.2471C0.730469 34.4791 1.39447 35.6311 2.45847 36.2471L19.2425 45.9351C19.7785 46.2471 20.3705 46.3991 20.9705 46.3991C21.5705 46.3991 22.1705 46.2391 22.6985 45.9351L39.4825 36.2471C40.5545 35.6311 41.2105 34.4871 41.2105 33.2471V13.8631C41.2105 12.6311 40.5465 11.4791 39.4825 10.8631L22.7145 1.17512C22.1705 0.863125 21.5705 0.711125 20.9785 0.711125V0.703125Z" fill="#9DCCED"/>
<path d="M9.88281 40.5267L11.4188 36.3027L14.5228 38.8787L11.6268 41.5347L9.88281 40.5267Z" fill="#213147"/>
<path d="M19.5607 12.4785H15.3047C14.9847 12.4785 14.6967 12.6785 14.5927 12.9745L5.47266 37.9825L9.87266 40.5265L19.9207 12.9825C20.0087 12.7425 19.8247 12.4785 19.5527 12.4785H19.5607Z" fill="white"/>
<path d="M27.0092 12.4785H22.7532C22.4332 12.4785 22.1452 12.6785 22.0412 12.9745L11.6172 41.5345L16.0172 44.0785L27.3532 12.9985C27.4492 12.7425 27.2572 12.4865 27.0012 12.4865L27.0092 12.4785Z" fill="white"/>
<path d="M59.4346 18.0391C60.4986 18.0391 61.5146 18.1111 62.3226 18.5591C63.3546 19.1191 63.8906 20.2151 63.8906 21.5511C63.8906 22.8871 63.3146 23.8871 62.3386 24.4711C61.6986 24.8471 60.7866 25.0151 59.3866 25.0151H57.8026V29.0711H55.8906V18.0391H59.4346ZM61.0026 23.1751C61.6106 22.8391 61.8986 22.2151 61.8986 21.4551C61.8986 20.7431 61.5786 20.1511 60.9546 19.8311C60.5866 19.6471 60.0266 19.5991 59.3626 19.5991H57.8106V23.4471H59.3466C60.0586 23.4471 60.6346 23.3751 61.0026 23.1751Z" fill="white"/>
<path d="M73.1717 25.1516C73.1717 27.6316 71.6517 29.2876 69.2357 29.2876C66.8197 29.2876 65.3477 27.6316 65.3477 25.1516C65.3477 22.6716 66.8677 21.0156 69.2517 21.0156C71.6357 21.0156 73.1717 22.6876 73.1717 25.1516ZM67.2437 25.1516C67.2437 26.8076 67.9717 27.8876 69.2357 27.8876C70.4997 27.8876 71.2757 26.8236 71.2757 25.1516C71.2757 23.4796 70.5317 22.4156 69.2517 22.4156C67.9717 22.4156 67.2437 23.4796 67.2437 25.1516Z" fill="white"/>
<path d="M76.5634 21.2305L77.3874 25.1505C77.5394 25.8945 77.6754 26.7505 77.8114 27.5025H77.9154C78.0514 26.7425 78.2194 25.8945 78.3874 25.1345L79.2834 21.2305H81.8354L82.7474 25.1505C82.9154 25.8945 83.0514 26.7505 83.2034 27.5025H83.3074C83.4274 26.7425 83.5634 25.8945 83.7154 25.1505L84.5474 21.2305H86.2674L84.3394 29.0705H81.8754L81.0114 25.1345C80.8434 24.3425 80.6754 23.4945 80.5234 22.7025H80.4194C80.2514 23.4945 80.0834 24.3425 79.8994 25.1505L79.0194 29.0705H76.6194L74.6914 21.2305H76.5634Z" fill="white"/>
<path d="M91.641 21.0236C93.081 21.0236 94.089 21.6796 94.633 22.6316C95.105 23.4556 95.257 24.4716 95.257 25.6876H89.681C89.713 27.0076 90.377 27.9516 91.657 27.9516C92.489 27.9516 93.073 27.5276 93.313 26.7356H95.241C94.817 28.4396 93.537 29.2876 91.641 29.2876C89.121 29.2876 87.793 27.6956 87.793 25.1196C87.793 22.7516 89.281 21.0156 91.641 21.0156V21.0236ZM91.553 22.3436C90.553 22.3436 89.761 23.0316 89.657 24.3516H93.409C93.321 23.0316 92.545 22.3436 91.553 22.3436Z" fill="white"/>
<path d="M99.3489 21.2323V22.4003C99.8369 21.5763 100.533 21.1523 101.429 21.1523C101.685 21.1523 102.037 21.1683 102.293 21.2243V22.8083C102.021 22.7443 101.749 22.7363 101.501 22.7363C99.9969 22.7363 99.4529 23.7283 99.4529 25.6403V29.0723H97.6289V21.2323H99.3489Z" fill="white"/>
<path d="M107.493 21.0236C108.933 21.0236 109.941 21.6796 110.485 22.6316C110.957 23.4556 111.109 24.4716 111.109 25.6876H105.533C105.565 27.0076 106.229 27.9516 107.509 27.9516C108.341 27.9516 108.925 27.5276 109.165 26.7356H111.093C110.669 28.4396 109.389 29.2876 107.493 29.2876C104.973 29.2876 103.645 27.6956 103.645 25.1196C103.645 22.7516 105.133 21.0156 107.493 21.0156V21.0236ZM107.405 22.3436C106.405 22.3436 105.613 23.0316 105.509 24.3516H109.261C109.173 23.0316 108.397 22.3436 107.405 22.3436Z" fill="white"/>
<path d="M116.304 21.0791C117.248 21.0791 118.08 21.3831 118.6 22.1271V18.0391H120.424V29.0711H118.704V28.0231C118.16 28.7991 117.272 29.2231 116.304 29.2231C114.312 29.2231 112.992 27.7191 112.992 25.1351C112.992 22.5511 114.296 21.0791 116.304 21.0791ZM116.728 27.8151C117.88 27.8151 118.632 26.8151 118.632 25.1431C118.632 23.4711 117.904 22.4791 116.76 22.4791C115.616 22.4791 114.872 23.4951 114.872 25.1431C114.872 26.7911 115.584 27.8151 116.728 27.8151Z" fill="white"/>
<path d="M131.202 29.2231C130.226 29.2231 129.346 28.8151 128.786 28.0391V29.0711H127.082V18.0391H128.906V22.1431C129.482 21.3671 130.322 21.0791 131.234 21.0791C133.242 21.0791 134.498 22.6311 134.498 25.1351C134.498 27.6391 133.13 29.2231 131.202 29.2231ZM130.73 22.4711C129.594 22.4711 128.858 23.5511 128.858 25.1351C128.858 26.7191 129.602 27.8071 130.754 27.8071C131.906 27.8071 132.626 26.7751 132.626 25.1351C132.626 23.4951 131.914 22.4711 130.73 22.4711Z" fill="white"/>
<path d="M137.148 30.7427C138.012 30.7427 138.548 30.2387 138.668 29.1427L135.844 21.2227H137.884L139.036 25.1427C139.26 25.9027 139.428 26.6787 139.644 27.4387H139.732C139.932 26.6947 140.116 25.8867 140.34 25.1427L141.572 21.2227H143.468L140.732 28.8547C139.868 31.2547 139.092 32.1827 137.524 32.1827C137.132 32.1827 136.844 32.1827 136.356 32.0947V30.6227C136.628 30.7267 136.892 30.7427 137.148 30.7427Z" fill="white"/>
<path d="M153.81 18.0391L157.898 29.0711H155.858L154.81 26.0951H150.418L149.402 29.0711H147.41L151.466 18.0391H153.81ZM153.69 22.7671C153.338 21.7511 152.962 20.6551 152.69 19.6231H152.602C152.282 20.6391 151.978 21.7351 151.602 22.7671L150.962 24.5031H154.306L153.698 22.7671H153.69Z" fill="white"/>
<path d="M161.435 21.2323V22.4003C161.923 21.5763 162.619 21.1523 163.515 21.1523C163.771 21.1523 164.123 21.1683 164.379 21.2243V22.8083C164.107 22.7443 163.835 22.7363 163.587 22.7363C162.083 22.7363 161.539 23.7283 161.539 25.6403V29.0723H159.715V21.2323H161.435Z" fill="white"/>
<path d="M170.515 29.2231C169.539 29.2231 168.659 28.8151 168.099 28.0391V29.0711H166.395V18.0391H168.219V22.1431C168.795 21.3671 169.635 21.0791 170.547 21.0791C172.555 21.0791 173.811 22.6311 173.811 25.1351C173.811 27.6391 172.443 29.2231 170.515 29.2231ZM170.043 22.4711C168.907 22.4711 168.171 23.5511 168.171 25.1351C168.171 26.7191 168.915 27.8071 170.067 27.8071C171.219 27.8071 171.939 26.7751 171.939 25.1351C171.939 23.4951 171.227 22.4711 170.043 22.4711Z" fill="white"/>
<path d="M178.004 18.0391V19.8791H176.18V18.0391H178.004ZM178.004 21.2311V29.0711H176.18V21.2311H178.004Z" fill="white"/>
<path d="M181.276 19.2871H183.1V21.2311H184.652V22.6311H183.1V26.3271C183.1 27.2871 183.316 27.7431 184.044 27.7431C184.196 27.7431 184.38 27.7431 184.668 27.6791V29.0791C184.26 29.1831 183.908 29.2151 183.5 29.2151C181.948 29.2151 181.284 28.4711 181.284 26.6951V22.6391H180.02V21.2391H181.284V19.2951L181.276 19.2871Z" fill="white"/>
<path d="M188.525 21.2323V22.4003C189.013 21.5763 189.709 21.1523 190.605 21.1523C190.861 21.1523 191.213 21.1683 191.469 21.2243V22.8083C191.197 22.7443 190.925 22.7363 190.677 22.7363C189.173 22.7363 188.629 23.7283 188.629 25.6403V29.0723H186.805V21.2323H188.525Z" fill="white"/>
<path d="M196.067 29.2228C195.051 29.2228 194.331 28.8308 193.851 28.1588C193.475 27.6228 193.395 26.8068 193.395 25.6788V21.2228H195.203V25.6148C195.203 26.7668 195.387 27.8308 196.643 27.8308C197.187 27.8308 197.627 27.6308 197.931 27.2228C198.235 26.8148 198.419 26.1588 198.419 25.1988V21.2148H200.243V29.0548H198.539V28.0388C197.931 28.8628 196.955 29.2068 196.059 29.2068L196.067 29.2228Z" fill="white"/>
<path d="M204.742 21.2321L204.726 22.2801C205.198 21.5361 206.11 21.0801 207.142 21.0801C208.174 21.0801 208.934 21.4561 209.358 22.4001C209.918 21.4561 210.91 21.0801 212.03 21.0801C212.894 21.0801 213.502 21.3201 213.902 21.7761C214.374 22.3201 214.574 23.1281 214.574 24.1601V29.0721H212.75V24.4641C212.75 23.4161 212.51 22.4721 211.43 22.4721C210.126 22.4721 209.758 23.7201 209.758 25.2081V29.0721H207.934V24.4641C207.934 23.4161 207.662 22.4721 206.582 22.4721C205.278 22.4721 204.926 23.7201 204.926 25.2081V29.0721H203.102V21.2321H204.742Z" fill="white"/>
</g>
<defs>
<clipPath id="clip0_10284_126521">
<rect width="213.848" height="45.688" fill="white" transform="translate(0.730469 0.710938)"/>
</clipPath>
</defs>
</svg>
