<svg width="213" height="46" viewBox="0 0 213 46" fill="none" xmlns="http://www.w3.org/2000/svg">
<g clip-path="url(#clip0_10369_833)">
<path d="M23.5402 26.216L21.333 32.256C21.2692 32.4233 21.2692 32.6066 21.333 32.7739L25.1179 43.1725L29.5004 40.6386L24.2414 26.208C24.1219 25.8734 23.6517 25.8734 23.5322 26.208L23.5402 26.216Z" fill="white"/>
<path d="M27.9564 16.0479C27.8369 15.7132 27.3667 15.7132 27.2472 16.0479L25.04 22.0878C24.9763 22.2552 24.9763 22.4384 25.04 22.6058L31.2473 39.634L35.6298 37.1001L27.9484 16.0479H27.9564Z" fill="white"/>
<path d="M20.1597 2.82093C20.2713 2.82093 20.3749 2.8528 20.4785 2.90858L37.1959 12.5582C37.3951 12.6697 37.5146 12.8769 37.5146 13.1V32.4071C37.5146 32.6302 37.3951 32.8374 37.1959 32.949L20.4785 42.6145C20.3829 42.6703 20.2713 42.7021 20.1597 42.7021C20.0482 42.7021 19.9446 42.6703 19.841 42.6145L3.1395 32.949C2.94029 32.8374 2.82077 32.6302 2.82077 32.4071V13.092C2.82077 12.8689 2.94029 12.6617 3.1395 12.5502L19.8569 2.90061C19.9526 2.84483 20.0641 2.81296 20.1677 2.81296M20.1677 -0.0078125C19.5701 -0.0078125 18.9725 0.151553 18.4466 0.454348L1.72115 10.1199C0.661367 10.7334 0 11.8729 0 13.1V32.4071C0 33.6342 0.661367 34.7817 1.72115 35.3952L18.4386 45.0448C18.9725 45.3556 19.5621 45.507 20.1597 45.507C20.7574 45.507 21.355 45.3476 21.8809 45.0448L38.5983 35.3952C39.6661 34.7817 40.3195 33.6422 40.3195 32.4071V13.1C40.3195 11.8729 39.6581 10.7255 38.5983 10.1119L21.8968 0.462316C21.355 0.151553 20.7574 0.000155776 20.1677 0.000155776V-0.0078125Z" fill="white"/>
<path d="M18.7587 11.7207H14.5196C14.2008 11.7207 13.914 11.9199 13.8104 12.2147L4.72656 37.1236L9.10912 39.6575L19.1173 12.2227C19.2049 11.9837 19.0217 11.7207 18.7507 11.7207H18.7587Z" fill="white"/>
<path d="M26.1786 11.7207H21.9395C21.6208 11.7207 21.3339 11.9199 21.2303 12.2147L10.8477 40.6615L15.2302 43.1954L26.5213 12.2386C26.6169 11.9837 26.4256 11.7287 26.1707 11.7287L26.1786 11.7207Z" fill="white"/>
<path d="M58.4714 17.2598C59.5311 17.2598 60.5431 17.3315 61.3479 17.7777C62.3758 18.3355 62.9097 19.4271 62.9097 20.7578C62.9097 22.0885 62.336 23.0846 61.3638 23.6663C60.7264 24.0408 59.818 24.2081 58.4235 24.2081H56.8458V28.248H54.9414V17.2598H58.4714ZM60.0331 22.3754C60.6387 22.0407 60.9256 21.4192 60.9256 20.6622C60.9256 19.953 60.6069 19.3634 59.9853 19.0447C59.6188 18.8614 59.061 18.8136 58.3996 18.8136H56.8538V22.6463H58.3837C59.0929 22.6463 59.6666 22.5746 60.0331 22.3754Z" fill="white"/>
<path d="M72.1524 24.3442C72.1524 26.8144 70.6384 28.4638 68.232 28.4638C65.8255 28.4638 64.3594 26.8144 64.3594 24.3442C64.3594 21.874 65.8734 20.2246 68.2479 20.2246C70.6224 20.2246 72.1524 21.89 72.1524 24.3442ZM66.2479 24.3442C66.2479 25.9936 66.973 27.0694 68.232 27.0694C69.4909 27.0694 70.2639 26.0096 70.2639 24.3442C70.2639 22.6788 69.5228 21.6191 68.2479 21.6191C66.973 21.6191 66.2479 22.6788 66.2479 24.3442Z" fill="white"/>
<path d="M75.5325 20.4395L76.3533 24.3439C76.5047 25.085 76.6401 25.9376 76.7756 26.6866H76.8792C77.0147 25.9296 77.182 25.085 77.3493 24.328L78.2418 20.4395H80.7836L81.692 24.3439C81.8594 25.085 81.9948 25.9376 82.1462 26.6866H82.2498C82.3693 25.9296 82.5048 25.085 82.6562 24.3439L83.4849 20.4395H85.1981L83.2777 28.2484H80.8235L79.9629 24.328C79.7956 23.5391 79.6282 22.6945 79.4768 21.9056H79.3733C79.2059 22.6945 79.0386 23.5391 78.8553 24.3439L77.9788 28.2484H75.5883L73.668 20.4395H75.5325Z" fill="white"/>
<path d="M90.5515 20.2326C91.9858 20.2326 92.9898 20.886 93.5316 21.8342C94.0018 22.6549 94.1532 23.6669 94.1532 24.8781H88.5993C88.6311 26.1928 89.2925 27.1331 90.5674 27.1331C91.3961 27.1331 91.9778 26.7108 92.2169 25.9219H94.1372C93.7149 27.6192 92.44 28.4638 90.5515 28.4638C88.0415 28.4638 86.7188 26.8781 86.7188 24.3123C86.7188 21.9537 88.2008 20.2246 90.5515 20.2246V20.2326ZM90.4638 21.5473C89.4678 21.5473 88.6789 22.2326 88.5754 23.5474H92.3125C92.2248 22.2326 91.4519 21.5473 90.4638 21.5473Z" fill="white"/>
<path d="M98.2249 20.4391V21.6024C98.711 20.7817 99.4042 20.3594 100.297 20.3594C100.552 20.3594 100.902 20.3753 101.157 20.4311V22.0088C100.886 21.9451 100.615 21.9371 100.368 21.9371C98.8703 21.9371 98.3285 22.9252 98.3285 24.8296V28.248H96.5117V20.4391H98.2249Z" fill="white"/>
<path d="M106.337 20.2326C107.771 20.2326 108.775 20.886 109.317 21.8342C109.787 22.6549 109.938 23.6669 109.938 24.8781H104.384C104.416 26.1928 105.078 27.1331 106.353 27.1331C107.181 27.1331 107.763 26.7108 108.002 25.9219H109.922C109.5 27.6192 108.225 28.4638 106.337 28.4638C103.827 28.4638 102.504 26.8781 102.504 24.3123C102.504 21.9537 103.986 20.2246 106.337 20.2246V20.2326ZM106.249 21.5473C105.253 21.5473 104.464 22.2326 104.361 23.5474H108.098C108.01 22.2326 107.237 21.5473 106.249 21.5473Z" fill="white"/>
<path d="M115.119 20.2877C116.059 20.2877 116.888 20.5905 117.406 21.3316V17.2598H119.223V28.248H117.51V27.2042C116.968 27.9771 116.083 28.3994 115.119 28.3994C113.135 28.3994 111.82 26.9014 111.82 24.3276C111.82 21.7539 113.119 20.2877 115.119 20.2877ZM115.541 26.997C116.689 26.997 117.438 26.001 117.438 24.3356C117.438 22.6702 116.713 21.6822 115.573 21.6822C114.434 21.6822 113.693 22.6941 113.693 24.3356C113.693 25.9771 114.402 26.997 115.541 26.997Z" fill="white"/>
<path d="M129.955 28.3994C128.983 28.3994 128.107 27.993 127.549 27.2201V28.248H125.852V17.2598H127.668V21.3475C128.242 20.5746 129.079 20.2877 129.987 20.2877C131.987 20.2877 133.238 21.8336 133.238 24.3276C133.238 26.8217 131.876 28.3994 129.955 28.3994ZM129.485 21.6742C128.354 21.6742 127.621 22.7499 127.621 24.3276C127.621 25.9053 128.362 26.989 129.509 26.989C130.656 26.989 131.374 25.9611 131.374 24.3276C131.374 22.6941 130.664 21.6742 129.485 21.6742Z" fill="white"/>
<path d="M135.877 29.9139C136.738 29.9139 137.271 29.4119 137.391 28.3202L134.578 20.4316H136.61L137.757 24.3361C137.981 25.0931 138.148 25.866 138.363 26.623H138.451C138.65 25.8819 138.833 25.0771 139.056 24.3361L140.283 20.4316H142.172L139.447 28.0334C138.586 30.4239 137.813 31.3482 136.251 31.3482C135.861 31.3482 135.574 31.3482 135.088 31.2605V29.7944C135.359 29.898 135.622 29.9139 135.877 29.9139Z" fill="white"/>
<path d="M152.472 17.2598L156.544 28.248H154.512L153.468 25.2838H149.094L148.082 28.248H146.098L150.138 17.2598H152.472ZM152.353 21.969C152.002 20.957 151.628 19.8654 151.357 18.8375H151.269C150.95 19.8495 150.648 20.9411 150.273 21.969L149.636 23.6981H152.966L152.361 21.969H152.353Z" fill="white"/>
<path d="M160.069 20.4391V21.6024C160.555 20.7817 161.248 20.3594 162.14 20.3594C162.395 20.3594 162.746 20.3753 163.001 20.4311V22.0088C162.73 21.9451 162.459 21.9371 162.212 21.9371C160.714 21.9371 160.172 22.9252 160.172 24.8296V28.248H158.355V20.4391H160.069Z" fill="white"/>
<path d="M169.111 28.3994C168.139 28.3994 167.263 27.993 166.705 27.2201V28.248H165.008V17.2598H166.825V21.3475C167.398 20.5746 168.235 20.2877 169.143 20.2877C171.143 20.2877 172.394 21.8336 172.394 24.3276C172.394 26.8217 171.032 28.3994 169.111 28.3994ZM168.641 21.6742C167.51 21.6742 166.777 22.7499 166.777 24.3276C166.777 25.9053 167.518 26.989 168.665 26.989C169.813 26.989 170.53 25.9611 170.53 24.3276C170.53 22.6941 169.821 21.6742 168.641 21.6742Z" fill="white"/>
<path d="M176.571 17.2598V19.0925H174.754V17.2598H176.571ZM176.571 20.4391V28.248H174.754V20.4391H176.571Z" fill="white"/>
<path d="M179.829 18.502H181.646V20.4382H183.192V21.8327H181.646V25.514C181.646 26.4702 181.861 26.9244 182.586 26.9244C182.738 26.9244 182.921 26.9244 183.208 26.8607V28.2551C182.801 28.3587 182.451 28.3906 182.044 28.3906C180.498 28.3906 179.837 27.6495 179.837 25.8806V21.8407H178.578V20.4462H179.837V18.5099L179.829 18.502Z" fill="white"/>
<path d="M187.049 20.4391V21.6024C187.535 20.7817 188.228 20.3594 189.121 20.3594C189.376 20.3594 189.726 20.3753 189.981 20.4311V22.0088C189.711 21.9451 189.44 21.9371 189.193 21.9371C187.695 21.9371 187.153 22.9252 187.153 24.8296V28.248H185.336V20.4391H187.049Z" fill="white"/>
<path d="M194.56 28.4001C193.548 28.4001 192.831 28.0096 192.353 27.3403C191.978 26.8064 191.898 25.9937 191.898 24.8701V20.4318H193.699V24.8064C193.699 25.9538 193.883 27.0136 195.134 27.0136C195.675 27.0136 196.114 26.8144 196.416 26.408C196.719 26.0016 196.903 25.3482 196.903 24.392V20.4238H198.719V28.2327H197.022V27.2208C196.416 28.0415 195.444 28.3841 194.552 28.3841L194.56 28.4001Z" fill="white"/>
<path d="M203.2 20.4385L203.184 21.4824C203.654 20.7413 204.562 20.2871 205.59 20.2871C206.618 20.2871 207.375 20.6616 207.798 21.6019C208.355 20.6616 209.343 20.2871 210.459 20.2871C211.32 20.2871 211.925 20.5262 212.324 20.9804C212.794 21.5222 212.993 22.327 212.993 23.3549V28.2474H211.176V23.6577C211.176 22.6138 210.937 21.6736 209.861 21.6736C208.563 21.6736 208.196 22.9166 208.196 24.3987V28.2474H206.379V23.6577C206.379 22.6138 206.108 21.6736 205.033 21.6736C203.734 21.6736 203.383 22.9166 203.383 24.3987V28.2474H201.566V20.4385H203.2Z" fill="white"/>
</g>
<defs>
<clipPath id="clip0_10369_833">
<rect width="213" height="45.5068" fill="white"/>
</clipPath>
</defs>
</svg>
