<svg width="100" height="18" viewBox="0 0 100 18" fill="none" xmlns="http://www.w3.org/2000/svg">
<path d="M67.9102 15.0536V6.9481L70.1 4.82129H77.7919L79.9818 6.9481V15.0536L77.7919 17.1804H70.1L67.9102 15.0536ZM76.0885 13.9193V8.0824H71.829V13.9193H76.0885Z" fill="white"/>
<path d="M82.0137 0H85.9325V3.52105H82.0137V0ZM82.0137 4.82077H85.9325V17.1799H82.0137V4.82077Z" fill="white"/>
<path d="M96.059 8.27144H92.0673V17.1804H88.1484V4.82129H92.0673V6.33369L93.625 4.82129H97.786L100.001 6.9481V17.1804H96.059V8.27144Z" fill="white"/>
<path d="M19.7149 15.1099V7.22886L21.7826 5.16113H28.6987L30.7664 7.22886V12.3293H23.4131V14.3734H27.0898V13.0638H30.7664V15.2694L28.8818 17.1756H21.7806L19.7129 15.1079L19.7149 15.1099ZM27.0917 9.73377V7.96537H23.4151V9.73377H27.0917Z" fill="white"/>
<path d="M31.6602 5.16113H35.5889L37.1977 12.1245L39.3797 5.16113H42.3907L44.5727 12.1245L46.1815 5.16113H50.0413L46.2268 17.1796H43.1016L40.8488 10.5628L38.5979 17.1796H35.4727L31.6582 5.16113H31.6602Z" fill="white"/>
<path d="M4.27134 17.1799H0V0.352539H6.04762V4.34424H4.27134V17.1799Z" fill="white"/>
<path d="M13.5771 0.352539H17.8464V17.1799H11.7988V13.1882H13.5771V0.352539Z" fill="white"/>
<path d="M10.3733 4.34375H6.04883L7.47458 13.1858H11.7991L10.3733 4.34375Z" fill="white"/>
<path d="M66.2437 6.53013V2.85745L63.664 0.352539H54.3415L51.7617 2.85745V4.34424V13.1882V14.675L54.3415 17.1799H63.664L66.2437 14.675V11.0023H62.2303V13.3576H55.7751V4.17489H62.2303V6.53013H66.2437Z" fill="white"/>
</svg>
