<svg width="398" height="398" viewBox="0 0 398 398" fill="none" xmlns="http://www.w3.org/2000/svg">
<rect x="0.448703" y="0.448703" width="397.102" height="397.103" rx="35.4475" fill="url(#paint0_linear_10498_1202)"/>
<rect x="0.448703" y="0.448703" width="397.102" height="397.103" rx="35.4475" fill="black"/>
<rect x="0.448703" y="0.448703" width="397.102" height="397.103" rx="35.4475" stroke="#315C4A" stroke-width="0.897406"/>
<mask id="mask0_10498_1202" style="mask-type:alpha" maskUnits="userSpaceOnUse" x="0" y="0" width="398" height="398">
<path d="M35.8962 0.5632H362.103C381.617 0.5632 397.436 16.3823 397.436 35.8962V362.104C397.436 381.618 381.617 397.437 362.103 397.437H35.8963C16.3824 397.437 0.5632 381.618 0.5632 362.104V35.8962C0.5632 16.3823 16.3823 0.5632 35.8962 0.5632Z" fill="url(#paint1_linear_10498_1202)"/>
<path d="M35.8962 0.5632H362.103C381.617 0.5632 397.436 16.3823 397.436 35.8962V362.104C397.436 381.618 381.617 397.437 362.103 397.437H35.8963C16.3824 397.437 0.5632 381.618 0.5632 362.104V35.8962C0.5632 16.3823 16.3823 0.5632 35.8962 0.5632Z" fill="black"/>
<path d="M35.8962 0.5632H362.103C381.617 0.5632 397.436 16.3823 397.436 35.8962V362.104C397.436 381.618 381.617 397.437 362.103 397.437H35.8963C16.3824 397.437 0.5632 381.618 0.5632 362.104V35.8962C0.5632 16.3823 16.3823 0.5632 35.8962 0.5632Z" stroke="#2DFFA0" stroke-width="1.1264"/>
</mask>
<g mask="url(#mask0_10498_1202)">
<g filter="url(#filter0_f_10498_1202)">
<ellipse cx="350.941" cy="30.0294" rx="214.687" ry="128.633" fill="url(#paint2_linear_10498_1202)" fill-opacity="0.25"/>
</g>
</g>
<path d="M255.798 347.679L254.023 345.904V343.629H256.548V345.379H262.023V342.504H255.698L254.098 340.879V336.879L255.873 335.104H262.698L264.498 336.879V339.029H261.973V337.404H256.623V340.154H262.948L264.548 341.754V345.904L262.773 347.679H255.798Z" fill="white"/>
<path d="M242.427 347.679L240.527 345.804V336.979L242.427 335.104H249.152L251.052 336.979V342.429H243.052V345.329H248.527V343.554H251.052V345.804L249.152 347.679H242.427ZM243.052 340.154H248.527V337.454H243.052V340.154Z" fill="white"/>
<path d="M219.293 347.679V335.104H221.818V336.504L223.218 335.104H227.768L229.168 336.504L230.568 335.104H235.393L237.268 336.979V347.679H234.743V337.529H229.543V347.679H227.018V337.529H221.818V347.679H219.293Z" fill="white"/>
<path d="M213.27 347.679V346.279L211.87 347.679H207.02L205.195 345.854V341.879L207.02 340.054H213.27V337.404H207.97V339.154H205.445V336.904L207.27 335.104H213.995L215.795 336.904V347.679H213.27ZM207.72 345.379H213.27V342.379H207.72V345.379Z" fill="white"/>
<path d="M193.234 352.179L191.459 350.404V348.404H193.959V349.829H199.534V345.854L198.134 347.254H193.134L191.234 345.354V336.979L193.134 335.104H198.134L199.534 336.504V335.104H202.059V350.404L200.284 352.179H193.234ZM193.759 344.829H199.534V337.529H193.759V344.829Z" fill="white"/>
<path d="M175.618 347.68V337.455H172.918V335.105H175.618V332.055L177.493 330.18H182.693V332.48H178.143V335.105H182.693V337.455H178.143V347.68H175.618Z" fill="white"/>
<path d="M161.908 347.679L160.008 345.804V336.979L161.908 335.104H168.958L170.833 336.979V345.804L168.958 347.679H161.908ZM162.533 345.279H168.308V337.504H162.533V345.279Z" fill="white"/>
<path d="M141.396 347.679L139.621 345.904V343.629H142.146V345.379H147.621V342.504H141.296L139.696 340.879V336.879L141.471 335.104H148.296L150.096 336.879V339.029H147.571V337.404H142.221V340.154H148.546L150.146 341.754V345.904L148.371 347.679H141.396Z" fill="white"/>
<path d="M128.021 347.679L126.121 345.804V336.979L128.021 335.104H134.746L136.646 336.979V342.429H128.646V345.329H134.121V343.554H136.646V345.804L134.746 347.679H128.021ZM128.646 340.154H134.121V337.454H128.646V340.154Z" fill="white"/>
<path d="M112.234 352.179V335.104H114.759V336.504L116.159 335.104H121.159L123.059 336.979V345.804L121.159 347.679H116.159L114.759 346.279V352.179H112.234ZM114.759 345.254H120.534V337.529H114.759V345.254Z" fill="white"/>
<path d="M100.534 352.179L102.909 346.729L98.1836 335.104H100.859L104.284 343.779L107.684 335.104H110.359L103.159 352.179H100.534Z" fill="white"/>
<path d="M91.8531 347.68L89.9781 345.805V337.455H87.2031V335.105H89.9781V331.555H92.5031V335.105H97.0531V337.455H92.5031V345.28H97.0531V347.68H91.8531Z" fill="white"/>
<path d="M69.9438 352.179L72.3187 346.729L67.5938 335.104H70.2687L73.6937 343.779L77.0938 335.104H79.7687L72.5687 352.179H69.9438Z" fill="white"/>
<path d="M63.3781 347.679V337.529H57.8531V347.679H55.3281V335.104H57.8531V336.504L59.2531 335.104H64.0281L65.9031 336.979V347.679H63.3781Z" fill="white"/>
<path d="M49.3055 347.679V346.279L47.9055 347.679H43.0555L41.2305 345.854V341.879L43.0555 340.054H49.3055V337.404H44.0055V339.154H41.4805V336.904L43.3055 335.104H50.0305L51.8305 336.904V347.679H49.3055ZM43.7555 345.379H49.3055V342.379H43.7555V345.379Z" fill="white"/>
<path d="M338.262 315.679V303.104H340.787V304.504L342.187 303.104H346.087V305.529H340.787V315.679H338.262Z" fill="white"/>
<path d="M326.021 315.679L324.121 313.804V304.979L326.021 303.104H333.071L334.946 304.979V313.804L333.071 315.679H326.021ZM326.646 313.279H332.421V305.504H326.646V313.279Z" fill="white"/>
<path d="M315.63 315.68V305.455H312.93V303.105H315.63V300.055L317.505 298.18H322.705V300.48H318.155V303.105H322.705V305.455H318.155V315.68H315.63Z" fill="white"/>
<path d="M286.16 315.679V303.104H288.685V304.504L290.085 303.104H294.635L296.035 304.504L297.435 303.104H302.26L304.135 304.979V315.679H301.61V305.529H296.41V315.679H293.885V305.529H288.685V315.679H286.16Z" fill="white"/>
<path d="M274.209 315.679L272.434 313.904V311.629H274.959V313.379H280.434V310.504H274.109L272.509 308.879V304.879L274.284 303.104H281.109L282.909 304.879V307.029H280.384V305.404H275.034V308.154H281.359L282.959 309.754V313.904L281.184 315.679H274.209Z" fill="white"/>
<path d="M266.656 315.679V303.104H269.181V315.679H266.656ZM266.656 301.329V298.354H269.181V301.329H266.656Z" fill="white"/>
<path d="M260.57 315.679V305.529H255.045V315.679H252.52V303.104H255.045V304.504L256.445 303.104H261.22L263.095 304.979V315.679H260.57Z" fill="white"/>
<path d="M246.497 315.679V314.279L245.097 315.679H240.247L238.422 313.854V309.879L240.247 308.054H246.497V305.404H241.197V307.154H238.672V304.904L240.497 303.104H247.222L249.022 304.904V315.679H246.497ZM240.947 313.379H246.497V310.379H240.947V313.379Z" fill="white"/>
<path d="M224.762 298.18H227.287V304.505L228.687 303.105H233.462L235.337 304.98V315.68H232.812V305.53H227.287V315.68H224.762V298.18Z" fill="white"/>
<path d="M212.982 315.679L211.082 313.804V304.979L212.982 303.104H219.782L221.657 304.979V307.904H219.132V305.504H213.607V313.279H219.132V310.879H221.657V313.804L219.782 315.679H212.982Z" fill="white"/>
<path d="M199.408 315.679L197.508 313.804V304.979L199.408 303.104H206.133L208.033 304.979V310.429H200.033V313.329H205.508V311.554H208.033V313.804L206.133 315.679H199.408ZM200.033 308.154H205.508V305.454H200.033V308.154Z" fill="white"/>
<path d="M176.273 315.679V303.104H178.798V304.504L180.198 303.104H184.748L186.148 304.504L187.548 303.104H192.373L194.248 304.979V315.679H191.723V305.529H186.523V315.679H183.998V305.529H178.798V315.679H176.273Z" fill="white"/>
<path d="M163.351 315.679V305.529H157.826V315.679H155.301V303.104H157.826V304.504L159.226 303.104H164.001L165.876 304.979V315.679H163.351Z" fill="white"/>
<path d="M143.06 315.679L141.16 313.804V304.979L143.06 303.104H150.11L151.985 304.979V313.804L150.11 315.679H143.06ZM143.685 313.279H149.46V305.504H143.685V313.279Z" fill="white"/>
<path d="M135.285 315.679V303.104H137.81V315.679H135.285ZM135.285 301.329V298.354H137.81V301.329H135.285Z" fill="white"/>
<path d="M127.255 315.68L125.38 313.805V305.455H122.605V303.105H125.38V299.555H127.905V303.105H132.455V305.455H127.905V313.28H132.455V315.68H127.255Z" fill="white"/>
<path d="M117.934 315.679V314.279L116.534 315.679H111.684L109.859 313.854V309.879L111.684 308.054H117.934V305.404H112.634V307.154H110.109V304.904L111.934 303.104H118.659L120.459 304.904V315.679H117.934ZM112.384 313.379H117.934V310.379H112.384V313.379Z" fill="white"/>
<path d="M100.809 315.679V303.104H103.334V304.504L104.734 303.104H108.634V305.529H103.334V315.679H100.809Z" fill="white"/>
<path d="M88.4258 320.179L86.6508 318.404V316.404H89.1508V317.829H94.7258V313.854L93.3258 315.254H88.3258L86.4258 313.354V304.979L88.3258 303.104H93.3258L94.7258 304.504V303.104H97.2508V318.404L95.4758 320.179H88.4258ZM88.9508 312.829H94.7258V305.529H88.9508V312.829Z" fill="white"/>
<path d="M74.7516 315.679L72.8516 313.804V304.979L74.7516 303.104H81.4766L83.3766 304.979V310.429H75.3766V313.329H80.8516V311.554H83.3766V313.804L81.4766 315.679H74.7516ZM75.3766 308.154H80.8516V305.454H75.3766V308.154Z" fill="white"/>
<path d="M65.193 315.68L63.318 313.805V305.455H60.543V303.105H63.318V299.555H65.843V303.105H70.393V305.455H65.843V313.28H70.393V315.68H65.193Z" fill="white"/>
<path d="M55.8586 315.679V305.529H50.3336V315.679H47.8086V303.104H50.3336V304.504L51.7336 303.104H56.5086L58.3836 304.979V315.679H55.8586Z" fill="white"/>
<path d="M41.6797 315.679V303.104H44.2047V315.679H41.6797ZM41.6797 301.329V298.354H44.2047V301.329H41.6797Z" fill="white"/>
<path d="M219.458 283.68L217.383 281.605V277.83H220.008V281.18H228.008V276.055H221.383V273.555H228.008V268.68H220.033V271.955H217.408V268.255L219.483 266.18H228.558L230.633 268.255V273.405L229.033 274.805L230.633 276.205V281.605L228.558 283.68H219.458Z" fill="white"/>
<path d="M203.18 283.68V266.18H205.705V272.505L207.105 271.105H212.105L214.005 272.98V281.805L212.105 283.68H207.105L205.705 282.28V283.68H203.18ZM205.705 281.255H211.48V273.53H205.705V281.255Z" fill="white"/>
<path d="M191.279 283.679L189.379 281.804V272.979L191.279 271.104H198.004L199.904 272.979V278.429H191.904V281.329H197.379V279.554H199.904V281.804L198.004 283.679H191.279ZM191.904 276.154H197.379V273.454H191.904V276.154Z" fill="white"/>
<path d="M170.209 283.68L165.434 266.18H168.234L171.559 279.255L175.659 266.18H177.909L182.009 279.255L185.334 266.18H188.059L183.284 283.68H180.809L176.734 270.98L172.684 283.68H170.209Z" fill="white"/>
<path d="M147.701 283.679L145.801 281.804V272.979L147.701 271.104H154.426L156.326 272.979V278.429H148.326V281.329H153.801V279.554H156.326V281.804L154.426 283.679H147.701ZM148.326 276.154H153.801V273.454H148.326V276.154Z" fill="white"/>
<path d="M137.119 283.679L132.094 271.104H134.769L138.219 280.179L141.644 271.104H144.269L139.244 283.679H137.119Z" fill="white"/>
<path d="M127.617 283.679V271.104H130.142V283.679H127.617ZM127.617 269.329V266.354H130.142V269.329H127.617Z" fill="white"/>
<path d="M119.587 283.68L117.712 281.805V273.455H114.938V271.105H117.712V267.555H120.237V271.105H124.787V273.455H120.237V281.28H124.787V283.68H119.587Z" fill="white"/>
<path d="M110.266 283.679V282.279L108.866 283.679H104.016L102.191 281.854V277.879L104.016 276.054H110.266V273.404H104.966V275.154H102.441V272.904L104.266 271.104H110.991L112.791 272.904V283.679H110.266ZM104.716 281.379H110.266V278.379H104.716V281.379Z" fill="white"/>
<path d="M93.6617 283.679L88.6367 271.104H91.3117L94.7617 280.179L98.1867 271.104H100.812L95.7867 283.679H93.6617Z" fill="white"/>
<path d="M78.1695 283.679L76.2695 281.804V272.979L78.1695 271.104H85.2195L87.0945 272.979V281.804L85.2195 283.679H78.1695ZM78.7945 281.279H84.5695V273.504H78.7945V281.279Z" fill="white"/>
<path d="M70.4797 283.679V273.529H64.9547V283.679H62.4297V271.104H64.9547V272.504L66.3547 271.104H71.1297L73.0047 272.979V283.679H70.4797Z" fill="white"/>
<path d="M56.3938 283.679V273.529H50.8688V283.679H48.3438V271.104H50.8688V272.504L52.2688 271.104H57.0438L58.9188 272.979V283.679H56.3938Z" fill="white"/>
<path d="M41.9062 283.68V266.18H44.5313V283.68H41.9062Z" fill="white"/>
<path d="M192.14 247.581L191.004 246.445V244.989H192.62V246.109H196.124V244.269H192.076L191.052 243.229V240.669L192.188 239.533H196.556L197.708 240.669V242.045H196.092V241.005H192.668V242.765H196.716L197.74 243.789V246.445L196.604 247.581H192.14Z" fill="url(#paint3_linear_10498_1202)"/>
<path d="M183.579 247.581L182.363 246.381V240.733L183.579 239.533H187.883L189.099 240.733V244.221H183.979V246.077H187.483V244.941H189.099V246.381L187.883 247.581H183.579ZM183.979 242.765H187.483V241.037H183.979V242.765Z" fill="url(#paint4_linear_10498_1202)"/>
<path d="M168.773 247.581V239.533H170.389V240.429L171.285 239.533H174.197L175.093 240.429L175.989 239.533H179.077L180.277 240.733V247.581H178.661V241.085H175.333V247.581H173.717V241.085H170.389V247.581H168.773Z" fill="url(#paint5_linear_10498_1202)"/>
<path d="M164.922 247.581V246.685L164.026 247.581H160.922L159.754 246.413V243.869L160.922 242.701H164.922V241.005H161.53V242.125H159.914V240.685L161.082 239.533H165.386L166.538 240.685V247.581H164.922ZM161.37 246.109H164.922V244.189H161.37V246.109Z" fill="url(#paint6_linear_10498_1202)"/>
<path d="M150.446 247.581L149.102 246.253V237.709L150.446 236.381H156.43L157.758 237.709V239.901H156.078V237.997H150.782V245.965H156.078V243.101H153.23V241.485H157.758V246.253L156.43 247.581H150.446Z" fill="url(#paint7_linear_10498_1202)"/>
<path d="M137.16 250.461L138.68 246.973L135.656 239.533H137.368L139.56 245.085L141.736 239.533H143.448L138.84 250.461H137.16Z" fill="url(#paint8_linear_10498_1202)"/>
<path d="M132.957 247.581V241.085H129.421V247.581H127.805V239.533H129.421V240.429L130.317 239.533H133.373L134.573 240.733V247.581H132.957Z" fill="url(#paint9_linear_10498_1202)"/>
<path d="M116.223 247.581L120.591 236.381H122.047L126.415 247.581H124.639L123.839 245.469H118.751L117.951 247.581H116.223ZM119.343 243.917H123.247L121.295 238.765L119.343 243.917Z" fill="url(#paint10_linear_10498_1202)"/>
<path d="M106.383 247.581V239.533H107.999V240.429L108.895 239.533H111.391V241.085H107.999V247.581H106.383Z" fill="url(#paint11_linear_10498_1202)"/>
<path d="M98.548 247.581L97.332 246.381V240.733L98.548 239.533H103.06L104.26 240.733V246.381L103.06 247.581H98.548ZM98.948 246.045H102.644V241.069H98.948V246.045Z" fill="url(#paint12_linear_10498_1202)"/>
<path d="M88.8867 247.581V236.381H96.6947V237.981H90.5667V241.181H95.4787V242.781H90.5667V247.581H88.8867Z" fill="url(#paint13_linear_10498_1202)"/>
<path d="M74.8827 247.581L73.5547 246.253V243.837H75.2347V245.981H80.3547V242.701H76.1147V241.101H80.3547V237.981H75.2507V240.077H73.5707V237.709L74.8987 236.381H80.7067L82.0347 237.709V241.005L81.0107 241.901L82.0347 242.797V246.253L80.7067 247.581H74.8827Z" fill="url(#paint14_linear_10498_1202)"/>
<path d="M64.4609 247.581V236.381H66.0769V240.429L66.9729 239.533H70.1729L71.3889 240.733V246.381L70.1729 247.581H66.9729L66.0769 246.685V247.581H64.4609ZM66.0769 246.029H69.7729V241.085H66.0769V246.029Z" fill="url(#paint15_linear_10498_1202)"/>
<path d="M56.8449 247.581L55.6289 246.381V240.733L56.8449 239.533H61.1489L62.3649 240.733V244.221H57.2449V246.077H60.7489V244.941H62.3649V246.381L61.1489 247.581H56.8449ZM57.2449 242.765H60.7489V241.037H57.2449V242.765Z" fill="url(#paint16_linear_10498_1202)"/>
<path d="M43.3607 247.581L40.3047 236.381H42.0967L44.2247 244.749L46.8487 236.381H48.2887L50.9127 244.749L53.0407 236.381H54.7847L51.7287 247.581H50.1447L47.5367 239.453L44.9447 247.581H43.3607Z" fill="url(#paint17_linear_10498_1202)"/>
<path d="M310.344 94.6154L287.863 81.6358L310.344 68.6562L332.825 81.6358L310.344 94.6154Z" fill="#06170E"/>
<path d="M310.344 120.575V94.6153L287.863 81.6357V107.595L310.344 120.575Z" fill="#06170E"/>
<path d="M310.344 120.575V94.6153L332.824 81.6357V107.595L310.344 120.575Z" fill="#06170E"/>
<path fill-rule="evenodd" clip-rule="evenodd" d="M310.088 68.2199C310.244 68.1298 310.437 68.1298 310.593 68.2199L333.073 81.1995C333.229 81.2896 333.326 81.4561 333.326 81.6363C333.326 81.6437 333.325 81.6511 333.325 81.6584V107.595C333.325 107.776 333.229 107.942 333.073 108.032L310.606 121.004C310.602 121.006 310.597 121.009 310.593 121.012C310.515 121.057 310.427 121.079 310.34 121.079C310.253 121.079 310.166 121.057 310.088 121.012C310.083 121.009 310.079 121.006 310.075 121.004L287.608 108.032C287.452 107.942 287.355 107.776 287.355 107.595V81.6363V81.6361C287.355 81.4559 287.452 81.2894 287.608 81.1993L287.619 81.193L310.088 68.2199ZM309.836 94.9069V119.701L288.364 107.304V82.51L309.836 94.9069ZM331.812 81.6361L310.34 94.0332L288.869 81.6362L310.341 69.2392L331.812 81.6361ZM310.845 119.701L332.316 107.304V82.5103L310.845 94.9071V119.701Z" fill="url(#paint18_linear_10498_1202)"/>
<path d="M244.457 83.0227L221.977 70.0431L244.457 57.0635L266.938 70.0431L244.457 83.0227Z" fill="#06170E"/>
<path d="M244.457 108.982V83.0226L221.977 70.043V96.0021L244.457 108.982Z" fill="#06170E"/>
<path d="M244.453 108.982V83.0226L266.934 70.043V96.0021L244.453 108.982Z" fill="#06170E"/>
<path fill-rule="evenodd" clip-rule="evenodd" d="M244.198 56.6272C244.354 56.537 244.546 56.537 244.702 56.6272L267.183 69.6067C267.339 69.6968 267.435 69.8634 267.435 70.0436C267.435 70.0509 267.435 70.0583 267.434 70.0656V96.0025C267.434 96.1828 267.338 96.3493 267.182 96.4394L244.715 109.411C244.711 109.414 244.707 109.416 244.702 109.419C244.624 109.464 244.537 109.487 244.45 109.487C244.362 109.487 244.275 109.464 244.197 109.419C244.193 109.416 244.188 109.414 244.184 109.411L221.717 96.4394C221.561 96.3493 221.465 96.1828 221.465 96.0025V70.0436V70.0434C221.465 69.8632 221.561 69.6966 221.717 69.6065L221.728 69.6002L244.198 56.6272ZM243.945 83.3141V108.108L222.474 95.7113V70.9172L243.945 83.3141ZM265.921 70.0433L244.45 82.4404L222.978 70.0435L244.45 57.6464L265.921 70.0433ZM244.954 108.108L266.426 95.7113V70.9175L244.954 83.3144V108.108Z" fill="url(#paint19_linear_10498_1202)"/>
<path d="M332.867 133.598L310.387 120.618L332.867 107.639L355.348 120.618L332.867 133.598Z" fill="#06170E"/>
<path d="M332.867 159.557V133.598L310.387 120.618V146.577L332.867 159.557Z" fill="#06170E"/>
<path d="M332.863 159.557V133.598L355.344 120.618V146.577L332.863 159.557Z" fill="#06170E"/>
<path fill-rule="evenodd" clip-rule="evenodd" d="M332.608 107.202C332.764 107.112 332.956 107.112 333.112 107.202L355.593 120.182C355.749 120.272 355.845 120.439 355.845 120.619C355.845 120.626 355.845 120.633 355.845 120.641V146.578C355.845 146.758 355.748 146.924 355.592 147.015L333.125 159.986C333.121 159.989 333.117 159.992 333.112 159.994C333.034 160.039 332.947 160.062 332.86 160.062C332.773 160.062 332.685 160.039 332.607 159.994C332.603 159.992 332.599 159.989 332.594 159.986L310.127 147.015C309.971 146.924 309.875 146.758 309.875 146.578V120.619V120.619C309.875 120.438 309.971 120.272 310.127 120.182L310.139 120.175L332.608 107.202ZM332.355 133.889V158.683L310.884 146.287V121.492L332.355 133.889ZM354.332 120.619L332.86 133.016L311.388 120.619L332.86 108.222L354.332 120.619ZM333.364 158.683L354.836 146.287V121.493L333.364 133.89V158.683Z" fill="url(#paint20_linear_10498_1202)"/>
<path d="M332.942 107.569L310.461 94.589L332.942 81.6094L355.422 94.589L332.942 107.569Z" fill="#06170E"/>
<path d="M332.942 133.528V107.568L310.461 94.5889V120.548L332.942 133.528Z" fill="#06170E"/>
<path d="M332.938 133.528V107.568L355.418 94.5889V120.548L332.938 133.528Z" fill="#06170E"/>
<path fill-rule="evenodd" clip-rule="evenodd" d="M332.686 81.1721C332.842 81.082 333.034 81.082 333.19 81.1721L355.671 94.1517C355.827 94.2418 355.923 94.4083 355.923 94.5885C355.923 94.5959 355.923 94.6032 355.923 94.6105V120.547C355.923 120.728 355.827 120.894 355.671 120.984L333.204 133.956C333.199 133.959 333.195 133.961 333.19 133.964C333.112 134.009 333.025 134.032 332.938 134.031C332.851 134.032 332.764 134.009 332.685 133.964C332.681 133.961 332.677 133.959 332.672 133.956L310.205 120.984C310.049 120.894 309.953 120.728 309.953 120.547V94.5885V94.5883C309.953 94.4081 310.049 94.2416 310.205 94.1515L310.217 94.1451L332.686 81.1721ZM332.433 107.859V132.653L310.962 120.256V95.4621L332.433 107.859ZM354.41 94.5882L332.938 106.985L311.466 94.5884L332.938 82.1913L354.41 94.5882ZM333.443 132.653L354.914 120.256V95.4624L333.443 107.859V132.653Z" fill="url(#paint21_linear_10498_1202)"/>
<path d="M288.317 133.698L265.836 120.719L288.317 107.739L310.797 120.719L288.317 133.698Z" fill="#06170E"/>
<path d="M288.317 159.658V133.698L265.836 120.719V146.678L288.317 159.658Z" fill="#06170E"/>
<path d="M288.312 159.658V133.698L310.793 120.719V146.678L288.312 159.658Z" fill="#06170E"/>
<path fill-rule="evenodd" clip-rule="evenodd" d="M288.061 107.302C288.217 107.212 288.409 107.212 288.565 107.302L311.046 120.282C311.202 120.372 311.298 120.538 311.298 120.718C311.298 120.726 311.298 120.733 311.298 120.74V146.677C311.298 146.858 311.202 147.024 311.046 147.114L288.579 160.086C288.574 160.089 288.57 160.091 288.565 160.094C288.487 160.139 288.4 160.161 288.313 160.161C288.226 160.161 288.139 160.139 288.06 160.094C288.056 160.091 288.052 160.089 288.047 160.086L265.58 147.114C265.424 147.024 265.328 146.858 265.328 146.677V120.718V120.718C265.328 120.538 265.424 120.371 265.58 120.281L265.592 120.275L288.061 107.302ZM287.808 133.989V158.783L266.337 146.386V121.592L287.808 133.989ZM309.785 120.718L288.313 133.115L266.841 120.718L288.313 108.321L309.785 120.718ZM288.818 158.783L310.289 146.386V121.592L288.818 133.989V158.783Z" fill="url(#paint22_linear_10498_1202)"/>
<path d="M310.512 146.51L288.031 133.53L310.512 120.551L332.993 133.53L310.512 146.51Z" fill="#06170E"/>
<path d="M310.512 172.469V146.51L288.031 133.53V159.489L310.512 172.469Z" fill="#06170E"/>
<path d="M310.508 172.469V146.51L332.988 133.53V159.489L310.508 172.469Z" fill="#06170E"/>
<path fill-rule="evenodd" clip-rule="evenodd" d="M310.26 120.115C310.416 120.025 310.609 120.025 310.765 120.115L333.245 133.095C333.401 133.185 333.497 133.352 333.497 133.532C333.497 133.539 333.497 133.547 333.497 133.554V159.491C333.497 159.671 333.401 159.838 333.245 159.928L310.778 172.899C310.774 172.902 310.769 172.905 310.765 172.907C310.686 172.952 310.599 172.975 310.512 172.975C310.425 172.975 310.338 172.952 310.26 172.907C310.255 172.905 310.251 172.902 310.246 172.899L287.78 159.928C287.623 159.838 287.527 159.671 287.527 159.491V133.532V133.532C287.527 133.351 287.623 133.185 287.78 133.095L287.791 133.089L310.26 120.115ZM310.008 146.802V171.596L288.536 159.2V134.406L310.008 146.802ZM331.984 133.532L310.512 145.929L289.041 133.532L310.512 121.135L331.984 133.532ZM311.017 171.596L332.488 159.2V134.406L311.017 146.803V171.596Z" fill="url(#paint23_linear_10498_1202)"/>
<path d="M310.578 120.752L288.098 107.773L310.578 94.793L333.059 107.773L310.578 120.752Z" fill="#06170E"/>
<path d="M310.578 146.711V120.752L288.098 107.772V133.732L310.578 146.711Z" fill="#06170E"/>
<path d="M310.578 146.711V120.752L333.059 107.772V133.732L310.578 146.711Z" fill="#06170E"/>
<path fill-rule="evenodd" clip-rule="evenodd" d="M310.33 94.3576C310.487 94.2675 310.679 94.2675 310.835 94.3576L333.316 107.337C333.472 107.427 333.568 107.594 333.568 107.774C333.568 107.781 333.568 107.789 333.567 107.796V133.733C333.567 133.913 333.471 134.08 333.315 134.17L310.848 147.142C310.844 147.144 310.839 147.147 310.835 147.149C310.757 147.195 310.67 147.217 310.582 147.217C310.495 147.217 310.408 147.195 310.33 147.149C310.326 147.147 310.321 147.144 310.317 147.142L287.85 134.17C287.694 134.08 287.598 133.913 287.598 133.733V107.774V107.774C287.598 107.594 287.694 107.427 287.85 107.337L287.861 107.331L310.33 94.3576ZM310.078 121.045V145.839L288.606 133.442V108.648L310.078 121.045ZM332.054 107.774L310.582 120.171L289.111 107.774L310.583 95.3769L332.054 107.774ZM311.087 145.839L332.558 133.442V108.648L311.087 121.045V145.839Z" fill="url(#paint24_linear_10498_1202)"/>
<path d="M236.775 148.251L225.793 141.91L236.775 135.569L247.757 141.91L236.775 148.251Z" fill="#06170E"/>
<path d="M236.775 160.931V148.25L225.793 141.909V154.591L236.775 160.931Z" fill="#06170E"/>
<path d="M236.773 160.931V148.25L247.755 141.909V154.591L236.773 160.931Z" fill="#06170E"/>
<path fill-rule="evenodd" clip-rule="evenodd" d="M236.521 135.137C236.676 135.048 236.866 135.048 237.021 135.137L248.003 141.478C248.158 141.567 248.253 141.732 248.253 141.911C248.253 141.929 248.252 141.947 248.25 141.965V154.592C248.25 154.771 248.155 154.936 248 155.025L237.054 161.345C237.043 161.353 237.032 161.359 237.021 161.366C236.943 161.411 236.856 161.433 236.77 161.433C236.683 161.433 236.596 161.411 236.518 161.366C236.507 161.359 236.496 161.353 236.486 161.345L225.539 155.025C225.384 154.936 225.289 154.771 225.289 154.592V141.911V141.911C225.289 141.732 225.384 141.567 225.539 141.478L225.549 141.472L236.521 135.137ZM236.268 148.539V160.065L226.289 154.304V142.777L236.268 148.539ZM246.752 141.91L236.77 147.673L226.789 141.911L236.771 136.148L246.752 141.91ZM237.271 160.065L247.25 154.304V142.779L237.271 148.54V160.065Z" fill="url(#paint25_linear_10498_1202)"/>
<defs>
<filter id="filter0_f_10498_1202" x="-222.708" y="-457.566" width="1147.3" height="975.19" filterUnits="userSpaceOnUse" color-interpolation-filters="sRGB">
<feFlood flood-opacity="0" result="BackgroundImageFix"/>
<feBlend mode="normal" in="SourceGraphic" in2="BackgroundImageFix" result="shape"/>
<feGaussianBlur stdDeviation="179.481" result="effect1_foregroundBlur_10498_1202"/>
</filter>
<linearGradient id="paint0_linear_10498_1202" x1="-30.6329" y1="384.627" x2="433.18" y2="9.71393" gradientUnits="userSpaceOnUse">
<stop stop-color="#DCF507"/>
<stop offset="0.05" stop-color="#D3F50F"/>
<stop offset="0.12" stop-color="#BDF627"/>
<stop offset="0.22" stop-color="#99F84D"/>
<stop offset="0.33" stop-color="#66FA82"/>
<stop offset="0.45" stop-color="#26FDC5"/>
<stop offset="0.5" stop-color="#0CFFE2"/>
<stop offset="0.62" stop-color="#1AFFC4"/>
<stop offset="1" stop-color="#49FF66"/>
</linearGradient>
<linearGradient id="paint1_linear_10498_1202" x1="-30.6329" y1="384.627" x2="433.18" y2="9.71393" gradientUnits="userSpaceOnUse">
<stop stop-color="#DCF507"/>
<stop offset="0.05" stop-color="#D3F50F"/>
<stop offset="0.12" stop-color="#BDF627"/>
<stop offset="0.22" stop-color="#99F84D"/>
<stop offset="0.33" stop-color="#66FA82"/>
<stop offset="0.45" stop-color="#26FDC5"/>
<stop offset="0.5" stop-color="#0CFFE2"/>
<stop offset="0.62" stop-color="#1AFFC4"/>
<stop offset="1" stop-color="#49FF66"/>
</linearGradient>
<linearGradient id="paint2_linear_10498_1202" x1="103.206" y1="150.018" x2="396.576" y2="-245.765" gradientUnits="userSpaceOnUse">
<stop stop-color="#DCF507"/>
<stop offset="0.05" stop-color="#D3F50F"/>
<stop offset="0.12" stop-color="#BDF627"/>
<stop offset="0.22" stop-color="#99F84D"/>
<stop offset="0.33" stop-color="#66FA82"/>
<stop offset="0.45" stop-color="#26FDC5"/>
<stop offset="0.5" stop-color="#0CFFE2"/>
<stop offset="0.62" stop-color="#1AFFC4"/>
<stop offset="1" stop-color="#49FF66"/>
</linearGradient>
<linearGradient id="paint3_linear_10498_1202" x1="27.095" y1="249.957" x2="32.7426" y2="207.856" gradientUnits="userSpaceOnUse">
<stop stop-color="#DCF507"/>
<stop offset="0.05" stop-color="#D3F50F"/>
<stop offset="0.12" stop-color="#BDF627"/>
<stop offset="0.22" stop-color="#99F84D"/>
<stop offset="0.33" stop-color="#66FA82"/>
<stop offset="0.45" stop-color="#26FDC5"/>
<stop offset="0.5" stop-color="#0CFFE2"/>
<stop offset="0.62" stop-color="#1AFFC4"/>
<stop offset="1" stop-color="#49FF66"/>
</linearGradient>
<linearGradient id="paint4_linear_10498_1202" x1="27.0939" y1="249.957" x2="32.7414" y2="207.856" gradientUnits="userSpaceOnUse">
<stop stop-color="#DCF507"/>
<stop offset="0.05" stop-color="#D3F50F"/>
<stop offset="0.12" stop-color="#BDF627"/>
<stop offset="0.22" stop-color="#99F84D"/>
<stop offset="0.33" stop-color="#66FA82"/>
<stop offset="0.45" stop-color="#26FDC5"/>
<stop offset="0.5" stop-color="#0CFFE2"/>
<stop offset="0.62" stop-color="#1AFFC4"/>
<stop offset="1" stop-color="#49FF66"/>
</linearGradient>
<linearGradient id="paint5_linear_10498_1202" x1="27.094" y1="249.957" x2="32.7416" y2="207.856" gradientUnits="userSpaceOnUse">
<stop stop-color="#DCF507"/>
<stop offset="0.05" stop-color="#D3F50F"/>
<stop offset="0.12" stop-color="#BDF627"/>
<stop offset="0.22" stop-color="#99F84D"/>
<stop offset="0.33" stop-color="#66FA82"/>
<stop offset="0.45" stop-color="#26FDC5"/>
<stop offset="0.5" stop-color="#0CFFE2"/>
<stop offset="0.62" stop-color="#1AFFC4"/>
<stop offset="1" stop-color="#49FF66"/>
</linearGradient>
<linearGradient id="paint6_linear_10498_1202" x1="27.0961" y1="249.957" x2="32.7437" y2="207.856" gradientUnits="userSpaceOnUse">
<stop stop-color="#DCF507"/>
<stop offset="0.05" stop-color="#D3F50F"/>
<stop offset="0.12" stop-color="#BDF627"/>
<stop offset="0.22" stop-color="#99F84D"/>
<stop offset="0.33" stop-color="#66FA82"/>
<stop offset="0.45" stop-color="#26FDC5"/>
<stop offset="0.5" stop-color="#0CFFE2"/>
<stop offset="0.62" stop-color="#1AFFC4"/>
<stop offset="1" stop-color="#49FF66"/>
</linearGradient>
<linearGradient id="paint7_linear_10498_1202" x1="27.0933" y1="249.957" x2="32.7408" y2="207.856" gradientUnits="userSpaceOnUse">
<stop stop-color="#DCF507"/>
<stop offset="0.05" stop-color="#D3F50F"/>
<stop offset="0.12" stop-color="#BDF627"/>
<stop offset="0.22" stop-color="#99F84D"/>
<stop offset="0.33" stop-color="#66FA82"/>
<stop offset="0.45" stop-color="#26FDC5"/>
<stop offset="0.5" stop-color="#0CFFE2"/>
<stop offset="0.62" stop-color="#1AFFC4"/>
<stop offset="1" stop-color="#49FF66"/>
</linearGradient>
<linearGradient id="paint8_linear_10498_1202" x1="27.0953" y1="249.957" x2="32.7429" y2="207.856" gradientUnits="userSpaceOnUse">
<stop stop-color="#DCF507"/>
<stop offset="0.05" stop-color="#D3F50F"/>
<stop offset="0.12" stop-color="#BDF627"/>
<stop offset="0.22" stop-color="#99F84D"/>
<stop offset="0.33" stop-color="#66FA82"/>
<stop offset="0.45" stop-color="#26FDC5"/>
<stop offset="0.5" stop-color="#0CFFE2"/>
<stop offset="0.62" stop-color="#1AFFC4"/>
<stop offset="1" stop-color="#49FF66"/>
</linearGradient>
<linearGradient id="paint9_linear_10498_1202" x1="27.094" y1="249.957" x2="32.7416" y2="207.856" gradientUnits="userSpaceOnUse">
<stop stop-color="#DCF507"/>
<stop offset="0.05" stop-color="#D3F50F"/>
<stop offset="0.12" stop-color="#BDF627"/>
<stop offset="0.22" stop-color="#99F84D"/>
<stop offset="0.33" stop-color="#66FA82"/>
<stop offset="0.45" stop-color="#26FDC5"/>
<stop offset="0.5" stop-color="#0CFFE2"/>
<stop offset="0.62" stop-color="#1AFFC4"/>
<stop offset="1" stop-color="#49FF66"/>
</linearGradient>
<linearGradient id="paint10_linear_10498_1202" x1="27.0951" y1="249.957" x2="32.7427" y2="207.856" gradientUnits="userSpaceOnUse">
<stop stop-color="#DCF507"/>
<stop offset="0.05" stop-color="#D3F50F"/>
<stop offset="0.12" stop-color="#BDF627"/>
<stop offset="0.22" stop-color="#99F84D"/>
<stop offset="0.33" stop-color="#66FA82"/>
<stop offset="0.45" stop-color="#26FDC5"/>
<stop offset="0.5" stop-color="#0CFFE2"/>
<stop offset="0.62" stop-color="#1AFFC4"/>
<stop offset="1" stop-color="#49FF66"/>
</linearGradient>
<linearGradient id="paint11_linear_10498_1202" x1="27.094" y1="249.957" x2="32.7416" y2="207.856" gradientUnits="userSpaceOnUse">
<stop stop-color="#DCF507"/>
<stop offset="0.05" stop-color="#D3F50F"/>
<stop offset="0.12" stop-color="#BDF627"/>
<stop offset="0.22" stop-color="#99F84D"/>
<stop offset="0.33" stop-color="#66FA82"/>
<stop offset="0.45" stop-color="#26FDC5"/>
<stop offset="0.5" stop-color="#0CFFE2"/>
<stop offset="0.62" stop-color="#1AFFC4"/>
<stop offset="1" stop-color="#49FF66"/>
</linearGradient>
<linearGradient id="paint12_linear_10498_1202" x1="27.0938" y1="249.957" x2="32.7414" y2="207.856" gradientUnits="userSpaceOnUse">
<stop stop-color="#DCF507"/>
<stop offset="0.05" stop-color="#D3F50F"/>
<stop offset="0.12" stop-color="#BDF627"/>
<stop offset="0.22" stop-color="#99F84D"/>
<stop offset="0.33" stop-color="#66FA82"/>
<stop offset="0.45" stop-color="#26FDC5"/>
<stop offset="0.5" stop-color="#0CFFE2"/>
<stop offset="0.62" stop-color="#1AFFC4"/>
<stop offset="1" stop-color="#49FF66"/>
</linearGradient>
<linearGradient id="paint13_linear_10498_1202" x1="27.0945" y1="249.957" x2="32.7421" y2="207.856" gradientUnits="userSpaceOnUse">
<stop stop-color="#DCF507"/>
<stop offset="0.05" stop-color="#D3F50F"/>
<stop offset="0.12" stop-color="#BDF627"/>
<stop offset="0.22" stop-color="#99F84D"/>
<stop offset="0.33" stop-color="#66FA82"/>
<stop offset="0.45" stop-color="#26FDC5"/>
<stop offset="0.5" stop-color="#0CFFE2"/>
<stop offset="0.62" stop-color="#1AFFC4"/>
<stop offset="1" stop-color="#49FF66"/>
</linearGradient>
<linearGradient id="paint14_linear_10498_1202" x1="27.0959" y1="249.957" x2="32.7435" y2="207.856" gradientUnits="userSpaceOnUse">
<stop stop-color="#DCF507"/>
<stop offset="0.05" stop-color="#D3F50F"/>
<stop offset="0.12" stop-color="#BDF627"/>
<stop offset="0.22" stop-color="#99F84D"/>
<stop offset="0.33" stop-color="#66FA82"/>
<stop offset="0.45" stop-color="#26FDC5"/>
<stop offset="0.5" stop-color="#0CFFE2"/>
<stop offset="0.62" stop-color="#1AFFC4"/>
<stop offset="1" stop-color="#49FF66"/>
</linearGradient>
<linearGradient id="paint15_linear_10498_1202" x1="27.094" y1="249.957" x2="32.7416" y2="207.856" gradientUnits="userSpaceOnUse">
<stop stop-color="#DCF507"/>
<stop offset="0.05" stop-color="#D3F50F"/>
<stop offset="0.12" stop-color="#BDF627"/>
<stop offset="0.22" stop-color="#99F84D"/>
<stop offset="0.33" stop-color="#66FA82"/>
<stop offset="0.45" stop-color="#26FDC5"/>
<stop offset="0.5" stop-color="#0CFFE2"/>
<stop offset="0.62" stop-color="#1AFFC4"/>
<stop offset="1" stop-color="#49FF66"/>
</linearGradient>
<linearGradient id="paint16_linear_10498_1202" x1="27.0939" y1="249.957" x2="32.7414" y2="207.856" gradientUnits="userSpaceOnUse">
<stop stop-color="#DCF507"/>
<stop offset="0.05" stop-color="#D3F50F"/>
<stop offset="0.12" stop-color="#BDF627"/>
<stop offset="0.22" stop-color="#99F84D"/>
<stop offset="0.33" stop-color="#66FA82"/>
<stop offset="0.45" stop-color="#26FDC5"/>
<stop offset="0.5" stop-color="#0CFFE2"/>
<stop offset="0.62" stop-color="#1AFFC4"/>
<stop offset="1" stop-color="#49FF66"/>
</linearGradient>
<linearGradient id="paint17_linear_10498_1202" x1="27.0945" y1="249.957" x2="32.7421" y2="207.856" gradientUnits="userSpaceOnUse">
<stop stop-color="#DCF507"/>
<stop offset="0.05" stop-color="#D3F50F"/>
<stop offset="0.12" stop-color="#BDF627"/>
<stop offset="0.22" stop-color="#99F84D"/>
<stop offset="0.33" stop-color="#66FA82"/>
<stop offset="0.45" stop-color="#26FDC5"/>
<stop offset="0.5" stop-color="#0CFFE2"/>
<stop offset="0.62" stop-color="#1AFFC4"/>
<stop offset="1" stop-color="#49FF66"/>
</linearGradient>
<linearGradient id="paint18_linear_10498_1202" x1="318.893" y1="72.7759" x2="311.719" y2="120.488" gradientUnits="userSpaceOnUse">
<stop stop-color="#38FFA9"/>
<stop offset="1" stop-color="#02653A"/>
</linearGradient>
<linearGradient id="paint19_linear_10498_1202" x1="253.002" y1="61.1831" x2="244.343" y2="99.3319" gradientUnits="userSpaceOnUse">
<stop stop-color="#38FFA9"/>
<stop offset="1" stop-color="#02653A"/>
</linearGradient>
<linearGradient id="paint20_linear_10498_1202" x1="341.412" y1="111.758" x2="341.418" y2="121.258" gradientUnits="userSpaceOnUse">
<stop stop-color="#38FFA9"/>
<stop offset="1" stop-color="#02653A"/>
</linearGradient>
<linearGradient id="paint21_linear_10498_1202" x1="335.393" y1="91.8404" x2="327.376" y2="142.658" gradientUnits="userSpaceOnUse">
<stop stop-color="#38FFA9"/>
<stop offset="1" stop-color="#02653A"/>
</linearGradient>
<linearGradient id="paint22_linear_10498_1202" x1="296.866" y1="78.1811" x2="296.889" y2="121.358" gradientUnits="userSpaceOnUse">
<stop stop-color="#38FFA9"/>
<stop offset="1" stop-color="#02653A"/>
</linearGradient>
<linearGradient id="paint23_linear_10498_1202" x1="319.065" y1="124.671" x2="319.07" y2="134.171" gradientUnits="userSpaceOnUse">
<stop stop-color="#38FFA9"/>
<stop offset="1" stop-color="#02653A"/>
</linearGradient>
<linearGradient id="paint24_linear_10498_1202" x1="319.135" y1="98.9136" x2="310.476" y2="137.062" gradientUnits="userSpaceOnUse">
<stop stop-color="#38FFA9"/>
<stop offset="1" stop-color="#02653A"/>
</linearGradient>
<linearGradient id="paint25_linear_10498_1202" x1="248" y1="121" x2="236.771" y2="156.393" gradientUnits="userSpaceOnUse">
<stop stop-color="#38FFA9"/>
<stop offset="1" stop-color="#02653A"/>
</linearGradient>
</defs>
</svg>
