<svg width="398" height="398" viewBox="0 0 398 398" fill="none" xmlns="http://www.w3.org/2000/svg">
<rect x="0.448703" y="0.448703" width="397.103" height="397.103" rx="35.4475" fill="url(#paint0_linear_10416_76423)"/>
<rect x="0.448703" y="0.448703" width="397.103" height="397.103" rx="35.4475" fill="black"/>
<rect x="0.448703" y="0.448703" width="397.103" height="397.103" rx="35.4475" stroke="#315C4A" stroke-width="0.897406"/>
<mask id="mask0_10416_76423" style="mask-type:alpha" maskUnits="userSpaceOnUse" x="0" y="0" width="398" height="398">
<path d="M35.8962 0.5632H362.104C381.618 0.5632 397.437 16.3823 397.437 35.8962V362.104C397.437 381.618 381.618 397.437 362.104 397.437H35.8962C16.3823 397.437 0.5632 381.618 0.5632 362.104V35.8962C0.5632 16.3823 16.3823 0.5632 35.8962 0.5632Z" fill="url(#paint1_linear_10416_76423)"/>
<path d="M35.8962 0.5632H362.104C381.618 0.5632 397.437 16.3823 397.437 35.8962V362.104C397.437 381.618 381.618 397.437 362.104 397.437H35.8962C16.3823 397.437 0.5632 381.618 0.5632 362.104V35.8962C0.5632 16.3823 16.3823 0.5632 35.8962 0.5632Z" fill="black"/>
<path d="M35.8962 0.5632H362.104C381.618 0.5632 397.437 16.3823 397.437 35.8962V362.104C397.437 381.618 381.618 397.437 362.104 397.437H35.8962C16.3823 397.437 0.5632 381.618 0.5632 362.104V35.8962C0.5632 16.3823 16.3823 0.5632 35.8962 0.5632Z" stroke="#2DFFA0" stroke-width="1.1264"/>
</mask>
<g mask="url(#mask0_10416_76423)">
<g filter="url(#filter0_f_10416_76423)">
<ellipse cx="350.941" cy="30.0294" rx="214.687" ry="128.633" fill="url(#paint2_linear_10416_76423)" fill-opacity="0.25"/>
</g>
</g>
<path d="M41.8516 283.68V266.18H54.0516V268.68H44.4766V273.68H52.1516V276.18H44.4766V283.68H41.8516ZM56.9484 283.68L55.0484 281.805V272.98L56.9484 271.105H63.9984L65.8734 272.98V281.805L63.9984 283.68H56.9484ZM57.5734 281.28H63.3484V273.505H57.5734V281.28ZM70.84 283.68L68.94 281.805V272.98L70.84 271.105H77.64L79.515 272.98V275.905H76.99V273.505H71.465V281.28H76.99V278.88H79.515V281.805L77.64 283.68H70.84ZM85.1172 271.105V281.255H90.6422V271.105H93.1672V283.68H90.6422V282.28L89.2422 283.68H84.4672L82.5922 281.805V271.105H85.1172ZM98.1547 283.68L96.3797 281.905V279.63H98.9047V281.38H104.38V278.505H98.0547L96.4547 276.88V272.88L98.2297 271.105H105.055L106.855 272.88V275.03H104.33V273.405H98.9797V276.155H105.305L106.905 277.755V281.905L105.13 283.68H98.1547ZM118.667 283.68L116.767 281.805V272.98L118.667 271.105H125.717L127.592 272.98V281.805L125.717 283.68H118.667ZM119.292 281.28H125.067V273.505H119.292V281.28ZM138.959 283.68V273.53H133.434V283.68H130.909V271.105H133.434V272.505L134.834 271.105H139.609L141.484 272.98V283.68H138.959ZM153.53 283.68L151.63 281.805V272.98L153.53 271.105H160.33L162.205 272.98V275.905H159.68V273.505H154.155V281.28H159.68V278.88H162.205V281.805L160.33 283.68H153.53ZM165.308 283.68V271.105H167.833V272.505L169.233 271.105H173.133V273.53H167.833V283.68H165.308ZM176.529 283.68L174.629 281.805V272.98L176.529 271.105H183.254L185.154 272.98V278.43H177.154V281.33H182.629V279.555H185.154V281.805L183.254 283.68H176.529ZM177.154 276.155H182.629V273.455H177.154V276.155ZM196.128 283.68V282.28L194.728 283.68H189.878L188.053 281.855V277.88L189.878 276.055H196.128V273.405H190.828V275.155H188.303V272.905L190.128 271.105H196.853L198.653 272.905V283.68H196.128ZM190.578 281.38H196.128V278.38H190.578V281.38ZM205.449 283.68L203.574 281.805V273.455H200.799V271.105H203.574V267.555H206.099V271.105H210.649V273.455H206.099V281.28H210.649V283.68H205.449ZM213.478 283.68V271.105H216.003V283.68H213.478ZM213.478 269.33V266.355H216.003V269.33H213.478ZM227.655 283.68V273.53H222.13V283.68H219.605V271.105H222.13V272.505L223.53 271.105H228.305L230.18 272.98V283.68H227.655ZM235.418 288.18L233.643 286.405V284.405H236.143V285.83H241.718V281.855L240.318 283.255H235.318L233.418 281.355V272.98L235.318 271.105H240.318L241.718 272.505V271.105H244.243V286.405L242.468 288.18H235.418ZM235.943 280.83H241.718V273.53H235.943V280.83ZM262.738 283.68V273.53H257.213V283.68H254.688V271.105H257.213V272.505L258.613 271.105H263.388L265.263 272.98V283.68H262.738ZM270.425 283.68L268.525 281.805V272.98L270.425 271.105H277.15L279.05 272.98V278.43H271.05V281.33H276.525V279.555H279.05V281.805L277.15 283.68H270.425ZM271.05 276.155H276.525V273.455H271.05V276.155ZM284.975 283.68L280.85 271.105H283.525L286.125 280.03L289.175 271.105H291.225L294.275 280.03L296.875 271.105H299.475L295.35 283.68H293.25L290.175 275.03L287.075 283.68H284.975ZM42.7266 315.68V305.455H40.0266V303.105H42.7266V300.055L44.6016 298.18H49.8016V300.48H45.2516V303.105H49.8016V305.455H45.2516V315.68H42.7266ZM53.1154 315.68L51.2154 313.805V304.98L53.1154 303.105H60.1654L62.0404 304.98V313.805L60.1654 315.68H53.1154ZM53.7404 313.28H59.5154V305.505H53.7404V313.28ZM65.357 315.68V303.105H67.882V304.505L69.282 303.105H73.182V305.53H67.882V315.68H65.357ZM75.2203 315.68V303.105H77.7453V304.505L79.1453 303.105H83.6953L85.0953 304.505L86.4953 303.105H91.3203L93.1953 304.98V315.68H90.6703V305.53H85.4703V315.68H82.9453V305.53H77.7453V315.68H75.2203ZM98.1059 315.68L96.3309 313.905V311.63H98.8559V313.38H104.331V310.505H98.0059L96.4059 308.88V304.88L98.1809 303.105H105.006L106.806 304.88V307.03H104.281V305.405H98.9309V308.155H105.256L106.856 309.755V313.905L105.081 315.68H98.1059ZM118.618 315.68L116.718 313.805V304.98L118.618 303.105H125.668L127.543 304.98V313.805L125.668 315.68H118.618ZM119.243 313.28H125.018V305.505H119.243V313.28ZM132.326 315.68V305.455H129.626V303.105H132.326V300.055L134.201 298.18H139.401V300.48H134.851V303.105H139.401V305.455H134.851V315.68H132.326ZM149.294 315.68V305.455H146.594V303.105H149.294V300.055L151.169 298.18H156.369V300.48H151.819V303.105H156.369V305.455H151.819V315.68H149.294ZM160.752 303.105V313.255H166.277V303.105H168.802V315.68H166.277V314.28L164.877 315.68H160.102L158.227 313.805V303.105H160.752ZM180.414 315.68V305.53H174.889V315.68H172.364V303.105H174.889V304.505L176.289 303.105H181.064L182.939 304.98V315.68H180.414ZM201.011 315.68V314.28L199.611 315.68H194.761L192.936 313.855V309.88L194.761 308.055H201.011V305.405H195.711V307.155H193.186V304.905L195.011 303.105H201.736L203.536 304.905V315.68H201.011ZM195.461 313.38H201.011V310.38H195.461V313.38ZM215.082 315.68V305.53H209.557V315.68H207.032V303.105H209.557V304.505L210.957 303.105H215.732L217.607 304.98V315.68H215.082ZM231.694 315.68H229.169V314.28L227.769 315.68H222.769L220.869 313.805V304.98L222.769 303.105H227.769L229.169 304.505V298.18H231.694V315.68ZM223.394 313.255H229.169V305.53H223.394V313.255ZM245.514 315.68L240.489 303.105H243.164L246.614 312.18L250.039 303.105H252.664L247.639 315.68H245.514ZM262.119 315.68V314.28L260.719 315.68H255.869L254.044 313.855V309.88L255.869 308.055H262.119V305.405H256.819V307.155H254.294V304.905L256.119 303.105H262.844L264.644 304.905V315.68H262.119ZM256.569 313.38H262.119V310.38H256.569V313.38ZM268.19 315.68V298.18H270.715V315.68H268.19ZM276.792 303.105V313.255H282.317V303.105H284.842V315.68H282.317V314.28L280.917 315.68H276.142L274.267 313.805V303.105H276.792ZM290.054 315.68L288.154 313.805V304.98L290.054 303.105H296.779L298.679 304.98V310.43H290.679V313.33H296.154V311.555H298.679V313.805L296.779 315.68H290.054ZM290.679 308.155H296.154V305.455H290.679V308.155ZM310.513 315.68L308.613 313.805V304.98L310.513 303.105H317.563L319.438 304.98V313.805L317.563 315.68H310.513ZM311.138 313.28H316.913V305.505H311.138V313.28ZM324.221 315.68V305.455H321.521V303.105H324.221V300.055L326.096 298.18H331.296V300.48H326.746V303.105H331.296V305.455H326.746V315.68H324.221ZM45.3266 347.68L40.5516 330.18H43.3516L46.6766 343.255L50.7766 330.18H53.0266L57.1266 343.255L60.4516 330.18H63.1766L58.4016 347.68H55.9266L51.8516 334.98L47.8016 347.68H45.3266ZM66.3967 347.68L64.4967 345.805V336.98L66.3967 335.105H73.1217L75.0217 336.98V342.43H67.0217V345.33H72.4967V343.555H75.0217V345.805L73.1217 347.68H66.3967ZM67.0217 340.155H72.4967V337.455H67.0217V340.155ZM78.2965 347.68V330.18H80.8215V336.505L82.2215 335.105H87.2215L89.1215 336.98V345.805L87.2215 347.68H82.2215L80.8215 346.28V347.68H78.2965ZM80.8215 345.255H86.5965V337.53H80.8215V345.255ZM94.5775 347.68L92.5025 345.605V341.83H95.1275V345.18H103.128V340.055H96.5025V337.555H103.128V332.68H95.1525V335.955H92.5275V332.255L94.6025 330.18H103.678L105.753 332.255V337.405L104.153 338.805L105.753 340.205V345.605L103.678 347.68H94.5775ZM118.386 347.68L116.286 345.605V332.255L118.386 330.18H127.736L129.811 332.255V335.68H127.186V332.705H118.911V345.155H127.186V340.68H122.736V338.155H129.811V345.605L127.736 347.68H118.386ZM141.001 347.68V346.28L139.601 347.68H134.751L132.926 345.855V341.88L134.751 340.055H141.001V337.405H135.701V339.155H133.176V336.905L135.001 335.105H141.726L143.526 336.905V347.68H141.001ZM135.451 345.38H141.001V342.38H135.451V345.38ZM147.022 347.68V335.105H149.547V336.505L150.947 335.105H155.497L156.897 336.505L158.297 335.105H163.122L164.997 336.98V347.68H162.472V337.53H157.272V347.68H154.747V337.53H149.547V347.68H147.022ZM170.156 347.68L168.256 345.805V336.98L170.156 335.105H176.881L178.781 336.98V342.43H170.781V345.33H176.256V343.555H178.781V345.805L176.881 347.68H170.156ZM170.781 340.155H176.256V337.455H170.781V340.155ZM183.531 347.68L181.756 345.905V343.63H184.281V345.38H189.756V342.505H183.431L181.831 340.88V336.88L183.606 335.105H190.431L192.231 336.88V339.03H189.706V337.405H184.356V340.155H190.681L192.281 341.755V345.905L190.506 347.68H183.531Z" fill="url(#paint3_linear_10416_76423)"/>
<path d="M41.8516 283.68V266.18H54.0516V268.68H44.4766V273.68H52.1516V276.18H44.4766V283.68H41.8516ZM56.9484 283.68L55.0484 281.805V272.98L56.9484 271.105H63.9984L65.8734 272.98V281.805L63.9984 283.68H56.9484ZM57.5734 281.28H63.3484V273.505H57.5734V281.28ZM70.84 283.68L68.94 281.805V272.98L70.84 271.105H77.64L79.515 272.98V275.905H76.99V273.505H71.465V281.28H76.99V278.88H79.515V281.805L77.64 283.68H70.84ZM85.1172 271.105V281.255H90.6422V271.105H93.1672V283.68H90.6422V282.28L89.2422 283.68H84.4672L82.5922 281.805V271.105H85.1172ZM98.1547 283.68L96.3797 281.905V279.63H98.9047V281.38H104.38V278.505H98.0547L96.4547 276.88V272.88L98.2297 271.105H105.055L106.855 272.88V275.03H104.33V273.405H98.9797V276.155H105.305L106.905 277.755V281.905L105.13 283.68H98.1547ZM118.667 283.68L116.767 281.805V272.98L118.667 271.105H125.717L127.592 272.98V281.805L125.717 283.68H118.667ZM119.292 281.28H125.067V273.505H119.292V281.28ZM138.959 283.68V273.53H133.434V283.68H130.909V271.105H133.434V272.505L134.834 271.105H139.609L141.484 272.98V283.68H138.959ZM153.53 283.68L151.63 281.805V272.98L153.53 271.105H160.33L162.205 272.98V275.905H159.68V273.505H154.155V281.28H159.68V278.88H162.205V281.805L160.33 283.68H153.53ZM165.308 283.68V271.105H167.833V272.505L169.233 271.105H173.133V273.53H167.833V283.68H165.308ZM176.529 283.68L174.629 281.805V272.98L176.529 271.105H183.254L185.154 272.98V278.43H177.154V281.33H182.629V279.555H185.154V281.805L183.254 283.68H176.529ZM177.154 276.155H182.629V273.455H177.154V276.155ZM196.128 283.68V282.28L194.728 283.68H189.878L188.053 281.855V277.88L189.878 276.055H196.128V273.405H190.828V275.155H188.303V272.905L190.128 271.105H196.853L198.653 272.905V283.68H196.128ZM190.578 281.38H196.128V278.38H190.578V281.38ZM205.449 283.68L203.574 281.805V273.455H200.799V271.105H203.574V267.555H206.099V271.105H210.649V273.455H206.099V281.28H210.649V283.68H205.449ZM213.478 283.68V271.105H216.003V283.68H213.478ZM213.478 269.33V266.355H216.003V269.33H213.478ZM227.655 283.68V273.53H222.13V283.68H219.605V271.105H222.13V272.505L223.53 271.105H228.305L230.18 272.98V283.68H227.655ZM235.418 288.18L233.643 286.405V284.405H236.143V285.83H241.718V281.855L240.318 283.255H235.318L233.418 281.355V272.98L235.318 271.105H240.318L241.718 272.505V271.105H244.243V286.405L242.468 288.18H235.418ZM235.943 280.83H241.718V273.53H235.943V280.83ZM262.738 283.68V273.53H257.213V283.68H254.688V271.105H257.213V272.505L258.613 271.105H263.388L265.263 272.98V283.68H262.738ZM270.425 283.68L268.525 281.805V272.98L270.425 271.105H277.15L279.05 272.98V278.43H271.05V281.33H276.525V279.555H279.05V281.805L277.15 283.68H270.425ZM271.05 276.155H276.525V273.455H271.05V276.155ZM284.975 283.68L280.85 271.105H283.525L286.125 280.03L289.175 271.105H291.225L294.275 280.03L296.875 271.105H299.475L295.35 283.68H293.25L290.175 275.03L287.075 283.68H284.975ZM42.7266 315.68V305.455H40.0266V303.105H42.7266V300.055L44.6016 298.18H49.8016V300.48H45.2516V303.105H49.8016V305.455H45.2516V315.68H42.7266ZM53.1154 315.68L51.2154 313.805V304.98L53.1154 303.105H60.1654L62.0404 304.98V313.805L60.1654 315.68H53.1154ZM53.7404 313.28H59.5154V305.505H53.7404V313.28ZM65.357 315.68V303.105H67.882V304.505L69.282 303.105H73.182V305.53H67.882V315.68H65.357ZM75.2203 315.68V303.105H77.7453V304.505L79.1453 303.105H83.6953L85.0953 304.505L86.4953 303.105H91.3203L93.1953 304.98V315.68H90.6703V305.53H85.4703V315.68H82.9453V305.53H77.7453V315.68H75.2203ZM98.1059 315.68L96.3309 313.905V311.63H98.8559V313.38H104.331V310.505H98.0059L96.4059 308.88V304.88L98.1809 303.105H105.006L106.806 304.88V307.03H104.281V305.405H98.9309V308.155H105.256L106.856 309.755V313.905L105.081 315.68H98.1059ZM118.618 315.68L116.718 313.805V304.98L118.618 303.105H125.668L127.543 304.98V313.805L125.668 315.68H118.618ZM119.243 313.28H125.018V305.505H119.243V313.28ZM132.326 315.68V305.455H129.626V303.105H132.326V300.055L134.201 298.18H139.401V300.48H134.851V303.105H139.401V305.455H134.851V315.68H132.326ZM149.294 315.68V305.455H146.594V303.105H149.294V300.055L151.169 298.18H156.369V300.48H151.819V303.105H156.369V305.455H151.819V315.68H149.294ZM160.752 303.105V313.255H166.277V303.105H168.802V315.68H166.277V314.28L164.877 315.68H160.102L158.227 313.805V303.105H160.752ZM180.414 315.68V305.53H174.889V315.68H172.364V303.105H174.889V304.505L176.289 303.105H181.064L182.939 304.98V315.68H180.414ZM201.011 315.68V314.28L199.611 315.68H194.761L192.936 313.855V309.88L194.761 308.055H201.011V305.405H195.711V307.155H193.186V304.905L195.011 303.105H201.736L203.536 304.905V315.68H201.011ZM195.461 313.38H201.011V310.38H195.461V313.38ZM215.082 315.68V305.53H209.557V315.68H207.032V303.105H209.557V304.505L210.957 303.105H215.732L217.607 304.98V315.68H215.082ZM231.694 315.68H229.169V314.28L227.769 315.68H222.769L220.869 313.805V304.98L222.769 303.105H227.769L229.169 304.505V298.18H231.694V315.68ZM223.394 313.255H229.169V305.53H223.394V313.255ZM245.514 315.68L240.489 303.105H243.164L246.614 312.18L250.039 303.105H252.664L247.639 315.68H245.514ZM262.119 315.68V314.28L260.719 315.68H255.869L254.044 313.855V309.88L255.869 308.055H262.119V305.405H256.819V307.155H254.294V304.905L256.119 303.105H262.844L264.644 304.905V315.68H262.119ZM256.569 313.38H262.119V310.38H256.569V313.38ZM268.19 315.68V298.18H270.715V315.68H268.19ZM276.792 303.105V313.255H282.317V303.105H284.842V315.68H282.317V314.28L280.917 315.68H276.142L274.267 313.805V303.105H276.792ZM290.054 315.68L288.154 313.805V304.98L290.054 303.105H296.779L298.679 304.98V310.43H290.679V313.33H296.154V311.555H298.679V313.805L296.779 315.68H290.054ZM290.679 308.155H296.154V305.455H290.679V308.155ZM310.513 315.68L308.613 313.805V304.98L310.513 303.105H317.563L319.438 304.98V313.805L317.563 315.68H310.513ZM311.138 313.28H316.913V305.505H311.138V313.28ZM324.221 315.68V305.455H321.521V303.105H324.221V300.055L326.096 298.18H331.296V300.48H326.746V303.105H331.296V305.455H326.746V315.68H324.221ZM45.3266 347.68L40.5516 330.18H43.3516L46.6766 343.255L50.7766 330.18H53.0266L57.1266 343.255L60.4516 330.18H63.1766L58.4016 347.68H55.9266L51.8516 334.98L47.8016 347.68H45.3266ZM66.3967 347.68L64.4967 345.805V336.98L66.3967 335.105H73.1217L75.0217 336.98V342.43H67.0217V345.33H72.4967V343.555H75.0217V345.805L73.1217 347.68H66.3967ZM67.0217 340.155H72.4967V337.455H67.0217V340.155ZM78.2965 347.68V330.18H80.8215V336.505L82.2215 335.105H87.2215L89.1215 336.98V345.805L87.2215 347.68H82.2215L80.8215 346.28V347.68H78.2965ZM80.8215 345.255H86.5965V337.53H80.8215V345.255ZM94.5775 347.68L92.5025 345.605V341.83H95.1275V345.18H103.128V340.055H96.5025V337.555H103.128V332.68H95.1525V335.955H92.5275V332.255L94.6025 330.18H103.678L105.753 332.255V337.405L104.153 338.805L105.753 340.205V345.605L103.678 347.68H94.5775ZM118.386 347.68L116.286 345.605V332.255L118.386 330.18H127.736L129.811 332.255V335.68H127.186V332.705H118.911V345.155H127.186V340.68H122.736V338.155H129.811V345.605L127.736 347.68H118.386ZM141.001 347.68V346.28L139.601 347.68H134.751L132.926 345.855V341.88L134.751 340.055H141.001V337.405H135.701V339.155H133.176V336.905L135.001 335.105H141.726L143.526 336.905V347.68H141.001ZM135.451 345.38H141.001V342.38H135.451V345.38ZM147.022 347.68V335.105H149.547V336.505L150.947 335.105H155.497L156.897 336.505L158.297 335.105H163.122L164.997 336.98V347.68H162.472V337.53H157.272V347.68H154.747V337.53H149.547V347.68H147.022ZM170.156 347.68L168.256 345.805V336.98L170.156 335.105H176.881L178.781 336.98V342.43H170.781V345.33H176.256V343.555H178.781V345.805L176.881 347.68H170.156ZM170.781 340.155H176.256V337.455H170.781V340.155ZM183.531 347.68L181.756 345.905V343.63H184.281V345.38H189.756V342.505H183.431L181.831 340.88V336.88L183.606 335.105H190.431L192.231 336.88V339.03H189.706V337.405H184.356V340.155H190.681L192.281 341.755V345.905L190.506 347.68H183.531Z" fill="white"/>
<path d="M42.2036 247.213L40.8916 245.901V244.029H42.5396V245.645H47.4036V242.797H42.1876L40.9396 241.533V238.061L42.2516 236.749H44.1876V234.909H45.7556V236.749H47.6916L49.0036 238.061V239.757H47.3556V238.317H42.5876V241.165H47.8036L49.0516 242.429V245.901L47.7396 247.213H45.7556V249.053H44.1876V247.213H42.2036ZM51.3347 247.581V236.381H52.8067L58.5507 244.445V236.381H60.1347V247.581H58.6467L52.9187 239.501V247.581H51.3347ZM62.6941 247.581V236.381H70.5341V237.981H64.3741V241.181H69.1101V242.781H64.3741V245.981H70.5661V247.581H62.6941ZM74.7618 247.581L71.7058 236.381H73.4978L75.6258 244.749L78.2498 236.381H79.6898L82.3138 244.749L84.4418 236.381H86.1858L83.1298 247.581H81.5458L78.9378 239.453L76.3458 247.581H74.7618ZM94.5431 247.581L91.4871 236.381H93.2791L95.4071 244.749L98.0311 236.381H99.4711L102.095 244.749L104.223 236.381H105.967L102.911 247.581H101.327L98.7191 239.453L96.1271 247.581H94.5431ZM108.028 247.581L106.812 246.381V240.733L108.028 239.533H112.332L113.548 240.733V244.221H108.428V246.077H111.932V244.941H113.548V246.381L112.332 247.581H108.028ZM108.428 242.765H111.932V241.037H108.428V242.765ZM115.644 247.581V236.381H117.26V240.429L118.156 239.533H121.356L122.572 240.733V246.381L121.356 247.581H118.156L117.26 246.685V247.581H115.644ZM117.26 246.029H120.956V241.085H117.26V246.029ZM126.064 247.581L124.736 246.253V243.837H126.416V245.981H131.536V242.701H127.296V241.101H131.536V237.981H126.432V240.077H124.752V237.709L126.08 236.381H131.888L133.216 237.709V241.005L132.192 241.901L133.216 242.797V246.253L131.888 247.581H126.064ZM141.301 247.581L139.957 246.253V237.709L141.301 236.381H147.285L148.613 237.709V239.901H146.933V237.997H141.637V245.965H146.933V243.101H144.085V241.485H148.613V246.253L147.285 247.581H141.301ZM155.775 247.581V246.685L154.879 247.581H151.775L150.607 246.413V243.869L151.775 242.701H155.775V241.005H152.383V242.125H150.767V240.685L151.935 239.533H156.239L157.391 240.685V247.581H155.775ZM152.223 246.109H155.775V244.189H152.223V246.109ZM159.628 247.581V239.533H161.244V240.429L162.14 239.533H165.052L165.948 240.429L166.844 239.533H169.932L171.132 240.733V247.581H169.516V241.085H166.188V247.581H164.572V241.085H161.244V247.581H159.628ZM174.434 247.581L173.218 246.381V240.733L174.434 239.533H178.738L179.954 240.733V244.221H174.834V246.077H178.338V244.941H179.954V246.381L178.738 247.581H174.434ZM174.834 242.765H178.338V241.037H174.834V242.765ZM186.616 247.581V236.381H193.544L194.872 237.709V241.773L193.544 243.101H188.296V247.581H186.616ZM188.296 241.485H193.192V237.997H188.296V241.485ZM196.863 247.581V236.381H198.479V247.581H196.863ZM205.681 247.581V246.685L204.785 247.581H201.681L200.513 246.413V243.869L201.681 242.701H205.681V241.005H202.289V242.125H200.673V240.685L201.841 239.533H206.145L207.297 240.685V247.581H205.681ZM202.129 246.109H205.681V244.189H202.129V246.109ZM211.646 247.581L210.446 246.381V241.037H208.67V239.533H210.446V237.261H212.062V239.533H214.974V241.037H212.062V246.045H214.974V247.581H211.646ZM217.535 247.581V241.037H215.807V239.533H217.535V237.581L218.735 236.381H222.063V237.853H219.151V239.533H222.063V241.037H219.151V247.581H217.535ZM224.184 247.581L222.968 246.381V240.733L224.184 239.533H228.696L229.896 240.733V246.381L228.696 247.581H224.184ZM224.584 246.045H228.28V241.069H224.584V246.045ZM232.019 247.581V239.533H233.635V240.429L234.531 239.533H237.027V241.085H233.635V247.581H232.019ZM238.331 247.581V239.533H239.947V240.429L240.843 239.533H243.755L244.651 240.429L245.547 239.533H248.635L249.835 240.733V247.581H248.219V241.085H244.891V247.581H243.275V241.085H239.947V247.581H238.331Z" fill="url(#paint4_linear_10416_76423)"/>
<rect x="0.448703" y="0.448703" width="397.103" height="397.103" rx="35.4475" fill="black" stroke="#315C4A" stroke-width="0.897406"/>
<mask id="mask1_10416_76423" style="mask-type:alpha" maskUnits="userSpaceOnUse" x="0" y="0" width="398" height="398">
<path d="M35.8962 0.5632H362.104C381.618 0.5632 397.437 16.3823 397.437 35.8962V362.104C397.437 381.618 381.618 397.437 362.104 397.437H35.8962C16.3823 397.437 0.5632 381.618 0.5632 362.104V35.8962C0.5632 16.3823 16.3823 0.5632 35.8962 0.5632Z" fill="black" stroke="#2DFFA0" stroke-width="1.1264"/>
</mask>
<g mask="url(#mask1_10416_76423)">
<g filter="url(#filter1_f_10416_76423)">
<ellipse cx="350.941" cy="30.0294" rx="214.687" ry="128.633" fill="url(#paint5_linear_10416_76423)" fill-opacity="0.25"/>
</g>
</g>
<path d="M183.529 347.679L181.754 345.904V343.629H184.279V345.379H189.754V342.504H183.429L181.829 340.879V336.879L183.604 335.104H190.429L192.229 336.879V339.029H189.704V337.404H184.354V340.154H190.679L192.279 341.754V345.904L190.504 347.679H183.529Z" fill="white"/>
<path d="M170.158 347.679L168.258 345.804V336.979L170.158 335.104H176.883L178.783 336.979V342.429H170.783V345.329H176.258V343.554H178.783V345.804L176.883 347.679H170.158ZM170.783 340.154H176.258V337.454H170.783V340.154Z" fill="white"/>
<path d="M147.023 347.679V335.104H149.548V336.504L150.948 335.104H155.498L156.898 336.504L158.298 335.104H163.123L164.998 336.979V347.679H162.473V337.529H157.273V347.679H154.748V337.529H149.548V347.679H147.023Z" fill="white"/>
<path d="M141.001 347.679V346.279L139.601 347.679H134.751L132.926 345.854V341.879L134.751 340.054H141.001V337.404H135.701V339.154H133.176V336.904L135.001 335.104H141.726L143.526 336.904V347.679H141.001ZM135.451 345.379H141.001V342.379H135.451V345.379Z" fill="white"/>
<path d="M118.385 347.68L116.285 345.605V332.255L118.385 330.18H127.735L129.81 332.255V335.68H127.185V332.705H118.91V345.155H127.185V340.68H122.735V338.155H129.81V345.605L127.735 347.68H118.385Z" fill="white"/>
<path d="M94.5789 347.68L92.5039 345.605V341.83H95.1289V345.18H103.129V340.055H96.5039V337.555H103.129V332.68H95.1539V335.955H92.5289V332.255L94.6039 330.18H103.679L105.754 332.255V337.405L104.154 338.805L105.754 340.205V345.605L103.679 347.68H94.5789Z" fill="white"/>
<path d="M78.2969 347.68V330.18H80.8219V336.505L82.2219 335.105H87.2219L89.1219 336.98V345.805L87.2219 347.68H82.2219L80.8219 346.28V347.68H78.2969ZM80.8219 345.255H86.5969V337.53H80.8219V345.255Z" fill="white"/>
<path d="M66.3961 347.679L64.4961 345.804V336.979L66.3961 335.104H73.1211L75.0211 336.979V342.429H67.0211V345.329H72.4961V343.554H75.0211V345.804L73.1211 347.679H66.3961ZM67.0211 340.154H72.4961V337.454H67.0211V340.154Z" fill="white"/>
<path d="M45.3258 347.68L40.5508 330.18H43.3508L46.6758 343.255L50.7758 330.18H53.0258L57.1258 343.255L60.4508 330.18H63.1758L58.4008 347.68H55.9258L51.8508 334.98L47.8008 347.68H45.3258Z" fill="white"/>
<path d="M324.22 315.68V305.455H321.52V303.105H324.22V300.055L326.095 298.18H331.295V300.48H326.745V303.105H331.295V305.455H326.745V315.68H324.22Z" fill="white"/>
<path d="M310.513 315.679L308.613 313.804V304.979L310.513 303.104H317.563L319.438 304.979V313.804L317.563 315.679H310.513ZM311.138 313.279H316.913V305.504H311.138V313.279Z" fill="white"/>
<path d="M290.052 315.679L288.152 313.804V304.979L290.052 303.104H296.777L298.677 304.979V310.429H290.677V313.329H296.152V311.554H298.677V313.804L296.777 315.679H290.052ZM290.677 308.154H296.152V305.454H290.677V308.154Z" fill="white"/>
<path d="M276.791 303.104V313.254H282.316V303.104H284.841V315.679H282.316V314.279L280.916 315.679H276.141L274.266 313.804V303.104H276.791Z" fill="white"/>
<path d="M268.191 315.68V298.18H270.716V315.68H268.191Z" fill="white"/>
<path d="M262.118 315.679V314.279L260.718 315.679H255.868L254.043 313.854V309.879L255.868 308.054H262.118V305.404H256.818V307.154H254.293V304.904L256.118 303.104H262.843L264.643 304.904V315.679H262.118ZM256.568 313.379H262.118V310.379H256.568V313.379Z" fill="white"/>
<path d="M245.513 315.679L240.488 303.104H243.163L246.613 312.179L250.038 303.104H252.663L247.638 315.679H245.513Z" fill="white"/>
<path d="M231.692 315.68H229.167V314.28L227.767 315.68H222.767L220.867 313.805V304.98L222.767 303.105H227.767L229.167 304.505V298.18H231.692V315.68ZM223.392 313.255H229.167V305.53H223.392V313.255Z" fill="white"/>
<path d="M215.081 315.679V305.529H209.556V315.679H207.031V303.104H209.556V304.504L210.956 303.104H215.731L217.606 304.979V315.679H215.081Z" fill="white"/>
<path d="M201.012 315.679V314.279L199.613 315.679H194.762L192.938 313.854V309.879L194.762 308.054H201.012V305.404H195.712V307.154H193.188V304.904L195.012 303.104H201.738L203.538 304.904V315.679H201.012ZM195.462 313.379H201.012V310.379H195.462V313.379Z" fill="white"/>
<path d="M180.413 315.679V305.529H174.888V315.679H172.363V303.104H174.888V304.504L176.288 303.104H181.063L182.938 304.979V315.679H180.413Z" fill="white"/>
<path d="M160.752 303.104V313.254H166.277V303.104H168.802V315.679H166.277V314.279L164.877 315.679H160.102L158.227 313.804V303.104H160.752Z" fill="white"/>
<path d="M149.294 315.68V305.455H146.594V303.105H149.294V300.055L151.169 298.18H156.369V300.48H151.819V303.105H156.369V305.455H151.819V315.68H149.294Z" fill="white"/>
<path d="M132.325 315.68V305.455H129.625V303.105H132.325V300.055L134.2 298.18H139.4V300.48H134.85V303.105H139.4V305.455H134.85V315.68H132.325Z" fill="white"/>
<path d="M118.619 315.679L116.719 313.804V304.979L118.619 303.104H125.669L127.544 304.979V313.804L125.669 315.679H118.619ZM119.244 313.279H125.019V305.504H119.244V313.279Z" fill="white"/>
<path d="M98.107 315.679L96.332 313.904V311.629H98.857V313.379H104.332V310.504H98.007L96.407 308.879V304.879L98.182 303.104H105.007L106.807 304.879V307.029H104.282V305.404H98.932V308.154H105.257L106.857 309.754V313.904L105.082 315.679H98.107Z" fill="white"/>
<path d="M75.2188 315.679V303.104H77.7437V304.504L79.1437 303.104H83.6937L85.0938 304.504L86.4937 303.104H91.3187L93.1937 304.979V315.679H90.6687V305.529H85.4688V315.679H82.9437V305.529H77.7437V315.679H75.2188Z" fill="white"/>
<path d="M65.3555 315.679V303.104H67.8805V304.504L69.2805 303.104H73.1805V305.529H67.8805V315.679H65.3555Z" fill="white"/>
<path d="M53.1148 315.679L51.2148 313.804V304.979L53.1148 303.104H60.1648L62.0398 304.979V313.804L60.1648 315.679H53.1148ZM53.7398 313.279H59.5148V305.504H53.7398V313.279Z" fill="white"/>
<path d="M42.7273 315.68V305.455H40.0273V303.105H42.7273V300.055L44.6023 298.18H49.8023V300.48H45.2523V303.105H49.8023V305.455H45.2523V315.68H42.7273Z" fill="white"/>
<path d="M284.977 283.679L280.852 271.104H283.527L286.127 280.029L289.177 271.104H291.227L294.277 280.029L296.877 271.104H299.477L295.352 283.679H293.252L290.177 275.029L287.077 283.679H284.977Z" fill="white"/>
<path d="M270.423 283.679L268.523 281.804V272.979L270.423 271.104H277.148L279.048 272.979V278.429H271.048V281.329H276.523V279.554H279.048V281.804L277.148 283.679H270.423ZM271.048 276.154H276.523V273.454H271.048V276.154Z" fill="white"/>
<path d="M262.738 283.679V273.529H257.213V283.679H254.688V271.104H257.213V272.504L258.613 271.104H263.388L265.263 272.979V283.679H262.738Z" fill="white"/>
<path d="M235.418 288.179L233.643 286.404V284.404H236.143V285.829H241.718V281.854L240.318 283.254H235.318L233.418 281.354V272.979L235.318 271.104H240.318L241.718 272.504V271.104H244.243V286.404L242.468 288.179H235.418ZM235.943 280.829H241.718V273.529H235.943V280.829Z" fill="white"/>
<path d="M227.655 283.679V273.529H222.13V283.679H219.605V271.104H222.13V272.504L223.53 271.104H228.305L230.18 272.979V283.679H227.655Z" fill="white"/>
<path d="M213.477 283.679V271.104H216.002V283.679H213.477ZM213.477 269.329V266.354H216.002V269.329H213.477Z" fill="white"/>
<path d="M205.451 283.68L203.576 281.805V273.455H200.801V271.105H203.576V267.555H206.101V271.105H210.651V273.455H206.101V281.28H210.651V283.68H205.451Z" fill="white"/>
<path d="M196.13 283.679V282.279L194.73 283.679H189.88L188.055 281.854V277.879L189.88 276.054H196.13V273.404H190.83V275.154H188.305V272.904L190.13 271.104H196.855L198.655 272.904V283.679H196.13ZM190.58 281.379H196.13V278.379H190.58V281.379Z" fill="white"/>
<path d="M176.529 283.679L174.629 281.804V272.979L176.529 271.104H183.254L185.154 272.979V278.429H177.154V281.329H182.629V279.554H185.154V281.804L183.254 283.679H176.529ZM177.154 276.154H182.629V273.454H177.154V276.154Z" fill="white"/>
<path d="M165.309 283.679V271.104H167.834V272.504L169.234 271.104H173.134V273.529H167.834V283.679H165.309Z" fill="white"/>
<path d="M153.529 283.679L151.629 281.804V272.979L153.529 271.104H160.329L162.204 272.979V275.904H159.679V273.504H154.154V281.279H159.679V278.879H162.204V281.804L160.329 283.679H153.529Z" fill="white"/>
<path d="M138.96 283.679V273.529H133.435V283.679H130.91V271.104H133.435V272.504L134.835 271.104H139.61L141.485 272.979V283.679H138.96Z" fill="white"/>
<path d="M118.666 283.679L116.766 281.804V272.979L118.666 271.104H125.716L127.591 272.979V281.804L125.716 283.679H118.666ZM119.291 281.279H125.066V273.504H119.291V281.279Z" fill="white"/>
<path d="M98.1539 283.679L96.3789 281.904V279.629H98.9039V281.379H104.379V278.504H98.0539L96.4539 276.879V272.879L98.2289 271.104H105.054L106.854 272.879V275.029H104.329V273.404H98.9789V276.154H105.304L106.904 277.754V281.904L105.129 283.679H98.1539Z" fill="white"/>
<path d="M85.1188 271.104V281.254H90.6438V271.104H93.1688V283.679H90.6438V282.279L89.2438 283.679H84.4688L82.5938 281.804V271.104H85.1188Z" fill="white"/>
<path d="M70.8414 283.679L68.9414 281.804V272.979L70.8414 271.104H77.6414L79.5164 272.979V275.904H76.9914V273.504H71.4664V281.279H76.9914V278.879H79.5164V281.804L77.6414 283.679H70.8414Z" fill="white"/>
<path d="M56.9469 283.679L55.0469 281.804V272.979L56.9469 271.104H63.9969L65.8719 272.979V281.804L63.9969 283.679H56.9469ZM57.5719 281.279H63.3469V273.504H57.5719V281.279Z" fill="white"/>
<path d="M41.8516 283.68V266.18H54.0516V268.68H44.4766V273.68H52.1516V276.18H44.4766V283.68H41.8516Z" fill="white"/>
<path d="M238.332 247.581V239.533H239.948V240.429L240.844 239.533H243.756L244.652 240.429L245.548 239.533H248.636L249.836 240.733V247.581H248.22V241.085H244.892V247.581H243.276V241.085H239.948V247.581H238.332Z" fill="url(#paint6_linear_10416_76423)"/>
<path d="M232.02 247.581V239.533H233.636V240.429L234.532 239.533H237.028V241.085H233.636V247.581H232.02Z" fill="url(#paint7_linear_10416_76423)"/>
<path d="M224.185 247.581L222.969 246.381V240.733L224.185 239.533H228.697L229.897 240.733V246.381L228.697 247.581H224.185ZM224.585 246.045H228.281V241.069H224.585V246.045Z" fill="url(#paint8_linear_10416_76423)"/>
<path d="M217.537 247.581V241.037H215.809V239.533H217.537V237.581L218.737 236.381H222.065V237.853H219.153V239.533H222.065V241.037H219.153V247.581H217.537Z" fill="url(#paint9_linear_10416_76423)"/>
<path d="M211.648 247.581L210.448 246.381V241.037H208.672V239.533H210.448V237.261H212.064V239.533H214.976V241.037H212.064V246.045H214.976V247.581H211.648Z" fill="url(#paint10_linear_10416_76423)"/>
<path d="M205.68 247.581V246.685L204.784 247.581H201.68L200.512 246.413V243.869L201.68 242.701H205.68V241.005H202.288V242.125H200.672V240.685L201.84 239.533H206.144L207.296 240.685V247.581H205.68ZM202.128 246.109H205.68V244.189H202.128V246.109Z" fill="url(#paint11_linear_10416_76423)"/>
<path d="M196.863 247.581V236.381H198.479V247.581H196.863Z" fill="url(#paint12_linear_10416_76423)"/>
<path d="M186.617 247.581V236.381H193.545L194.873 237.709V241.773L193.545 243.101H188.297V247.581H186.617ZM188.297 241.485H193.193V237.997H188.297V241.485Z" fill="url(#paint13_linear_10416_76423)"/>
<path d="M174.435 247.581L173.219 246.381V240.733L174.435 239.533H178.739L179.955 240.733V244.221H174.835V246.077H178.339V244.941H179.955V246.381L178.739 247.581H174.435ZM174.835 242.765H178.339V241.037H174.835V242.765Z" fill="url(#paint14_linear_10416_76423)"/>
<path d="M159.629 247.581V239.533H161.245V240.429L162.141 239.533H165.053L165.949 240.429L166.845 239.533H169.933L171.133 240.733V247.581H169.517V241.085H166.189V247.581H164.573V241.085H161.245V247.581H159.629Z" fill="url(#paint15_linear_10416_76423)"/>
<path d="M155.773 247.581V246.685L154.877 247.581H151.773L150.605 246.413V243.869L151.773 242.701H155.773V241.005H152.381V242.125H150.765V240.685L151.933 239.533H156.237L157.389 240.685V247.581H155.773ZM152.221 246.109H155.773V244.189H152.221V246.109Z" fill="url(#paint16_linear_10416_76423)"/>
<path d="M141.301 247.581L139.957 246.253V237.709L141.301 236.381H147.285L148.613 237.709V239.901H146.933V237.997H141.637V245.965H146.933V243.101H144.085V241.485H148.613V246.253L147.285 247.581H141.301Z" fill="url(#paint17_linear_10416_76423)"/>
<path d="M126.062 247.581L124.734 246.253V243.837H126.414V245.981H131.534V242.701H127.294V241.101H131.534V237.981H126.43V240.077H124.75V237.709L126.078 236.381H131.886L133.214 237.709V241.005L132.19 241.901L133.214 242.797V246.253L131.886 247.581H126.062Z" fill="url(#paint18_linear_10416_76423)"/>
<path d="M115.645 247.581V236.381H117.261V240.429L118.157 239.533H121.357L122.573 240.733V246.381L121.357 247.581H118.157L117.261 246.685V247.581H115.645ZM117.261 246.029H120.957V241.085H117.261V246.029Z" fill="url(#paint19_linear_10416_76423)"/>
<path d="M108.029 247.581L106.812 246.381V240.733L108.029 239.533H112.333L113.549 240.733V244.221H108.429V246.077H111.933V244.941H113.549V246.381L112.333 247.581H108.029ZM108.429 242.765H111.933V241.037H108.429V242.765Z" fill="url(#paint20_linear_10416_76423)"/>
<path d="M94.5443 247.581L91.4883 236.381H93.2803L95.4083 244.749L98.0323 236.381H99.4723L102.096 244.749L104.224 236.381H105.968L102.912 247.581H101.328L98.7203 239.453L96.1283 247.581H94.5443Z" fill="url(#paint21_linear_10416_76423)"/>
<path d="M74.763 247.581L71.707 236.381H73.499L75.627 244.749L78.251 236.381H79.691L82.315 244.749L84.443 236.381H86.187L83.131 247.581H81.547L78.939 239.453L76.347 247.581H74.763Z" fill="url(#paint22_linear_10416_76423)"/>
<path d="M62.6953 247.581V236.381H70.5353V237.981H64.3753V241.181H69.1113V242.781H64.3753V245.981H70.5673V247.581H62.6953Z" fill="url(#paint23_linear_10416_76423)"/>
<path d="M51.3359 247.581V236.381H52.8079L58.5519 244.445V236.381H60.1359V247.581H58.6479L52.9199 239.501V247.581H51.3359Z" fill="url(#paint24_linear_10416_76423)"/>
<path d="M42.2026 247.213L40.8906 245.901V244.029H42.5386V245.645H47.4026V242.797H42.1866L40.9386 241.533V238.061L42.2506 236.749H44.1866V234.909H45.7546V236.749H47.6906L49.0026 238.061V239.757H47.3546V238.317H42.5866V241.165H47.8026L49.0506 242.429V245.901L47.7386 247.213H45.7546V249.053H44.1866V247.213H42.2026Z" fill="url(#paint25_linear_10416_76423)"/>
<path fill-rule="evenodd" clip-rule="evenodd" d="M226.855 94.527L318.425 66.2838C337.39 60.4344 357.506 71.0667 363.356 90.0316C369.205 108.997 358.573 129.112 339.608 134.962C329.438 138.099 318.937 136.496 310.482 131.41L270.102 143.864C265.981 152.829 258.207 160.068 248.037 163.205C229.072 169.054 208.956 158.422 203.107 139.457C197.257 120.492 207.89 100.376 226.855 94.527L226.855 94.527L226.855 94.527Z" fill="#061B12"/>
<path fill-rule="evenodd" clip-rule="evenodd" d="M236.324 118.253C236.215 117.899 235.839 117.7 235.485 117.809L229.671 119.603C229.317 119.712 229.118 120.087 229.227 120.441L231.219 126.897L224.76 128.889C224.406 128.999 224.207 129.374 224.316 129.728L226.11 135.543C226.219 135.897 226.594 136.095 226.948 135.986L233.407 133.994L235.399 140.45C235.508 140.804 235.883 141.002 236.237 140.893L242.052 139.099C242.406 138.99 242.604 138.615 242.495 138.261L240.504 131.805L246.957 129.815C247.311 129.706 247.509 129.33 247.4 128.976L245.606 123.162C245.497 122.808 245.122 122.609 244.768 122.718L238.315 124.708L236.324 118.253Z" fill="#06170F"/>
<path d="M235.485 117.809L235.633 118.287L235.485 117.809ZM229.671 119.603L229.818 120.08L229.671 119.603ZM229.227 120.441L229.705 120.294L229.227 120.441ZM231.219 126.897L231.366 127.375L231.844 127.228L231.696 126.75L231.219 126.897ZM224.76 128.889L224.612 128.412L224.76 128.889ZM224.316 129.728L224.794 129.581L224.316 129.728ZM226.11 135.543L225.632 135.69L226.11 135.543ZM233.407 133.994L233.885 133.847L233.738 133.369L233.26 133.516L233.407 133.994ZM235.399 140.45L234.921 140.597L235.399 140.45ZM236.237 140.893L236.385 141.371L236.237 140.893ZM242.052 139.099L241.905 138.622L242.052 139.099ZM242.495 138.261L242.973 138.113L242.495 138.261ZM240.504 131.805L240.357 131.327L239.879 131.475L240.026 131.953L240.504 131.805ZM246.957 129.815L247.104 130.293L246.957 129.815ZM247.4 128.976L246.922 129.124L247.4 128.976ZM245.606 123.162L246.084 123.014L245.606 123.162ZM244.768 122.718L244.62 122.24L244.768 122.718ZM238.315 124.708L237.838 124.856L237.985 125.334L238.463 125.186L238.315 124.708ZM235.633 118.287C235.723 118.259 235.819 118.31 235.846 118.4L236.802 118.105C236.611 117.487 235.956 117.141 235.338 117.331L235.633 118.287ZM229.818 120.08L235.633 118.287L235.338 117.331L229.523 119.125L229.818 120.08ZM229.705 120.294C229.677 120.204 229.728 120.108 229.818 120.08L229.523 119.125C228.905 119.315 228.559 119.971 228.75 120.589L229.705 120.294ZM231.696 126.75L229.705 120.294L228.75 120.589L230.741 127.045L231.696 126.75ZM224.907 129.367L231.366 127.375L231.071 126.419L224.612 128.412L224.907 129.367ZM224.794 129.581C224.766 129.491 224.817 129.395 224.907 129.367L224.612 128.412C223.994 128.602 223.648 129.258 223.838 129.875L224.794 129.581ZM226.588 135.396L224.794 129.581L223.838 129.875L225.632 135.69L226.588 135.396ZM226.801 135.508C226.711 135.536 226.615 135.486 226.588 135.396L225.632 135.69C225.823 136.308 226.478 136.655 227.096 136.464L226.801 135.508ZM233.26 133.516L226.801 135.508L227.096 136.464L233.555 134.472L233.26 133.516ZM235.876 140.302L233.885 133.847L232.93 134.141L234.921 140.597L235.876 140.302ZM236.09 140.415C236 140.443 235.904 140.392 235.876 140.302L234.921 140.597C235.111 141.215 235.767 141.561 236.385 141.371L236.09 140.415ZM241.905 138.622L236.09 140.415L236.385 141.371L242.199 139.577L241.905 138.622ZM242.017 138.408C242.045 138.498 241.995 138.594 241.905 138.622L242.199 139.577C242.817 139.387 243.164 138.731 242.973 138.113L242.017 138.408ZM240.026 131.953L242.017 138.408L242.973 138.113L240.982 131.658L240.026 131.953ZM246.809 129.337L240.357 131.327L240.652 132.283L247.104 130.293L246.809 129.337ZM246.922 129.124C246.95 129.214 246.899 129.309 246.809 129.337L247.104 130.293C247.722 130.102 248.068 129.447 247.878 128.829L246.922 129.124ZM245.129 123.309L246.922 129.124L247.878 128.829L246.084 123.014L245.129 123.309ZM244.915 123.196C245.005 123.168 245.101 123.219 245.129 123.309L246.084 123.014C245.894 122.396 245.238 122.05 244.62 122.24L244.915 123.196ZM238.463 125.186L244.915 123.196L244.62 122.24L238.168 124.231L238.463 125.186ZM235.846 118.4L237.838 124.856L238.793 124.561L236.802 118.105L235.846 118.4Z" fill="#12915A"/>
<path fill-rule="evenodd" clip-rule="evenodd" d="M226.717 94.07L226.26 94.211L226.261 94.214C207.33 100.321 196.773 120.534 202.653 139.598C202.806 140.095 202.969 140.587 203.142 141.072C203.41 142.791 203.806 144.511 204.333 146.222C210.261 165.439 230.644 176.213 249.862 170.286C260.094 167.13 267.932 159.875 272.13 150.882L312.103 138.553C320.638 143.62 331.201 145.198 341.433 142.043C360.65 136.115 371.424 115.732 365.497 96.5142C365.343 96.0173 365.181 95.5261 365.008 95.0406C364.739 93.3221 364.344 91.6018 363.816 89.8908C357.889 70.6734 337.505 59.8995 318.288 65.8268L226.717 94.07ZM365.44 100.139C365.656 115.884 355.561 130.543 339.752 135.419C329.521 138.575 318.957 136.996 310.423 131.93L270.45 144.259C266.252 153.252 258.413 160.507 248.182 163.663C231.144 168.918 213.189 161.045 205.205 145.799C205.219 145.846 205.233 145.893 205.248 145.94C211.019 164.652 230.867 175.143 249.58 169.371C259.614 166.276 267.284 159.134 271.351 150.288L271.44 150.094L271.645 150.031L312.025 137.576L312.229 137.513L312.413 137.623C320.755 142.642 331.116 144.223 341.151 141.128C358.752 135.699 369.079 117.816 365.44 100.139ZM204.073 140.836C210.426 158.592 229.7 168.361 247.9 162.748C257.934 159.653 265.604 152.511 269.671 143.665L269.76 143.47L269.964 143.407L310.345 130.953L310.549 130.89L310.732 131C319.075 136.019 329.436 137.6 339.47 134.505C358.183 128.733 368.673 108.885 362.902 90.1728C357.131 71.4604 337.282 60.9697 318.57 66.7412L227.456 94.8434L227.456 94.8434L226.999 94.9844C208.287 100.756 197.796 120.604 203.568 139.316C203.696 139.733 203.832 140.146 203.974 140.555L204.03 140.546C204.044 140.643 204.059 140.74 204.073 140.836ZM320.67 74.7379C306.383 79.1445 298.373 94.2989 302.78 108.586C307.186 122.873 322.341 130.883 336.628 126.477C350.915 122.07 358.925 106.916 354.519 92.6284C350.112 78.3411 334.958 70.3313 320.67 74.7379ZM301.865 108.868C297.303 94.0759 305.596 78.3859 320.388 73.8235C335.181 69.2611 350.871 77.5541 355.433 92.3464C359.995 107.139 351.702 122.829 336.91 127.391C322.118 131.953 306.428 123.661 301.865 108.868ZM215.558 135.489C212.126 124.363 218.364 112.561 229.49 109.129C240.617 105.697 252.418 111.935 255.85 123.062C259.282 134.188 253.044 145.99 241.918 149.422C230.791 152.853 218.989 146.615 215.558 135.489ZM229.208 108.215C217.577 111.802 211.056 124.14 214.643 135.771C218.231 147.402 230.568 153.923 242.2 150.336C253.831 146.748 260.352 134.411 256.764 122.78C253.177 111.148 240.84 104.627 229.208 108.215ZM331.509 93.7936L322.889 110.102C320.849 113.962 316.066 115.437 312.207 113.397C308.347 111.357 306.872 106.575 308.912 102.715L317.532 86.4063C319.572 82.5468 324.354 81.0717 328.214 83.1116C332.074 85.1516 333.549 89.9341 331.509 93.7936ZM327.767 83.9577C324.375 82.1647 320.171 83.4612 318.378 86.8535L309.758 103.162C307.965 106.555 309.262 110.758 312.654 112.551C316.046 114.344 320.25 113.048 322.043 109.655L330.663 93.3465C332.456 89.9542 331.159 85.7507 327.767 83.9577ZM328.49 92.3339C327.346 94.4986 324.664 95.3259 322.499 94.1817C320.334 93.0376 319.507 90.3552 320.651 88.1905C321.795 86.0258 324.478 85.1985 326.642 86.3426C328.807 87.4868 329.634 90.1691 328.49 92.3339ZM329.336 92.781C327.945 95.413 324.684 96.4189 322.052 95.0277C319.42 93.6366 318.414 90.3753 319.805 87.7433C321.196 85.1114 324.457 84.1055 327.089 85.4966C329.721 86.8877 330.727 90.1491 329.336 92.781ZM313.991 110.279C316.156 111.424 318.838 110.596 319.982 108.432C321.126 106.267 320.299 103.584 318.134 102.44C315.97 101.296 313.287 102.123 312.143 104.288C310.999 106.453 311.826 109.135 313.991 110.279ZM313.544 111.125C316.176 112.517 319.437 111.511 320.828 108.879C322.219 106.247 321.214 102.985 318.582 101.594C315.95 100.203 312.688 101.209 311.297 103.841C309.906 106.473 310.912 109.734 313.544 111.125ZM339.717 114.663L348.337 98.3542C350.377 94.4946 348.902 89.7122 345.042 87.6722C341.183 85.6322 336.4 87.1073 334.36 90.9668L325.74 107.276C323.7 111.135 325.175 115.918 329.035 117.958C332.894 119.998 337.677 118.523 339.717 114.663ZM335.206 91.414C336.999 88.0217 341.203 86.7252 344.595 88.5182C347.987 90.3112 349.284 94.5147 347.491 97.907L338.871 114.216C337.078 117.608 332.874 118.905 329.482 117.112C326.09 115.319 324.793 111.115 326.586 107.723L335.206 91.414ZM339.327 98.7413C341.492 99.8855 344.174 99.0581 345.318 96.8934C346.462 94.7287 345.635 92.0463 343.47 90.9022C341.306 89.758 338.623 90.5854 337.479 92.7501C336.335 94.9148 337.162 97.5971 339.327 98.7413ZM338.88 99.5873C341.512 100.978 344.773 99.9725 346.164 97.3406C347.555 94.7086 346.549 91.4473 343.917 90.0562C341.286 88.6651 338.024 89.6709 336.633 92.3029C335.242 94.9349 336.248 98.1962 338.88 99.5873ZM336.81 112.991C335.666 115.156 332.984 115.983 330.819 114.839C328.654 113.695 327.827 111.012 328.971 108.848C330.115 106.683 332.798 105.856 334.963 107C337.127 108.144 337.955 110.826 336.81 112.991ZM337.656 113.438C336.265 116.07 333.004 117.076 330.372 115.685C327.74 114.294 326.734 111.033 328.125 108.401C329.516 105.769 332.778 104.763 335.41 106.154C338.042 107.545 339.048 110.806 337.656 113.438ZM272.088 134.168C270.778 133.476 270.277 131.853 270.97 130.543L275.775 121.451C276.467 120.142 278.09 119.641 279.4 120.334C280.709 121.026 281.21 122.648 280.518 123.958L275.712 133.05C275.02 134.359 273.397 134.86 272.088 134.168ZM271.816 130.99C271.37 131.833 271.692 132.877 272.535 133.322C273.377 133.767 274.421 133.445 274.866 132.603L279.672 123.511C280.117 122.669 279.795 121.625 278.952 121.18C278.11 120.734 277.066 121.056 276.621 121.899L271.816 130.99ZM285.934 125.929C285.242 127.239 285.743 128.861 287.052 129.554C288.362 130.246 289.985 129.745 290.677 128.436L295.482 119.344C296.175 118.034 295.674 116.411 294.364 115.719C293.055 115.027 291.432 115.528 290.74 116.837L285.934 125.929ZM287.5 128.708C286.657 128.262 286.335 127.219 286.78 126.376L291.586 117.284C292.031 116.442 293.075 116.12 293.917 116.565C294.76 117.011 295.082 118.054 294.636 118.897L289.831 127.988C289.386 128.831 288.342 129.153 287.5 128.708Z" fill="url(#paint26_linear_10416_76423)"/>
<rect x="266.195" y="97.6338" width="20.2016" height="8.35929" rx="4.17965" transform="rotate(-17.1413 266.195 97.6338)" stroke="#29D389"/>
<defs>
<filter id="filter0_f_10416_76423" x="-222.708" y="-457.566" width="1147.3" height="975.19" filterUnits="userSpaceOnUse" color-interpolation-filters="sRGB">
<feFlood flood-opacity="0" result="BackgroundImageFix"/>
<feBlend mode="normal" in="SourceGraphic" in2="BackgroundImageFix" result="shape"/>
<feGaussianBlur stdDeviation="179.481" result="effect1_foregroundBlur_10416_76423"/>
</filter>
<filter id="filter1_f_10416_76423" x="-222.708" y="-457.566" width="1147.3" height="975.19" filterUnits="userSpaceOnUse" color-interpolation-filters="sRGB">
<feFlood flood-opacity="0" result="BackgroundImageFix"/>
<feBlend mode="normal" in="SourceGraphic" in2="BackgroundImageFix" result="shape"/>
<feGaussianBlur stdDeviation="179.481" result="effect1_foregroundBlur_10416_76423"/>
</filter>
<linearGradient id="paint0_linear_10416_76423" x1="-30.633" y1="384.627" x2="433.18" y2="9.71323" gradientUnits="userSpaceOnUse">
<stop stop-color="#DCF507"/>
<stop offset="0.05" stop-color="#D3F50F"/>
<stop offset="0.12" stop-color="#BDF627"/>
<stop offset="0.22" stop-color="#99F84D"/>
<stop offset="0.33" stop-color="#66FA82"/>
<stop offset="0.45" stop-color="#26FDC5"/>
<stop offset="0.5" stop-color="#0CFFE2"/>
<stop offset="0.62" stop-color="#1AFFC4"/>
<stop offset="1" stop-color="#49FF66"/>
</linearGradient>
<linearGradient id="paint1_linear_10416_76423" x1="-30.633" y1="384.627" x2="433.18" y2="9.71323" gradientUnits="userSpaceOnUse">
<stop stop-color="#DCF507"/>
<stop offset="0.05" stop-color="#D3F50F"/>
<stop offset="0.12" stop-color="#BDF627"/>
<stop offset="0.22" stop-color="#99F84D"/>
<stop offset="0.33" stop-color="#66FA82"/>
<stop offset="0.45" stop-color="#26FDC5"/>
<stop offset="0.5" stop-color="#0CFFE2"/>
<stop offset="0.62" stop-color="#1AFFC4"/>
<stop offset="1" stop-color="#49FF66"/>
</linearGradient>
<linearGradient id="paint2_linear_10416_76423" x1="103.206" y1="150.018" x2="396.576" y2="-245.765" gradientUnits="userSpaceOnUse">
<stop stop-color="#DCF507"/>
<stop offset="0.05" stop-color="#D3F50F"/>
<stop offset="0.12" stop-color="#BDF627"/>
<stop offset="0.22" stop-color="#99F84D"/>
<stop offset="0.33" stop-color="#66FA82"/>
<stop offset="0.45" stop-color="#26FDC5"/>
<stop offset="0.5" stop-color="#0CFFE2"/>
<stop offset="0.62" stop-color="#1AFFC4"/>
<stop offset="1" stop-color="#49FF66"/>
</linearGradient>
<linearGradient id="paint3_linear_10416_76423" x1="14.876" y1="359.038" x2="101.062" y2="143.494" gradientUnits="userSpaceOnUse">
<stop stop-color="#DCF507"/>
<stop offset="0.05" stop-color="#D3F50F"/>
<stop offset="0.12" stop-color="#BDF627"/>
<stop offset="0.22" stop-color="#99F84D"/>
<stop offset="0.33" stop-color="#66FA82"/>
<stop offset="0.45" stop-color="#26FDC5"/>
<stop offset="0.5" stop-color="#0CFFE2"/>
<stop offset="0.62" stop-color="#1AFFC4"/>
<stop offset="1" stop-color="#49FF66"/>
</linearGradient>
<linearGradient id="paint4_linear_10416_76423" x1="22.9378" y1="249.957" x2="27.2318" y2="207.533" gradientUnits="userSpaceOnUse">
<stop stop-color="#DCF507"/>
<stop offset="0.05" stop-color="#D3F50F"/>
<stop offset="0.12" stop-color="#BDF627"/>
<stop offset="0.22" stop-color="#99F84D"/>
<stop offset="0.33" stop-color="#66FA82"/>
<stop offset="0.45" stop-color="#26FDC5"/>
<stop offset="0.5" stop-color="#0CFFE2"/>
<stop offset="0.62" stop-color="#1AFFC4"/>
<stop offset="1" stop-color="#49FF66"/>
</linearGradient>
<linearGradient id="paint5_linear_10416_76423" x1="103.206" y1="150.018" x2="396.576" y2="-245.765" gradientUnits="userSpaceOnUse">
<stop stop-color="#DCF507"/>
<stop offset="0.05" stop-color="#D3F50F"/>
<stop offset="0.12" stop-color="#BDF627"/>
<stop offset="0.22" stop-color="#99F84D"/>
<stop offset="0.33" stop-color="#66FA82"/>
<stop offset="0.45" stop-color="#26FDC5"/>
<stop offset="0.5" stop-color="#0CFFE2"/>
<stop offset="0.62" stop-color="#1AFFC4"/>
<stop offset="1" stop-color="#49FF66"/>
</linearGradient>
<linearGradient id="paint6_linear_10416_76423" x1="22.9378" y1="249.957" x2="27.2318" y2="207.533" gradientUnits="userSpaceOnUse">
<stop stop-color="#DCF507"/>
<stop offset="0.05" stop-color="#D3F50F"/>
<stop offset="0.12" stop-color="#BDF627"/>
<stop offset="0.22" stop-color="#99F84D"/>
<stop offset="0.33" stop-color="#66FA82"/>
<stop offset="0.45" stop-color="#26FDC5"/>
<stop offset="0.5" stop-color="#0CFFE2"/>
<stop offset="0.62" stop-color="#1AFFC4"/>
<stop offset="1" stop-color="#49FF66"/>
</linearGradient>
<linearGradient id="paint7_linear_10416_76423" x1="22.9378" y1="249.957" x2="27.2319" y2="207.533" gradientUnits="userSpaceOnUse">
<stop stop-color="#DCF507"/>
<stop offset="0.05" stop-color="#D3F50F"/>
<stop offset="0.12" stop-color="#BDF627"/>
<stop offset="0.22" stop-color="#99F84D"/>
<stop offset="0.33" stop-color="#66FA82"/>
<stop offset="0.45" stop-color="#26FDC5"/>
<stop offset="0.5" stop-color="#0CFFE2"/>
<stop offset="0.62" stop-color="#1AFFC4"/>
<stop offset="1" stop-color="#49FF66"/>
</linearGradient>
<linearGradient id="paint8_linear_10416_76423" x1="22.9378" y1="249.957" x2="27.2318" y2="207.533" gradientUnits="userSpaceOnUse">
<stop stop-color="#DCF507"/>
<stop offset="0.05" stop-color="#D3F50F"/>
<stop offset="0.12" stop-color="#BDF627"/>
<stop offset="0.22" stop-color="#99F84D"/>
<stop offset="0.33" stop-color="#66FA82"/>
<stop offset="0.45" stop-color="#26FDC5"/>
<stop offset="0.5" stop-color="#0CFFE2"/>
<stop offset="0.62" stop-color="#1AFFC4"/>
<stop offset="1" stop-color="#49FF66"/>
</linearGradient>
<linearGradient id="paint9_linear_10416_76423" x1="22.9378" y1="249.957" x2="27.2318" y2="207.533" gradientUnits="userSpaceOnUse">
<stop stop-color="#DCF507"/>
<stop offset="0.05" stop-color="#D3F50F"/>
<stop offset="0.12" stop-color="#BDF627"/>
<stop offset="0.22" stop-color="#99F84D"/>
<stop offset="0.33" stop-color="#66FA82"/>
<stop offset="0.45" stop-color="#26FDC5"/>
<stop offset="0.5" stop-color="#0CFFE2"/>
<stop offset="0.62" stop-color="#1AFFC4"/>
<stop offset="1" stop-color="#49FF66"/>
</linearGradient>
<linearGradient id="paint10_linear_10416_76423" x1="22.9378" y1="249.957" x2="27.2319" y2="207.533" gradientUnits="userSpaceOnUse">
<stop stop-color="#DCF507"/>
<stop offset="0.05" stop-color="#D3F50F"/>
<stop offset="0.12" stop-color="#BDF627"/>
<stop offset="0.22" stop-color="#99F84D"/>
<stop offset="0.33" stop-color="#66FA82"/>
<stop offset="0.45" stop-color="#26FDC5"/>
<stop offset="0.5" stop-color="#0CFFE2"/>
<stop offset="0.62" stop-color="#1AFFC4"/>
<stop offset="1" stop-color="#49FF66"/>
</linearGradient>
<linearGradient id="paint11_linear_10416_76423" x1="22.9378" y1="249.957" x2="27.2319" y2="207.533" gradientUnits="userSpaceOnUse">
<stop stop-color="#DCF507"/>
<stop offset="0.05" stop-color="#D3F50F"/>
<stop offset="0.12" stop-color="#BDF627"/>
<stop offset="0.22" stop-color="#99F84D"/>
<stop offset="0.33" stop-color="#66FA82"/>
<stop offset="0.45" stop-color="#26FDC5"/>
<stop offset="0.5" stop-color="#0CFFE2"/>
<stop offset="0.62" stop-color="#1AFFC4"/>
<stop offset="1" stop-color="#49FF66"/>
</linearGradient>
<linearGradient id="paint12_linear_10416_76423" x1="22.9378" y1="249.957" x2="27.2318" y2="207.533" gradientUnits="userSpaceOnUse">
<stop stop-color="#DCF507"/>
<stop offset="0.05" stop-color="#D3F50F"/>
<stop offset="0.12" stop-color="#BDF627"/>
<stop offset="0.22" stop-color="#99F84D"/>
<stop offset="0.33" stop-color="#66FA82"/>
<stop offset="0.45" stop-color="#26FDC5"/>
<stop offset="0.5" stop-color="#0CFFE2"/>
<stop offset="0.62" stop-color="#1AFFC4"/>
<stop offset="1" stop-color="#49FF66"/>
</linearGradient>
<linearGradient id="paint13_linear_10416_76423" x1="22.9378" y1="249.957" x2="27.2319" y2="207.533" gradientUnits="userSpaceOnUse">
<stop stop-color="#DCF507"/>
<stop offset="0.05" stop-color="#D3F50F"/>
<stop offset="0.12" stop-color="#BDF627"/>
<stop offset="0.22" stop-color="#99F84D"/>
<stop offset="0.33" stop-color="#66FA82"/>
<stop offset="0.45" stop-color="#26FDC5"/>
<stop offset="0.5" stop-color="#0CFFE2"/>
<stop offset="0.62" stop-color="#1AFFC4"/>
<stop offset="1" stop-color="#49FF66"/>
</linearGradient>
<linearGradient id="paint14_linear_10416_76423" x1="22.9378" y1="249.957" x2="27.2318" y2="207.533" gradientUnits="userSpaceOnUse">
<stop stop-color="#DCF507"/>
<stop offset="0.05" stop-color="#D3F50F"/>
<stop offset="0.12" stop-color="#BDF627"/>
<stop offset="0.22" stop-color="#99F84D"/>
<stop offset="0.33" stop-color="#66FA82"/>
<stop offset="0.45" stop-color="#26FDC5"/>
<stop offset="0.5" stop-color="#0CFFE2"/>
<stop offset="0.62" stop-color="#1AFFC4"/>
<stop offset="1" stop-color="#49FF66"/>
</linearGradient>
<linearGradient id="paint15_linear_10416_76423" x1="22.9378" y1="249.957" x2="27.2318" y2="207.533" gradientUnits="userSpaceOnUse">
<stop stop-color="#DCF507"/>
<stop offset="0.05" stop-color="#D3F50F"/>
<stop offset="0.12" stop-color="#BDF627"/>
<stop offset="0.22" stop-color="#99F84D"/>
<stop offset="0.33" stop-color="#66FA82"/>
<stop offset="0.45" stop-color="#26FDC5"/>
<stop offset="0.5" stop-color="#0CFFE2"/>
<stop offset="0.62" stop-color="#1AFFC4"/>
<stop offset="1" stop-color="#49FF66"/>
</linearGradient>
<linearGradient id="paint16_linear_10416_76423" x1="22.9378" y1="249.957" x2="27.2318" y2="207.533" gradientUnits="userSpaceOnUse">
<stop stop-color="#DCF507"/>
<stop offset="0.05" stop-color="#D3F50F"/>
<stop offset="0.12" stop-color="#BDF627"/>
<stop offset="0.22" stop-color="#99F84D"/>
<stop offset="0.33" stop-color="#66FA82"/>
<stop offset="0.45" stop-color="#26FDC5"/>
<stop offset="0.5" stop-color="#0CFFE2"/>
<stop offset="0.62" stop-color="#1AFFC4"/>
<stop offset="1" stop-color="#49FF66"/>
</linearGradient>
<linearGradient id="paint17_linear_10416_76423" x1="22.9378" y1="249.957" x2="27.2318" y2="207.533" gradientUnits="userSpaceOnUse">
<stop stop-color="#DCF507"/>
<stop offset="0.05" stop-color="#D3F50F"/>
<stop offset="0.12" stop-color="#BDF627"/>
<stop offset="0.22" stop-color="#99F84D"/>
<stop offset="0.33" stop-color="#66FA82"/>
<stop offset="0.45" stop-color="#26FDC5"/>
<stop offset="0.5" stop-color="#0CFFE2"/>
<stop offset="0.62" stop-color="#1AFFC4"/>
<stop offset="1" stop-color="#49FF66"/>
</linearGradient>
<linearGradient id="paint18_linear_10416_76423" x1="22.9378" y1="249.957" x2="27.2318" y2="207.533" gradientUnits="userSpaceOnUse">
<stop stop-color="#DCF507"/>
<stop offset="0.05" stop-color="#D3F50F"/>
<stop offset="0.12" stop-color="#BDF627"/>
<stop offset="0.22" stop-color="#99F84D"/>
<stop offset="0.33" stop-color="#66FA82"/>
<stop offset="0.45" stop-color="#26FDC5"/>
<stop offset="0.5" stop-color="#0CFFE2"/>
<stop offset="0.62" stop-color="#1AFFC4"/>
<stop offset="1" stop-color="#49FF66"/>
</linearGradient>
<linearGradient id="paint19_linear_10416_76423" x1="22.9378" y1="249.957" x2="27.2318" y2="207.533" gradientUnits="userSpaceOnUse">
<stop stop-color="#DCF507"/>
<stop offset="0.05" stop-color="#D3F50F"/>
<stop offset="0.12" stop-color="#BDF627"/>
<stop offset="0.22" stop-color="#99F84D"/>
<stop offset="0.33" stop-color="#66FA82"/>
<stop offset="0.45" stop-color="#26FDC5"/>
<stop offset="0.5" stop-color="#0CFFE2"/>
<stop offset="0.62" stop-color="#1AFFC4"/>
<stop offset="1" stop-color="#49FF66"/>
</linearGradient>
<linearGradient id="paint20_linear_10416_76423" x1="22.9378" y1="249.957" x2="27.2318" y2="207.533" gradientUnits="userSpaceOnUse">
<stop stop-color="#DCF507"/>
<stop offset="0.05" stop-color="#D3F50F"/>
<stop offset="0.12" stop-color="#BDF627"/>
<stop offset="0.22" stop-color="#99F84D"/>
<stop offset="0.33" stop-color="#66FA82"/>
<stop offset="0.45" stop-color="#26FDC5"/>
<stop offset="0.5" stop-color="#0CFFE2"/>
<stop offset="0.62" stop-color="#1AFFC4"/>
<stop offset="1" stop-color="#49FF66"/>
</linearGradient>
<linearGradient id="paint21_linear_10416_76423" x1="22.9378" y1="249.957" x2="27.2318" y2="207.533" gradientUnits="userSpaceOnUse">
<stop stop-color="#DCF507"/>
<stop offset="0.05" stop-color="#D3F50F"/>
<stop offset="0.12" stop-color="#BDF627"/>
<stop offset="0.22" stop-color="#99F84D"/>
<stop offset="0.33" stop-color="#66FA82"/>
<stop offset="0.45" stop-color="#26FDC5"/>
<stop offset="0.5" stop-color="#0CFFE2"/>
<stop offset="0.62" stop-color="#1AFFC4"/>
<stop offset="1" stop-color="#49FF66"/>
</linearGradient>
<linearGradient id="paint22_linear_10416_76423" x1="22.9378" y1="249.957" x2="27.2318" y2="207.533" gradientUnits="userSpaceOnUse">
<stop stop-color="#DCF507"/>
<stop offset="0.05" stop-color="#D3F50F"/>
<stop offset="0.12" stop-color="#BDF627"/>
<stop offset="0.22" stop-color="#99F84D"/>
<stop offset="0.33" stop-color="#66FA82"/>
<stop offset="0.45" stop-color="#26FDC5"/>
<stop offset="0.5" stop-color="#0CFFE2"/>
<stop offset="0.62" stop-color="#1AFFC4"/>
<stop offset="1" stop-color="#49FF66"/>
</linearGradient>
<linearGradient id="paint23_linear_10416_76423" x1="22.9378" y1="249.957" x2="27.2318" y2="207.533" gradientUnits="userSpaceOnUse">
<stop stop-color="#DCF507"/>
<stop offset="0.05" stop-color="#D3F50F"/>
<stop offset="0.12" stop-color="#BDF627"/>
<stop offset="0.22" stop-color="#99F84D"/>
<stop offset="0.33" stop-color="#66FA82"/>
<stop offset="0.45" stop-color="#26FDC5"/>
<stop offset="0.5" stop-color="#0CFFE2"/>
<stop offset="0.62" stop-color="#1AFFC4"/>
<stop offset="1" stop-color="#49FF66"/>
</linearGradient>
<linearGradient id="paint24_linear_10416_76423" x1="22.9378" y1="249.957" x2="27.2318" y2="207.533" gradientUnits="userSpaceOnUse">
<stop stop-color="#DCF507"/>
<stop offset="0.05" stop-color="#D3F50F"/>
<stop offset="0.12" stop-color="#BDF627"/>
<stop offset="0.22" stop-color="#99F84D"/>
<stop offset="0.33" stop-color="#66FA82"/>
<stop offset="0.45" stop-color="#26FDC5"/>
<stop offset="0.5" stop-color="#0CFFE2"/>
<stop offset="0.62" stop-color="#1AFFC4"/>
<stop offset="1" stop-color="#49FF66"/>
</linearGradient>
<linearGradient id="paint25_linear_10416_76423" x1="22.9378" y1="249.957" x2="27.2318" y2="207.533" gradientUnits="userSpaceOnUse">
<stop stop-color="#DCF507"/>
<stop offset="0.05" stop-color="#D3F50F"/>
<stop offset="0.12" stop-color="#BDF627"/>
<stop offset="0.22" stop-color="#99F84D"/>
<stop offset="0.33" stop-color="#66FA82"/>
<stop offset="0.45" stop-color="#26FDC5"/>
<stop offset="0.5" stop-color="#0CFFE2"/>
<stop offset="0.62" stop-color="#1AFFC4"/>
<stop offset="1" stop-color="#49FF66"/>
</linearGradient>
<linearGradient id="paint26_linear_10416_76423" x1="300.783" y1="71.072" x2="293.194" y2="146.943" gradientUnits="userSpaceOnUse">
<stop stop-color="#38FFA9"/>
<stop offset="1" stop-color="#02653A"/>
</linearGradient>
</defs>
</svg>
