<svg width="398" height="398" viewBox="0 0 398 398" fill="none" xmlns="http://www.w3.org/2000/svg">
<rect x="0.448703" y="0.448703" width="397.103" height="397.103" rx="35.4475" fill="url(#paint0_linear_10345_686)"/>
<rect x="0.448703" y="0.448703" width="397.103" height="397.103" rx="35.4475" fill="black"/>
<rect x="0.448703" y="0.448703" width="397.103" height="397.103" rx="35.4475" stroke="#315C4A" stroke-width="0.897406"/>
<mask id="mask0_10345_686" style="mask-type:alpha" maskUnits="userSpaceOnUse" x="0" y="0" width="398" height="398">
<path d="M35.8962 0.5632H362.104C381.618 0.5632 397.437 16.3823 397.437 35.8962V362.104C397.437 381.618 381.618 397.437 362.104 397.437H35.8962C16.3823 397.437 0.5632 381.618 0.5632 362.104V35.8962C0.5632 16.3823 16.3823 0.5632 35.8962 0.5632Z" fill="black" stroke="#2DFFA0" stroke-width="1.1264"/>
</mask>
<g mask="url(#mask0_10345_686)">
<g filter="url(#filter0_f_10345_686)">
<ellipse cx="350.941" cy="30.0294" rx="214.687" ry="128.633" fill="url(#paint1_linear_10345_686)" fill-opacity="0.25"/>
</g>
<path fill-rule="evenodd" clip-rule="evenodd" d="M40.8906 245.901L42.2026 247.213H44.1866V249.053H45.7546V247.213H47.7386L49.0506 245.901V242.429L47.8026 241.165H42.5866V238.317H47.3546V239.757H49.0026V238.061L47.6906 236.749H45.7546V234.909H44.1866V236.749H42.2506L40.9386 238.061V241.533L42.1866 242.797H47.4026V245.645H42.5386V244.029H40.8906V245.901ZM51.332 247.581V236.381H52.804L58.548 244.445V236.381H60.132V247.581H58.644L52.916 239.501V247.581H51.332ZM62.6914 236.381V247.581H70.5634V245.981H64.3714V242.781H69.1074V241.181H64.3714V237.981H70.5314V236.381H62.6914ZM74.7591 247.581L71.7031 236.381H73.4951L75.6231 244.749L78.2471 236.381H79.6871L82.3111 244.749L84.4391 236.381H86.1831L83.1271 247.581H81.5431L78.9351 239.453L76.3431 247.581H74.7591ZM91.4844 236.381L94.5404 247.581H96.1244L98.7164 239.453L101.324 247.581H102.908L105.964 236.381H104.22L102.092 244.749L99.4684 236.381H98.0284L95.4044 244.749L93.2764 236.381H91.4844ZM115.645 236.381V247.581H117.261V246.685L118.157 247.581H121.357L122.573 246.381V240.733L121.357 239.533H118.157L117.261 240.429V236.381H115.645ZM120.957 246.029H117.261V241.085H120.957V246.029ZM126.062 247.581L124.734 246.253V243.837H126.414V245.981H131.534V242.701H127.294V241.101H131.534V237.981H126.43V240.077H124.75V237.709L126.078 236.381H131.886L133.214 237.709V241.005L132.19 241.901L133.214 242.797V246.253L131.886 247.581H126.062ZM139.957 246.253L141.301 247.581H147.285L148.613 246.253V241.485H144.085V243.101H146.933V245.965H141.637V237.997H146.933V239.901H148.613V237.709L147.285 236.381H141.301L139.957 237.709V246.253ZM186.613 236.381V247.581H188.293V243.101H193.541L194.869 241.773V237.709L193.541 236.381H186.613ZM193.189 241.485H188.293V237.997H193.189V241.485ZM196.863 247.581V236.381H198.479V247.581H196.863ZM217.533 241.037V247.581H219.149V241.037H222.061V239.533H219.149V237.853H222.061V236.381H218.733L217.533 237.581V239.533H215.805V241.037H217.533ZM224.185 247.581L222.969 246.381V240.733L224.185 239.533H228.697L229.897 240.733V246.381L228.697 247.581H224.185ZM224.585 246.045H228.281V241.069H224.585V246.045ZM232.02 239.533V247.581H233.636V241.085H237.028V239.533H234.532L233.636 240.429V239.533H232.02ZM238.332 239.533V247.581H239.948V241.085H243.276V247.581H244.892V241.085H248.22V247.581H249.836V240.733L248.636 239.533H245.548L244.652 240.429L243.756 239.533H240.844L239.948 240.429V239.533H238.332ZM211.644 247.581L210.444 246.381V241.037H208.668V239.533H210.444V237.261H212.06V239.533H214.972V241.037H212.06V246.045H214.972V247.581H211.644ZM205.68 246.685V247.581H207.296V240.685L206.144 239.533H201.84L200.672 240.685V242.125H202.288V241.005H205.68V242.701H201.68L200.512 243.869V246.413L201.68 247.581H204.784L205.68 246.685ZM205.68 246.109H202.128V244.189H205.68V246.109ZM174.435 247.581L173.219 246.381V240.733L174.435 239.533H178.739L179.955 240.733V244.221H174.835V246.077H178.339V244.941H179.955V246.381L178.739 247.581H174.435ZM174.835 242.765H178.339V241.037H174.835V242.765ZM159.629 239.533V247.581H161.245V241.085H164.573V247.581H166.189V241.085H169.517V247.581H171.133V240.733L169.933 239.533H166.845L165.949 240.429L165.053 239.533H162.141L161.245 240.429V239.533H159.629ZM155.773 247.581V246.685L154.877 247.581H151.773L150.605 246.413V243.869L151.773 242.701H155.773V241.005H152.381V242.125H150.765V240.685L151.933 239.533H156.237L157.389 240.685V247.581H155.773ZM152.221 246.109H155.773V244.189H152.221V246.109ZM108.029 247.581L106.812 246.381V240.733L108.029 239.533H112.333L113.549 240.733V244.221H108.429V246.077H111.933V244.941H113.549V246.381L112.333 247.581H108.029ZM108.429 242.765H111.933V241.037H108.429V242.765Z" fill="url(#paint2_linear_10345_686)"/>
<path fill-rule="evenodd" clip-rule="evenodd" d="M226.855 94.527L318.425 66.2838C337.39 60.4344 357.506 71.0667 363.356 90.0316C369.205 108.997 358.573 129.112 339.608 134.962C329.438 138.099 318.937 136.496 310.482 131.41L270.102 143.864C265.981 152.829 258.207 160.068 248.037 163.205C229.072 169.054 208.956 158.422 203.107 139.457C197.257 120.492 207.89 100.376 226.855 94.527L226.855 94.527L226.855 94.527Z" fill="#061B12"/>
<path fill-rule="evenodd" clip-rule="evenodd" d="M236.321 118.252C236.212 117.898 235.836 117.7 235.482 117.809L229.668 119.603C229.314 119.712 229.115 120.087 229.224 120.441L231.216 126.898L224.76 128.889C224.406 128.998 224.207 129.374 224.316 129.728L226.11 135.542C226.219 135.896 226.595 136.095 226.949 135.986L233.405 133.994L235.395 140.45C235.505 140.804 235.88 141.002 236.234 140.893L242.049 139.099C242.403 138.99 242.601 138.615 242.492 138.261L240.501 131.806L246.957 129.815C247.311 129.705 247.509 129.33 247.4 128.976L245.607 123.161C245.497 122.807 245.122 122.609 244.768 122.718L238.312 124.709L236.321 118.252Z" fill="#06170F"/>
<path d="M236.321 118.252L235.843 118.4L236.321 118.252ZM229.224 120.441L229.702 120.294L229.224 120.441ZM231.216 126.898L231.363 127.376L231.841 127.228L231.693 126.75L231.216 126.898ZM233.405 133.994L233.882 133.847L233.735 133.369L233.257 133.517L233.405 133.994ZM235.395 140.45L235.873 140.302L235.395 140.45ZM242.492 138.261L242.014 138.408L242.492 138.261ZM240.501 131.806L240.354 131.328L239.876 131.475L240.023 131.953L240.501 131.806ZM247.4 128.976L246.922 129.123L247.4 128.976ZM245.607 123.161L246.084 123.014L245.607 123.161ZM238.312 124.709L237.835 124.856L237.982 125.334L238.46 125.187L238.312 124.709ZM235.63 118.287C235.72 118.259 235.815 118.31 235.843 118.4L236.799 118.105C236.608 117.487 235.953 117.141 235.335 117.331L235.63 118.287ZM229.815 120.08L235.63 118.287L235.335 117.331L229.52 119.125L229.815 120.08ZM229.702 120.294C229.674 120.204 229.725 120.108 229.815 120.08L229.52 119.125C228.902 119.315 228.556 119.971 228.747 120.589L229.702 120.294ZM231.693 126.75L229.702 120.294L228.747 120.589L230.738 127.045L231.693 126.75ZM224.907 129.367L231.363 127.376L231.068 126.42L224.612 128.411L224.907 129.367ZM224.794 129.58C224.766 129.49 224.817 129.395 224.907 129.367L224.612 128.411C223.994 128.602 223.648 129.257 223.839 129.875L224.794 129.58ZM226.588 135.395L224.794 129.58L223.839 129.875L225.632 135.69L226.588 135.395ZM226.801 135.508C226.711 135.536 226.615 135.485 226.588 135.395L225.632 135.69C225.823 136.308 226.478 136.654 227.096 136.463L226.801 135.508ZM233.257 133.517L226.801 135.508L227.096 136.463L233.552 134.472L233.257 133.517ZM235.873 140.302L233.882 133.847L232.927 134.142L234.918 140.597L235.873 140.302ZM236.087 140.415C235.997 140.443 235.901 140.392 235.873 140.302L234.918 140.597C235.108 141.215 235.764 141.561 236.382 141.371L236.087 140.415ZM241.902 138.622L236.087 140.415L236.382 141.371L242.196 139.577L241.902 138.622ZM242.014 138.408C242.042 138.498 241.992 138.594 241.902 138.622L242.196 139.577C242.814 139.387 243.161 138.731 242.97 138.113L242.014 138.408ZM240.023 131.953L242.014 138.408L242.97 138.113L240.979 131.658L240.023 131.953ZM246.809 129.337L240.354 131.328L240.649 132.283L247.104 130.292L246.809 129.337ZM246.922 129.123C246.95 129.213 246.9 129.309 246.809 129.337L247.104 130.292C247.722 130.102 248.068 129.446 247.878 128.829L246.922 129.123ZM245.129 123.308L246.922 129.123L247.878 128.829L246.084 123.014L245.129 123.308ZM244.915 123.196C245.005 123.168 245.101 123.218 245.129 123.308L246.084 123.014C245.894 122.396 245.238 122.049 244.621 122.24L244.915 123.196ZM238.46 125.187L244.915 123.196L244.621 122.24L238.165 124.231L238.46 125.187ZM235.843 118.4L237.835 124.856L238.79 124.562L236.799 118.105L235.843 118.4Z" fill="#12915A"/>
<path fill-rule="evenodd" clip-rule="evenodd" d="M226.719 94.0695L226.261 94.2106L226.262 94.2135C207.331 100.321 196.774 120.533 202.655 139.598C202.807 140.093 202.969 140.581 203.14 141.065C203.409 142.786 203.805 144.509 204.333 146.222C210.261 165.439 230.644 176.213 249.862 170.286C260.094 167.13 267.932 159.876 272.13 150.883L312.104 138.554C320.638 143.62 331.201 145.199 341.433 142.043C360.65 136.116 371.424 115.732 365.497 96.5144C365.344 96.02 365.182 95.5312 365.011 95.048C364.742 93.3269 364.346 91.604 363.818 89.8904C357.891 70.6729 337.507 59.8991 318.289 65.8263L226.719 94.0695ZM365.442 100.146C365.655 115.888 355.56 130.544 339.754 135.419C329.522 138.575 318.959 136.996 310.425 131.93L270.451 144.259C266.253 153.252 258.415 160.506 248.183 163.662C231.142 168.918 213.185 161.042 205.202 145.791C205.217 145.841 205.233 145.89 205.248 145.94C211.019 164.652 230.867 175.143 249.58 169.372C259.614 166.277 267.285 159.134 271.351 150.288L271.44 150.094L271.645 150.031L312.025 137.576L312.229 137.513L312.413 137.624C320.756 142.642 331.116 144.223 341.151 141.128C358.75 135.7 369.076 117.821 365.442 100.146ZM204.072 140.829C210.422 158.589 229.699 168.362 247.901 162.748C257.936 159.653 265.606 152.51 269.672 143.664L269.761 143.47L269.966 143.407L310.346 130.952L310.55 130.889L310.734 131C319.077 136.018 329.437 137.599 339.472 134.504C358.184 128.733 368.675 108.885 362.903 90.1724C357.132 71.46 337.284 60.9693 318.571 66.7408L227.458 94.8429L227.458 94.843L227.001 94.984C208.288 100.755 197.797 120.604 203.569 139.316C203.698 139.733 203.833 140.146 203.975 140.554L204.03 140.547C204.044 140.641 204.058 140.735 204.072 140.829ZM320.672 74.738C306.385 79.1446 298.375 94.299 302.781 108.586C307.188 122.874 322.342 130.883 336.63 126.477C350.917 122.07 358.927 106.916 354.52 92.6285C350.114 78.3412 334.959 70.3314 320.672 74.738ZM301.867 108.868C297.305 94.076 305.598 78.386 320.39 73.8236C335.182 69.2612 350.872 77.5542 355.435 92.3464C359.997 107.139 351.704 122.829 336.912 127.391C322.119 131.954 306.429 123.661 301.867 108.868ZM215.559 135.488C212.128 124.362 218.365 112.56 229.492 109.128C240.618 105.697 252.42 111.935 255.852 123.061C259.283 134.187 253.046 145.989 241.919 149.421C230.793 152.853 218.991 146.615 215.559 135.488ZM229.21 108.214C217.578 111.802 211.057 124.139 214.645 135.77C218.232 147.402 230.57 153.923 242.201 150.335C253.833 146.748 260.354 134.41 256.766 122.779C253.179 111.148 240.841 104.627 229.21 108.214ZM331.511 93.7938L322.891 110.103C320.851 113.962 316.069 115.437 312.209 113.397C308.349 111.357 306.874 106.575 308.914 102.715L317.534 86.4065C319.574 82.547 324.357 81.0719 328.216 83.1119C332.076 85.1518 333.551 89.9343 331.511 93.7938ZM327.769 83.9579C324.377 82.1649 320.173 83.4614 318.38 86.8537L309.76 103.163C307.967 106.555 309.264 110.758 312.656 112.551C316.048 114.344 320.252 113.048 322.045 109.656L330.665 93.3467C332.458 89.9544 331.162 85.7509 327.769 83.9579ZM328.491 92.3334C327.347 94.4981 324.665 95.3254 322.5 94.1813C320.335 93.0371 319.508 90.3548 320.652 88.1901C321.796 86.0254 324.479 85.198 326.644 86.3422C328.808 87.4863 329.636 90.1687 328.491 92.3334ZM329.337 92.7806C327.946 95.4125 324.685 96.4184 322.053 95.0273C319.421 93.6362 318.415 90.3749 319.806 87.7429C321.197 85.1109 324.459 84.1051 327.091 85.4962C329.723 86.8873 330.729 90.1486 329.337 92.7806ZM313.99 110.279C316.155 111.423 318.837 110.596 319.981 108.431C321.125 106.267 320.298 103.584 318.133 102.44C315.969 101.296 313.286 102.123 312.142 104.288C310.998 106.453 311.825 109.135 313.99 110.279ZM313.543 111.125C316.175 112.516 319.436 111.51 320.827 108.878C322.218 106.246 321.212 102.985 318.581 101.594C315.949 100.203 312.687 101.209 311.296 103.841C309.905 106.473 310.911 109.734 313.543 111.125ZM339.718 114.663L348.338 98.3538C350.378 94.4943 348.903 89.7118 345.044 87.6718C341.184 85.6319 336.402 87.1069 334.362 90.9665L325.742 107.275C323.702 111.135 325.177 115.917 329.036 117.957C332.896 119.997 337.678 118.522 339.718 114.663ZM335.208 91.4136C337.001 88.0213 341.204 86.7248 344.597 88.5178C347.989 90.3108 349.285 94.5143 347.492 97.9066L338.872 114.215C337.079 117.608 332.876 118.904 329.484 117.111C326.091 115.318 324.795 111.115 326.588 107.722L335.208 91.4136ZM339.328 98.7412C341.492 99.8854 344.175 99.0581 345.319 96.8934C346.463 94.7286 345.636 92.0463 343.471 90.9021C341.306 89.758 338.624 90.5853 337.48 92.75C336.335 94.9147 337.163 97.5971 339.328 98.7412ZM338.88 99.5872C341.512 100.978 344.774 99.9725 346.165 97.3405C347.556 94.7086 346.55 91.4472 343.918 90.0561C341.286 88.665 338.025 89.6709 336.634 92.3028C335.242 94.9348 336.248 98.1961 338.88 99.5872ZM336.812 112.991C335.668 115.156 332.986 115.983 330.821 114.839C328.656 113.695 327.829 111.012 328.973 108.848C330.117 106.683 332.8 105.856 334.964 107C337.129 108.144 337.956 110.826 336.812 112.991ZM337.658 113.438C336.267 116.07 333.006 117.076 330.374 115.685C327.742 114.294 326.736 111.033 328.127 108.401C329.518 105.769 332.78 104.763 335.412 106.154C338.044 107.545 339.049 110.806 337.658 113.438ZM272.086 134.167C270.777 133.475 270.276 131.852 270.968 130.543L275.774 121.451C276.466 120.141 278.089 119.641 279.398 120.333C280.708 121.025 281.208 122.648 280.516 123.958L275.711 133.05C275.019 134.359 273.396 134.86 272.086 134.167ZM271.814 130.99C271.369 131.832 271.691 132.876 272.533 133.321C273.376 133.767 274.42 133.445 274.865 132.602L279.67 123.511C280.115 122.668 279.794 121.624 278.951 121.179C278.109 120.734 277.065 121.056 276.62 121.898L271.814 130.99ZM285.934 125.928C285.242 127.238 285.742 128.861 287.052 129.553C288.361 130.245 289.984 129.745 290.676 128.435L295.482 119.343C296.174 118.034 295.674 116.411 294.364 115.719C293.054 115.027 291.432 115.527 290.739 116.837L285.934 125.928ZM287.499 128.707C286.657 128.262 286.335 127.218 286.78 126.376L291.585 117.284C292.031 116.442 293.074 116.12 293.917 116.565C294.759 117.01 295.081 118.054 294.636 118.896L289.83 127.988C289.385 128.83 288.341 129.152 287.499 128.707Z" fill="url(#paint3_linear_10345_686)"/>
<rect x="266.195" y="97.6338" width="20.2016" height="8.35929" rx="4.17965" transform="rotate(-17.1413 266.195 97.6338)" stroke="#29D389"/>
<path d="M183.502 347.5L181.727 345.725V343.45H184.252V345.2H189.727V342.325H183.402L181.802 340.7V336.7L183.577 334.925H190.402L192.202 336.7V338.85H189.677V337.225H184.327V339.975H190.652L192.252 341.575V345.725L190.477 347.5H183.502Z" fill="white"/>
<path d="M170.13 347.5L168.23 345.625V336.8L170.13 334.925H176.855L178.755 336.8V342.25H170.755V345.15H176.23V343.375H178.755V345.625L176.855 347.5H170.13ZM170.755 339.975H176.23V337.275H170.755V339.975Z" fill="white"/>
<path d="M146.996 347.5V334.925H149.521V336.325L150.921 334.925H155.471L156.871 336.325L158.271 334.925H163.096L164.971 336.8V347.5H162.446V337.35H157.246V347.5H154.721V337.35H149.521V347.5H146.996Z" fill="white"/>
<path d="M140.973 347.5V346.1L139.573 347.5H134.723L132.898 345.675V341.7L134.723 339.875H140.973V337.225H135.673V338.975H133.148V336.725L134.973 334.925H141.698L143.498 336.725V347.5H140.973ZM135.423 345.2H140.973V342.2H135.423V345.2Z" fill="white"/>
<path d="M118.358 347.5L116.258 345.425V332.075L118.358 330H127.708L129.783 332.075V335.5H127.158V332.525H118.883V344.975H127.158V340.5H122.708V337.975H129.783V345.425L127.708 347.5H118.358Z" fill="white"/>
<path d="M94.5516 347.5L92.4766 345.425V341.65H95.1016V345H103.102V339.875H96.4766V337.375H103.102V332.5H95.1266V335.775H92.5016V332.075L94.5766 330H103.652L105.727 332.075V337.225L104.127 338.625L105.727 340.025V345.425L103.652 347.5H94.5516Z" fill="white"/>
<path d="M78.2695 347.5V330H80.7945V336.325L82.1945 334.925H87.1945L89.0945 336.8V345.625L87.1945 347.5H82.1945L80.7945 346.1V347.5H78.2695ZM80.7945 345.075H86.5695V337.35H80.7945V345.075Z" fill="white"/>
<path d="M66.3688 347.5L64.4688 345.625V336.8L66.3688 334.925H73.0938L74.9937 336.8V342.25H66.9937V345.15H72.4688V343.375H74.9937V345.625L73.0938 347.5H66.3688ZM66.9937 339.975H72.4688V337.275H66.9937V339.975Z" fill="white"/>
<path d="M45.2984 347.5L40.5234 330H43.3234L46.6484 343.075L50.7484 330H52.9984L57.0984 343.075L60.4234 330H63.1484L58.3734 347.5H55.8984L51.8234 334.8L47.7734 347.5H45.2984Z" fill="white"/>
<path d="M324.192 315.5V305.275H321.492V302.925H324.192V299.875L326.067 298H331.267V300.3H326.717V302.925H331.267V305.275H326.717V315.5H324.192Z" fill="white"/>
<path d="M310.486 315.5L308.586 313.625V304.8L310.486 302.925H317.536L319.411 304.8V313.625L317.536 315.5H310.486ZM311.111 313.1H316.886V305.325H311.111V313.1Z" fill="white"/>
<path d="M290.025 315.5L288.125 313.625V304.8L290.025 302.925H296.75L298.65 304.8V310.25H290.65V313.15H296.125V311.375H298.65V313.625L296.75 315.5H290.025ZM290.65 307.975H296.125V305.275H290.65V307.975Z" fill="white"/>
<path d="M276.763 302.925V313.075H282.288V302.925H284.813V315.5H282.288V314.1L280.888 315.5H276.113L274.238 313.625V302.925H276.763Z" fill="white"/>
<path d="M268.164 315.5V298H270.689V315.5H268.164Z" fill="white"/>
<path d="M262.091 315.5V314.1L260.691 315.5H255.841L254.016 313.675V309.7L255.841 307.875H262.091V305.225H256.791V306.975H254.266V304.725L256.091 302.925H262.816L264.616 304.725V315.5H262.091ZM256.541 313.2H262.091V310.2H256.541V313.2Z" fill="white"/>
<path d="M245.486 315.5L240.461 302.925H243.136L246.586 312L250.011 302.925H252.636L247.611 315.5H245.486Z" fill="white"/>
<path d="M231.665 315.5H229.14V314.1L227.74 315.5H222.74L220.84 313.625V304.8L222.74 302.925H227.74L229.14 304.325V298H231.665V315.5ZM223.365 313.075H229.14V305.35H223.365V313.075Z" fill="white"/>
<path d="M215.054 315.5V305.35H209.529V315.5H207.004V302.925H209.529V304.325L210.929 302.925H215.704L217.579 304.8V315.5H215.054Z" fill="white"/>
<path d="M200.985 315.5V314.1L199.585 315.5H194.735L192.91 313.675V309.7L194.735 307.875H200.985V305.225H195.685V306.975H193.16V304.725L194.985 302.925H201.71L203.51 304.725V315.5H200.985ZM195.435 313.2H200.985V310.2H195.435V313.2Z" fill="white"/>
<path d="M180.386 315.5V305.35H174.861V315.5H172.336V302.925H174.861V304.325L176.261 302.925H181.036L182.911 304.8V315.5H180.386Z" fill="white"/>
<path d="M160.724 302.925V313.075H166.249V302.925H168.774V315.5H166.249V314.1L164.849 315.5H160.074L158.199 313.625V302.925H160.724Z" fill="white"/>
<path d="M149.266 315.5V305.275H146.566V302.925H149.266V299.875L151.141 298H156.341V300.3H151.791V302.925H156.341V305.275H151.791V315.5H149.266Z" fill="white"/>
<path d="M132.298 315.5V305.275H129.598V302.925H132.298V299.875L134.173 298H139.373V300.3H134.823V302.925H139.373V305.275H134.823V315.5H132.298Z" fill="white"/>
<path d="M118.591 315.5L116.691 313.625V304.8L118.591 302.925H125.641L127.516 304.8V313.625L125.641 315.5H118.591ZM119.216 313.1H124.991V305.325H119.216V313.1Z" fill="white"/>
<path d="M98.0797 315.5L96.3047 313.725V311.45H98.8297V313.2H104.305V310.325H97.9797L96.3797 308.7V304.7L98.1547 302.925H104.98L106.78 304.7V306.85H104.255V305.225H98.9047V307.975H105.23L106.83 309.575V313.725L105.055 315.5H98.0797Z" fill="white"/>
<path d="M75.1914 315.5V302.925H77.7164V304.325L79.1164 302.925H83.6664L85.0664 304.325L86.4664 302.925H91.2914L93.1664 304.8V315.5H90.6414V305.35H85.4414V315.5H82.9164V305.35H77.7164V315.5H75.1914Z" fill="white"/>
<path d="M65.3281 315.5V302.925H67.8531V304.325L69.2531 302.925H73.1531V305.35H67.8531V315.5H65.3281Z" fill="white"/>
<path d="M53.0875 315.5L51.1875 313.625V304.8L53.0875 302.925H60.1375L62.0125 304.8V313.625L60.1375 315.5H53.0875ZM53.7125 313.1H59.4875V305.325H53.7125V313.1Z" fill="white"/>
<path d="M42.7 315.5V305.275H40V302.925H42.7V299.875L44.575 298H49.775V300.3H45.225V302.925H49.775V305.275H45.225V315.5H42.7Z" fill="white"/>
<path d="M284.949 283.5L280.824 270.925H283.499L286.099 279.85L289.149 270.925H291.199L294.249 279.85L296.849 270.925H299.449L295.324 283.5H293.224L290.149 274.85L287.049 283.5H284.949Z" fill="white"/>
<path d="M270.396 283.5L268.496 281.625V272.8L270.396 270.925H277.121L279.021 272.8V278.25H271.021V281.15H276.496V279.375H279.021V281.625L277.121 283.5H270.396ZM271.021 275.975H276.496V273.275H271.021V275.975Z" fill="white"/>
<path d="M262.71 283.5V273.35H257.185V283.5H254.66V270.925H257.185V272.325L258.585 270.925H263.36L265.235 272.8V283.5H262.71Z" fill="white"/>
<path d="M235.391 288L233.616 286.225V284.225H236.116V285.65H241.691V281.675L240.291 283.075H235.291L233.391 281.175V272.8L235.291 270.925H240.291L241.691 272.325V270.925H244.216V286.225L242.441 288H235.391ZM235.916 280.65H241.691V273.35H235.916V280.65Z" fill="white"/>
<path d="M227.628 283.5V273.35H222.103V283.5H219.578V270.925H222.103V272.325L223.503 270.925H228.278L230.153 272.8V283.5H227.628Z" fill="white"/>
<path d="M213.449 283.5V270.925H215.974V283.5H213.449ZM213.449 269.15V266.175H215.974V269.15H213.449Z" fill="white"/>
<path d="M205.423 283.5L203.548 281.625V273.275H200.773V270.925H203.548V267.375H206.073V270.925H210.623V273.275H206.073V281.1H210.623V283.5H205.423Z" fill="white"/>
<path d="M196.102 283.5V282.1L194.702 283.5H189.852L188.027 281.675V277.7L189.852 275.875H196.102V273.225H190.802V274.975H188.277V272.725L190.102 270.925H196.827L198.627 272.725V283.5H196.102ZM190.552 281.2H196.102V278.2H190.552V281.2Z" fill="white"/>
<path d="M176.502 283.5L174.602 281.625V272.8L176.502 270.925H183.227L185.127 272.8V278.25H177.127V281.15H182.602V279.375H185.127V281.625L183.227 283.5H176.502ZM177.127 275.975H182.602V273.275H177.127V275.975Z" fill="white"/>
<path d="M165.281 283.5V270.925H167.806V272.325L169.206 270.925H173.106V273.35H167.806V283.5H165.281Z" fill="white"/>
<path d="M153.502 283.5L151.602 281.625V272.8L153.502 270.925H160.302L162.177 272.8V275.725H159.652V273.325H154.127V281.1H159.652V278.7H162.177V281.625L160.302 283.5H153.502Z" fill="white"/>
<path d="M138.933 283.5V273.35H133.408V283.5H130.883V270.925H133.408V272.325L134.808 270.925H139.583L141.458 272.8V283.5H138.933Z" fill="white"/>
<path d="M118.638 283.5L116.738 281.625V272.8L118.638 270.925H125.688L127.563 272.8V281.625L125.688 283.5H118.638ZM119.263 281.1H125.038V273.325H119.263V281.1Z" fill="white"/>
<path d="M98.1266 283.5L96.3516 281.725V279.45H98.8766V281.2H104.352V278.325H98.0266L96.4266 276.7V272.7L98.2016 270.925H105.027L106.827 272.7V274.85H104.302V273.225H98.9516V275.975H105.277L106.877 277.575V281.725L105.102 283.5H98.1266Z" fill="white"/>
<path d="M85.0914 270.925V281.075H90.6164V270.925H93.1414V283.5H90.6164V282.1L89.2164 283.5H84.4414L82.5664 281.625V270.925H85.0914Z" fill="white"/>
<path d="M70.8141 283.5L68.9141 281.625V272.8L70.8141 270.925H77.6141L79.4891 272.8V275.725H76.9641V273.325H71.4391V281.1H76.9641V278.7H79.4891V281.625L77.6141 283.5H70.8141Z" fill="white"/>
<path d="M56.9195 283.5L55.0195 281.625V272.8L56.9195 270.925H63.9695L65.8445 272.8V281.625L63.9695 283.5H56.9195ZM57.5445 281.1H63.3195V273.325H57.5445V281.1Z" fill="white"/>
<path d="M41.8242 283.5V266H54.0242V268.5H44.4492V273.5H52.1242V276H44.4492V283.5H41.8242Z" fill="white"/>
</g>
<defs>
<filter id="filter0_f_10345_686" x="-222.708" y="-457.566" width="1147.3" height="975.19" filterUnits="userSpaceOnUse" color-interpolation-filters="sRGB">
<feFlood flood-opacity="0" result="BackgroundImageFix"/>
<feBlend mode="normal" in="SourceGraphic" in2="BackgroundImageFix" result="shape"/>
<feGaussianBlur stdDeviation="179.481" result="effect1_foregroundBlur_10345_686"/>
</filter>
<linearGradient id="paint0_linear_10345_686" x1="-30.633" y1="384.627" x2="433.18" y2="9.71323" gradientUnits="userSpaceOnUse">
<stop stop-color="#DCF507"/>
<stop offset="0.05" stop-color="#D3F50F"/>
<stop offset="0.12" stop-color="#BDF627"/>
<stop offset="0.22" stop-color="#99F84D"/>
<stop offset="0.33" stop-color="#66FA82"/>
<stop offset="0.45" stop-color="#26FDC5"/>
<stop offset="0.5" stop-color="#0CFFE2"/>
<stop offset="0.62" stop-color="#1AFFC4"/>
<stop offset="1" stop-color="#49FF66"/>
</linearGradient>
<linearGradient id="paint1_linear_10345_686" x1="103.206" y1="150.018" x2="396.576" y2="-245.765" gradientUnits="userSpaceOnUse">
<stop stop-color="#DCF507"/>
<stop offset="0.05" stop-color="#D3F50F"/>
<stop offset="0.12" stop-color="#BDF627"/>
<stop offset="0.22" stop-color="#99F84D"/>
<stop offset="0.33" stop-color="#66FA82"/>
<stop offset="0.45" stop-color="#26FDC5"/>
<stop offset="0.5" stop-color="#0CFFE2"/>
<stop offset="0.62" stop-color="#1AFFC4"/>
<stop offset="1" stop-color="#49FF66"/>
</linearGradient>
<linearGradient id="paint2_linear_10345_686" x1="22.9369" y1="249.957" x2="27.2309" y2="207.533" gradientUnits="userSpaceOnUse">
<stop stop-color="#DCF507"/>
<stop offset="0.05" stop-color="#D3F50F"/>
<stop offset="0.12" stop-color="#BDF627"/>
<stop offset="0.22" stop-color="#99F84D"/>
<stop offset="0.33" stop-color="#66FA82"/>
<stop offset="0.45" stop-color="#26FDC5"/>
<stop offset="0.5" stop-color="#0CFFE2"/>
<stop offset="0.62" stop-color="#1AFFC4"/>
<stop offset="1" stop-color="#49FF66"/>
</linearGradient>
<linearGradient id="paint3_linear_10345_686" x1="300.784" y1="71.0717" x2="293.195" y2="146.943" gradientUnits="userSpaceOnUse">
<stop stop-color="#38FFA9"/>
<stop offset="1" stop-color="#02653A"/>
</linearGradient>
</defs>
</svg>
