<svg width="398" height="398" viewBox="0 0 398 398" fill="none" xmlns="http://www.w3.org/2000/svg">
<rect x="0.448703" y="0.448703" width="397.103" height="397.103" rx="35.4475" fill="black" stroke="#315C4A" stroke-width="0.897406"/>
<mask id="mask0_10416_76425" style="mask-type:alpha" maskUnits="userSpaceOnUse" x="0" y="0" width="398" height="398">
<path d="M35.8962 0.5632H362.104C381.618 0.5632 397.437 16.3823 397.437 35.8962V362.104C397.437 381.618 381.618 397.437 362.104 397.437H35.8962C16.3823 397.437 0.5632 381.618 0.5632 362.104V35.8962C0.5632 16.3823 16.3823 0.5632 35.8962 0.5632Z" fill="black" stroke="#2DFFA0" stroke-width="1.1264"/>
</mask>
<g mask="url(#mask0_10416_76425)">
<g filter="url(#filter0_f_10416_76425)">
<ellipse cx="350.941" cy="30.0294" rx="214.687" ry="128.633" fill="url(#paint0_linear_10416_76425)" fill-opacity="0.25"/>
</g>
</g>
<path d="M325.995 346.72V336.57H320.47V346.72H317.945V334.145H320.47V335.545L321.87 334.145H326.645L328.52 336.02V346.72H325.995Z" fill="white"/>
<path d="M311.82 346.72V334.145H314.345V346.72H311.82ZM311.82 332.37V329.395H314.345V332.37H311.82Z" fill="white"/>
<path d="M305.747 346.72V345.32L304.347 346.72H299.497L297.672 344.895V340.92L299.497 339.095H305.747V336.445H300.447V338.195H297.922V335.945L299.747 334.145H306.472L308.272 335.945V346.72H305.747ZM300.197 344.42H305.747V341.42H300.197V344.42Z" fill="white"/>
<path d="M284.012 329.22H286.537V335.545L287.937 334.145H292.712L294.587 336.02V346.72H292.062V336.57H286.537V346.72H284.012V329.22Z" fill="white"/>
<path d="M272.232 346.72L270.332 344.845V336.02L272.232 334.145H279.032L280.907 336.02V338.945H278.382V336.545H272.857V344.32H278.382V341.92H280.907V344.845L279.032 346.72H272.232Z" fill="white"/>
<path d="M258.199 340.295V337.97H267.149V340.295H258.199Z" fill="white"/>
<path d="M252.39 346.72V336.57H246.865V346.72H244.34V334.145H246.865V335.545L248.265 334.145H253.04L254.915 336.02V346.72H252.39Z" fill="white"/>
<path d="M232.095 346.72L230.195 344.845V336.02L232.095 334.145H239.145L241.02 336.02V344.845L239.145 346.72H232.095ZM232.72 344.32H238.495V336.545H232.72V344.32Z" fill="white"/>
<path d="M217.527 346.72V336.57H212.002V346.72H209.477V334.145H212.002V335.545L213.402 334.145H218.177L220.052 336.02V346.72H217.527Z" fill="white"/>
<path d="M197.576 346.72L195.676 344.845V336.02L197.576 334.145H204.301L206.201 336.02V341.47H198.201V344.37H203.676V342.595H206.201V344.845L204.301 346.72H197.576ZM198.201 339.195H203.676V336.495H198.201V339.195Z" fill="white"/>
<path d="M182.301 346.72V329.22H184.826V339.995L190.501 334.145H193.676L189.476 338.62L193.901 346.72H191.076L187.701 340.295L184.826 343.195V346.72H182.301Z" fill="white"/>
<path d="M170.06 346.72L168.16 344.845V336.02L170.06 334.145H177.11L178.985 336.02V344.845L177.11 346.72H170.06ZM170.685 344.32H176.46V336.545H170.685V344.32Z" fill="white"/>
<path d="M160.505 346.72L158.63 344.845V336.495H155.855V334.145H158.63V330.595H161.155V334.145H165.705V336.495H161.155V344.32H165.705V346.72H160.505Z" fill="white"/>
<path d="M137.934 351.22L136.159 349.445V347.445H138.659V348.87H144.234V344.895L142.834 346.295H137.834L135.934 344.395V336.02L137.834 334.145H142.834L144.234 335.545V334.145H146.759V349.445L144.984 351.22H137.934ZM138.459 343.87H144.234V336.57H138.459V343.87Z" fill="white"/>
<path d="M130.171 346.72V336.57H124.646V346.72H122.121V334.145H124.646V335.545L126.046 334.145H130.821L132.696 336.02V346.72H130.171Z" fill="white"/>
<path d="M115.996 346.72V334.145H118.521V346.72H115.996ZM115.996 332.37V329.395H118.521V332.37H115.996Z" fill="white"/>
<path d="M104.241 351.22L106.616 345.77L101.891 334.145H104.566L107.991 342.82L111.391 334.145H114.066L106.866 351.22H104.241Z" fill="white"/>
<path d="M91.4234 346.72L89.5234 344.845V336.02L91.4234 334.145H98.4734L100.348 336.02V344.845L98.4734 346.72H91.4234ZM92.0484 344.32H97.8234V336.545H92.0484V344.32Z" fill="white"/>
<path d="M83.6445 346.72V329.22H86.1695V346.72H83.6445Z" fill="white"/>
<path d="M69.4609 351.22V334.145H71.9859V335.545L73.3859 334.145H78.3859L80.2859 336.02V344.845L78.3859 346.72H73.3859L71.9859 345.32V351.22H69.4609ZM71.9859 344.295H77.7609V336.57H71.9859V344.295Z" fill="white"/>
<path d="M57.5602 346.72L55.6602 344.845V336.02L57.5602 334.145H64.2852L66.1852 336.02V341.47H58.1852V344.37H63.6602V342.595H66.1852V344.845L64.2852 346.72H57.5602ZM58.1852 339.195H63.6602V336.495H58.1852V339.195Z" fill="white"/>
<path d="M52.3484 346.72H49.8234V345.32L48.4234 346.72H43.4234L41.5234 344.845V336.02L43.4234 334.145H48.4234L49.8234 335.545V329.22H52.3484V346.72ZM44.0484 344.295H49.8234V336.57H44.0484V344.295Z" fill="white"/>
<path d="M304.595 314.72L302.72 312.845V304.495H299.945V302.145H302.72V298.595H305.245V302.145H309.795V304.495H305.245V312.32H309.795V314.72H304.595Z" fill="white"/>
<path d="M289.685 302.145V312.295H295.21V302.145H297.735V314.72H295.21V313.32L293.81 314.72H289.035L287.16 312.845V302.145H289.685Z" fill="white"/>
<path d="M274.966 314.72L273.066 312.845V304.02L274.966 302.145H282.016L283.891 304.02V312.845L282.016 314.72H274.966ZM275.591 312.32H281.366V304.545H275.591V312.32Z" fill="white"/>
<path d="M259.184 314.72V297.22H261.709V303.545L263.109 302.145H268.109L270.009 304.02V312.845L268.109 314.72H263.109L261.709 313.32V314.72H259.184ZM261.709 312.295H267.484V304.57H261.709V312.295Z" fill="white"/>
<path d="M253.161 314.72V313.32L251.761 314.72H246.911L245.086 312.895V308.92L246.911 307.095H253.161V304.445H247.861V306.195H245.336V303.945L247.161 302.145H253.886L255.686 303.945V314.72H253.161ZM247.611 312.42H253.161V309.42H247.611V312.42Z" fill="white"/>
<path d="M226.215 319.22L224.44 317.445V315.445H226.94V316.87H232.515V312.895L231.115 314.295H226.115L224.215 312.395V304.02L226.115 302.145H231.115L232.515 303.545V302.145H235.04V317.445L233.265 319.22H226.215ZM226.74 311.87H232.515V304.57H226.74V311.87Z" fill="white"/>
<path d="M218.452 314.72V304.57H212.927V314.72H210.402V302.145H212.927V303.545L214.327 302.145H219.102L220.977 304.02V314.72H218.452Z" fill="white"/>
<path d="M204.277 314.72V302.145H206.802V314.72H204.277ZM204.277 300.37V297.395H206.802V300.37H204.277Z" fill="white"/>
<path d="M192.522 319.22L194.897 313.77L190.172 302.145H192.847L196.272 310.82L199.672 302.145H202.347L195.147 319.22H192.522Z" fill="white"/>
<path d="M181.617 314.72V302.145H184.142V303.545L185.542 302.145H189.442V304.57H184.142V314.72H181.617Z" fill="white"/>
<path d="M171.754 314.72V302.145H174.279V303.545L175.679 302.145H179.579V304.57H174.279V314.72H171.754Z" fill="white"/>
<path d="M159.513 314.72L157.613 312.845V304.02L159.513 302.145H166.563L168.438 304.02V312.845L166.563 314.72H159.513ZM160.138 312.32H165.913V304.545H160.138V312.32Z" fill="white"/>
<path d="M141.324 314.72L137.199 302.145H139.874L142.474 311.07L145.524 302.145H147.574L150.624 311.07L153.224 302.145H155.824L151.699 314.72H149.599L146.524 306.07L143.424 314.72H141.324Z" fill="white"/>
<path d="M123.81 314.72L121.935 312.845V304.495H119.16V302.145H121.935V298.595H124.46V302.145H129.01V304.495H124.46V312.32H129.01V314.72H123.81Z" fill="white"/>
<path d="M108.9 302.145V312.295H114.425V302.145H116.95V314.72H114.425V313.32L113.025 314.72H108.25L106.375 312.845V302.145H108.9Z" fill="white"/>
<path d="M94.1812 314.72L92.2812 312.845V304.02L94.1812 302.145H101.231L103.106 304.02V312.845L101.231 314.72H94.1812ZM94.8062 312.32H100.581V304.545H94.8062V312.32Z" fill="white"/>
<path d="M78.4453 297.22H80.9703V303.545L82.3703 302.145H87.1453L89.0203 304.02V314.72H86.4953V304.57H80.9703V314.72H78.4453V297.22Z" fill="white"/>
<path d="M70.4664 314.72L68.5914 312.845V304.495H65.8164V302.145H68.5914V298.595H71.1164V302.145H75.6664V304.495H71.1164V312.32H75.6664V314.72H70.4664Z" fill="white"/>
<path d="M61.0391 314.72V302.145H63.5641V314.72H61.0391ZM61.0391 300.37V297.395H63.5641V300.37H61.0391Z" fill="white"/>
<path d="M44.4258 314.72L40.3008 302.145H42.9758L45.5758 311.07L48.6258 302.145H50.6758L53.7258 311.07L56.3258 302.145H58.9258L54.8008 314.72H52.7008L49.6258 306.07L46.5258 314.72H44.4258Z" fill="white"/>
<path d="M346.224 282.72L344.349 280.845V272.495H341.574V270.145H344.349V266.595H346.874V270.145H351.424V272.495H346.874V280.32H351.424V282.72H346.224Z" fill="white"/>
<path d="M330.9 282.72L329 280.845V272.02L330.9 270.145H337.625L339.525 272.02V277.47H331.525V280.37H337V278.595H339.525V280.845L337.625 282.72H330.9ZM331.525 275.195H337V272.495H331.525V275.195Z" fill="white"/>
<path d="M315.629 282.72V265.22H318.154V275.995L323.829 270.145H327.004L322.804 274.62L327.229 282.72H324.404L321.029 276.295L318.154 279.195V282.72H315.629Z" fill="white"/>
<path d="M305.766 282.72V270.145H308.291V271.545L309.691 270.145H313.591V272.57H308.291V282.72H305.766Z" fill="white"/>
<path d="M299.743 282.72V281.32L298.343 282.72H293.493L291.668 280.895V276.92L293.493 275.095H299.743V272.445H294.443V274.195H291.918V271.945L293.743 270.145H300.468L302.268 271.945V282.72H299.743ZM294.193 280.42H299.743V277.42H294.193V280.42Z" fill="white"/>
<path d="M270.609 282.72V270.145H273.134V271.545L274.534 270.145H279.084L280.484 271.545L281.884 270.145H286.709L288.584 272.02V282.72H286.059V272.57H280.859V282.72H278.334V272.57H273.134V282.72H270.609Z" fill="white"/>
<path d="M248.95 282.72L246.875 280.645V276.87H249.5V280.22H257.5V275.095H250.875V272.595H257.5V267.72H249.525V270.995H246.9V267.295L248.975 265.22H258.05L260.125 267.295V272.445L258.525 273.845L260.125 275.245V280.645L258.05 282.72H248.95Z" fill="white"/>
<path d="M232.668 282.72V265.22H235.193V271.545L236.593 270.145H241.593L243.493 272.02V280.845L241.593 282.72H236.593L235.193 281.32V282.72H232.668ZM235.193 280.295H240.968V272.57H235.193V280.295Z" fill="white"/>
<path d="M220.767 282.72L218.867 280.845V272.02L220.767 270.145H227.492L229.392 272.02V277.47H221.392V280.37H226.867V278.595H229.392V280.845L227.492 282.72H220.767ZM221.392 275.195H226.867V272.495H221.392V275.195Z" fill="white"/>
<path d="M199.697 282.72L194.922 265.22H197.722L201.047 278.295L205.147 265.22H207.397L211.497 278.295L214.822 265.22H217.547L212.772 282.72H210.297L206.222 270.02L202.172 282.72H199.697Z" fill="white"/>
<path d="M181.134 282.72L179.259 280.845V272.495H176.484V270.145H179.259V266.595H181.784V270.145H186.334V272.495H181.784V280.32H186.334V282.72H181.134Z" fill="white"/>
<path d="M165.814 282.72L163.914 280.845V272.02L165.814 270.145H172.539L174.439 272.02V277.47H166.439V280.37H171.914V278.595H174.439V280.845L172.539 282.72H165.814ZM166.439 275.195H171.914V272.495H166.439V275.195Z" fill="white"/>
<path d="M151.777 287.22L150.002 285.445V283.445H152.502V284.87H158.077V280.895L156.677 282.295H151.677L149.777 280.395V272.02L151.677 270.145H156.677L158.077 271.545V270.145H160.602V285.445L158.827 287.22H151.777ZM152.302 279.87H158.077V272.57H152.302V279.87Z" fill="white"/>
<path d="M140.457 282.72V270.145H142.982V271.545L144.382 270.145H148.282V272.57H142.982V282.72H140.457Z" fill="white"/>
<path d="M134.434 282.72V281.32L133.034 282.72H128.184L126.359 280.895V276.92L128.184 275.095H134.434V272.445H129.134V274.195H126.609V271.945L128.434 270.145H135.159L136.959 271.945V282.72H134.434ZM128.884 280.42H134.434V277.42H128.884V280.42Z" fill="white"/>
<path d="M118.783 282.72L116.908 280.845V272.495H114.133V270.145H116.908V266.595H119.433V270.145H123.983V272.495H119.433V280.32H123.983V282.72H118.783Z" fill="white"/>
<path d="M96.8695 287.22L99.2445 281.77L94.5195 270.145H97.1945L100.62 278.82L104.02 270.145H106.695L99.4945 287.22H96.8695Z" fill="white"/>
<path d="M90.043 282.72V265.22H92.568V282.72H90.043Z" fill="white"/>
<path d="M83.8398 282.72V270.145H86.3648V282.72H83.8398ZM83.8398 268.37V265.395H86.3648V268.37H83.8398Z" fill="white"/>
<path d="M71.8375 282.72L70.0625 280.945V278.67H72.5875V280.42H78.0625V277.545H71.7375L70.1375 275.92V271.92L71.9125 270.145H78.7375L80.5375 271.92V274.07H78.0125V272.445H72.6625V275.195H78.9875L80.5875 276.795V280.945L78.8125 282.72H71.8375Z" fill="white"/>
<path d="M64.4148 282.72V281.32L63.0148 282.72H58.1648L56.3398 280.895V276.92L58.1648 275.095H64.4148V272.445H59.1148V274.195H56.5898V271.945L58.4148 270.145H65.1398L66.9398 271.945V282.72H64.4148ZM58.8648 280.42H64.4148V277.42H58.8648V280.42Z" fill="white"/>
<path d="M42 282.72V265.22H54.25V267.72H44.625V272.72H52.025V275.22H44.625V280.22H54.3V282.72H42Z" fill="white"/>
<path d="M223.593 246.621V240.125H220.057V246.621H218.441V238.573H220.057V239.469L220.953 238.573H224.009L225.209 239.773V246.621H223.593Z" fill="url(#paint1_linear_10416_76425)"/>
<path d="M214.52 246.621V238.573H216.136V246.621H214.52ZM214.52 237.437V235.533H216.136V237.437H214.52Z" fill="url(#paint2_linear_10416_76425)"/>
<path d="M206.641 242.509V241.021H212.369V242.509H206.641Z" fill="url(#paint3_linear_10416_76425)"/>
<path d="M198.874 249.501L197.738 248.365V247.085H199.338V247.997H202.906V245.453L202.01 246.349H198.81L197.594 245.133V239.773L198.81 238.573H202.01L202.906 239.469V238.573H204.522V248.365L203.386 249.501H198.874ZM199.21 244.797H202.906V240.125H199.21V244.797Z" fill="url(#paint4_linear_10416_76425)"/>
<path d="M190.339 238.573V245.069H193.875V238.573H195.491V246.621H193.875V245.725L192.979 246.621H189.923L188.723 245.421V238.573H190.339Z" fill="url(#paint5_linear_10416_76425)"/>
<path d="M184.832 246.621V235.421H186.448V246.621H184.832Z" fill="url(#paint6_linear_10416_76425)"/>
<path d="M174.586 246.621V235.421H181.514L182.842 236.749V240.813L181.514 242.141H176.266V246.621H174.586ZM176.266 240.525H181.162V237.037H176.266V240.525Z" fill="url(#paint7_linear_10416_76425)"/>
<path d="M160.578 246.621L159.25 245.293V242.877H160.93V245.021H166.05V241.741H161.81V240.141H166.05V237.021H160.946V239.117H159.266V236.749L160.594 235.421H166.402L167.73 236.749V240.045L166.706 240.941L167.73 241.837V245.293L166.402 246.621H160.578Z" fill="url(#paint8_linear_10416_76425)"/>
<path d="M150.16 246.621V235.421H151.776V239.469L152.672 238.573H155.872L157.088 239.773V245.421L155.872 246.621H152.672L151.776 245.725V246.621H150.16ZM151.776 245.069H155.472V240.125H151.776V245.069Z" fill="url(#paint9_linear_10416_76425)"/>
<path d="M142.544 246.621L141.328 245.421V239.773L142.544 238.573H146.848L148.064 239.773V243.261H142.944V245.117H146.448V243.981H148.064V245.421L146.848 246.621H142.544ZM142.944 241.805H146.448V240.077H142.944V241.805Z" fill="url(#paint10_linear_10416_76425)"/>
<path d="M129.06 246.621L126.004 235.421H127.796L129.924 243.789L132.548 235.421H133.988L136.612 243.789L138.74 235.421H140.484L137.428 246.621H135.844L133.236 238.493L130.644 246.621H129.06Z" fill="url(#paint11_linear_10416_76425)"/>
<path d="M114.62 246.621L113.484 245.485V244.029H115.1V245.149H118.604V243.309H114.556L113.532 242.269V239.709L114.668 238.573H119.036L120.188 239.709V241.085H118.572V240.045H115.148V241.805H119.196L120.22 242.829V245.485L119.084 246.621H114.62Z" fill="url(#paint12_linear_10416_76425)"/>
<path d="M106.027 246.621L104.891 245.485V244.029H106.507V245.149H110.011V243.309H105.963L104.939 242.269V239.709L106.075 238.573H110.443L111.595 239.709V241.085H109.979V240.045H106.555V241.805H110.603L111.627 242.829V245.485L110.491 246.621H106.027Z" fill="url(#paint13_linear_10416_76425)"/>
<path d="M97.466 246.621L96.25 245.421V239.773L97.466 238.573H101.77L102.986 239.773V243.261H97.866V245.117H101.37V243.981H102.986V245.421L101.77 246.621H97.466ZM97.866 241.805H101.37V240.077H97.866V241.805Z" fill="url(#paint14_linear_10416_76425)"/>
<path d="M92.4883 246.621V235.421H94.1043V246.621H92.4883Z" fill="url(#paint15_linear_10416_76425)"/>
<path d="M84.6094 242.509V241.021H90.3374V242.509H84.6094Z" fill="url(#paint16_linear_10416_76425)"/>
<path d="M80.8903 246.621V240.125H77.3543V246.621H75.7383V238.573H77.3543V239.469L78.2503 238.573H81.3063L82.5063 239.773V246.621H80.8903Z" fill="url(#paint17_linear_10416_76425)"/>
<path d="M68.1222 246.621L66.9062 245.421V239.773L68.1222 238.573H72.4263L73.6423 239.773V243.261H68.5222V245.117H72.0263V243.981H73.6423V245.421L72.4263 246.621H68.1222ZM68.5222 241.805H72.0263V240.077H68.5222V241.805Z" fill="url(#paint18_linear_10416_76425)"/>
<path d="M58.3477 246.621V235.421H59.9637V242.317L63.5957 238.573H65.6277L62.9397 241.437L65.7717 246.621H63.9637L61.8037 242.509L59.9637 244.365V246.621H58.3477Z" fill="url(#paint19_linear_10416_76425)"/>
<path d="M50.5129 246.621L49.2969 245.421V239.773L50.5129 238.573H55.0249L56.2249 239.773V245.421L55.0249 246.621H50.5129ZM50.9129 245.085H54.6089V240.109H50.9129V245.085Z" fill="url(#paint20_linear_10416_76425)"/>
<path d="M43.8496 246.621V237.037H40.2656V235.421H49.1296V237.037H45.5296V246.621H43.8496Z" fill="url(#paint21_linear_10416_76425)"/>
<path fill-rule="evenodd" clip-rule="evenodd" d="M289.506 41.067C289.352 40.9777 289.161 40.9777 289.006 41.067L235.694 71.8523C234.344 69.8778 232.073 68.582 229.5 68.582C225.358 68.582 222 71.9399 222 76.082C222 79.9362 224.907 83.1114 228.648 83.5342V145.62C228.648 145.799 228.744 145.964 228.898 146.053L282.16 176.809C282.126 177.096 282.109 177.387 282.109 177.683C282.109 181.825 285.467 185.183 289.609 185.183C293.752 185.183 297.109 181.825 297.109 177.683C297.109 177.257 297.074 176.839 297.006 176.433L349.623 146.053C349.778 145.964 349.873 145.799 349.873 145.62V83.5806C353.948 83.5024 357.227 80.1751 357.227 76.082C357.227 71.9399 353.869 68.582 349.727 68.582C347.027 68.582 344.66 70.0084 343.34 72.1486L289.506 41.067ZM296.762 175.419L348.268 145.681L328.562 135.359L289.531 157.894C289.526 157.898 289.52 157.901 289.514 157.905L289.506 157.91C289.428 157.955 289.341 157.977 289.255 157.977C289.168 157.977 289.082 157.955 289.004 157.91L288.997 157.906L288.987 157.9L288.978 157.894L249.785 135.265C249.759 135.25 249.735 135.233 249.713 135.215L230.006 145.538L282.356 175.768C283.202 172.553 286.129 170.183 289.609 170.183C292.963 170.183 295.802 172.383 296.762 175.419ZM348.873 83.534V144.869L328.974 134.446V89.5854C328.976 89.5714 328.976 89.5573 328.976 89.5431C328.976 89.3645 328.881 89.1994 328.726 89.1101L289.75 66.6065V42.3623L342.872 73.0334C342.457 73.9649 342.227 74.9965 342.227 76.082C342.227 79.9357 345.133 83.1105 348.873 83.534ZM288.75 42.3698L236.203 72.7135C236.713 73.7264 237 74.8707 237 76.082C237 80.1746 233.722 83.5015 229.648 83.5806V144.596L249.535 134.179V89.5431V89.543L249.535 89.5302C249.535 89.5234 249.536 89.5166 249.536 89.5098C249.538 89.4789 249.543 89.4487 249.551 89.4192C249.584 89.2904 249.667 89.1781 249.785 89.11L249.794 89.105L288.75 66.6131V42.3698ZM283.259 176.289C283.897 173.369 286.498 171.183 289.609 171.183C292.593 171.183 295.107 173.193 295.871 175.933L289.256 179.752L283.259 176.289ZM283.117 177.362L289.006 180.763C289.161 180.852 289.352 180.852 289.506 180.763L296.071 176.973C296.096 177.206 296.109 177.443 296.109 177.683C296.109 181.272 293.199 184.183 289.609 184.183C286.02 184.183 283.109 181.272 283.109 177.683C283.109 177.575 283.112 177.468 283.117 177.362ZM356.227 76.082C356.227 79.6228 353.395 82.5023 349.873 82.5804V76.2097C349.873 76.0311 349.778 75.866 349.623 75.7767L344.206 72.6489C345.354 70.8075 347.397 69.582 349.727 69.582C353.316 69.582 356.227 72.4922 356.227 76.082ZM348.873 76.4984L343.744 73.5367C343.411 74.3184 343.227 75.1787 343.227 76.082C343.227 79.3827 345.687 82.1088 348.873 82.5265V76.4984ZM235.335 73.2146C235.761 74.0795 236 75.0528 236 76.082C236 79.6223 233.17 82.5015 229.648 82.5804V76.4984L235.335 73.2146ZM234.825 72.3541L228.898 75.7767C228.744 75.866 228.648 76.0311 228.648 76.2097V82.5268C225.461 82.1097 223 79.3832 223 76.082C223 72.4922 225.91 69.582 229.5 69.582C231.703 69.582 233.65 70.6779 234.825 72.3541ZM289.756 112.476V156.61L327.974 134.544V90.4102L289.756 112.476ZM289.256 67.4758L327.475 89.5425L289.255 111.61L251.035 89.5431L289.256 67.4758ZM250.535 90.409L288.754 112.475V156.61L250.535 134.544V90.409Z" fill="url(#paint22_linear_10416_76425)"/>
<path d="M229.5 82.582C233.09 82.582 236 79.6719 236 76.082C236 72.4922 233.09 69.582 229.5 69.582C225.91 69.582 223 72.4922 223 76.082C223 79.6719 225.91 82.582 229.5 82.582Z" fill="#061B12"/>
<path d="M349.727 82.582C353.316 82.582 356.227 79.6719 356.227 76.082C356.227 72.4922 353.316 69.582 349.727 69.582C346.137 69.582 343.227 72.4922 343.227 76.082C343.227 79.6719 346.137 82.582 349.727 82.582Z" fill="#061A11"/>
<path d="M289.609 184.183C293.199 184.183 296.109 181.272 296.109 177.683C296.109 174.093 293.199 171.183 289.609 171.183C286.02 171.183 283.109 174.093 283.109 177.683C283.109 181.272 286.02 184.183 289.609 184.183Z" fill="#05120C"/>
<defs>
<filter id="filter0_f_10416_76425" x="-222.708" y="-457.566" width="1147.3" height="975.19" filterUnits="userSpaceOnUse" color-interpolation-filters="sRGB">
<feFlood flood-opacity="0" result="BackgroundImageFix"/>
<feBlend mode="normal" in="SourceGraphic" in2="BackgroundImageFix" result="shape"/>
<feGaussianBlur stdDeviation="179.481" result="effect1_foregroundBlur_10416_76425"/>
</filter>
<linearGradient id="paint0_linear_10416_76425" x1="103.206" y1="150.018" x2="396.576" y2="-245.765" gradientUnits="userSpaceOnUse">
<stop stop-color="#DCF507"/>
<stop offset="0.05" stop-color="#D3F50F"/>
<stop offset="0.12" stop-color="#BDF627"/>
<stop offset="0.22" stop-color="#99F84D"/>
<stop offset="0.33" stop-color="#66FA82"/>
<stop offset="0.45" stop-color="#26FDC5"/>
<stop offset="0.5" stop-color="#0CFFE2"/>
<stop offset="0.62" stop-color="#1AFFC4"/>
<stop offset="1" stop-color="#49FF66"/>
</linearGradient>
<linearGradient id="paint1_linear_10416_76425" x1="24.9367" y1="248.997" x2="29.7922" y2="206.696" gradientUnits="userSpaceOnUse">
<stop stop-color="#DCF507"/>
<stop offset="0.05" stop-color="#D3F50F"/>
<stop offset="0.12" stop-color="#BDF627"/>
<stop offset="0.22" stop-color="#99F84D"/>
<stop offset="0.33" stop-color="#66FA82"/>
<stop offset="0.45" stop-color="#26FDC5"/>
<stop offset="0.5" stop-color="#0CFFE2"/>
<stop offset="0.62" stop-color="#1AFFC4"/>
<stop offset="1" stop-color="#49FF66"/>
</linearGradient>
<linearGradient id="paint2_linear_10416_76425" x1="24.9367" y1="248.997" x2="29.7921" y2="206.696" gradientUnits="userSpaceOnUse">
<stop stop-color="#DCF507"/>
<stop offset="0.05" stop-color="#D3F50F"/>
<stop offset="0.12" stop-color="#BDF627"/>
<stop offset="0.22" stop-color="#99F84D"/>
<stop offset="0.33" stop-color="#66FA82"/>
<stop offset="0.45" stop-color="#26FDC5"/>
<stop offset="0.5" stop-color="#0CFFE2"/>
<stop offset="0.62" stop-color="#1AFFC4"/>
<stop offset="1" stop-color="#49FF66"/>
</linearGradient>
<linearGradient id="paint3_linear_10416_76425" x1="24.9367" y1="248.997" x2="29.7922" y2="206.696" gradientUnits="userSpaceOnUse">
<stop stop-color="#DCF507"/>
<stop offset="0.05" stop-color="#D3F50F"/>
<stop offset="0.12" stop-color="#BDF627"/>
<stop offset="0.22" stop-color="#99F84D"/>
<stop offset="0.33" stop-color="#66FA82"/>
<stop offset="0.45" stop-color="#26FDC5"/>
<stop offset="0.5" stop-color="#0CFFE2"/>
<stop offset="0.62" stop-color="#1AFFC4"/>
<stop offset="1" stop-color="#49FF66"/>
</linearGradient>
<linearGradient id="paint4_linear_10416_76425" x1="24.9367" y1="248.997" x2="29.7921" y2="206.696" gradientUnits="userSpaceOnUse">
<stop stop-color="#DCF507"/>
<stop offset="0.05" stop-color="#D3F50F"/>
<stop offset="0.12" stop-color="#BDF627"/>
<stop offset="0.22" stop-color="#99F84D"/>
<stop offset="0.33" stop-color="#66FA82"/>
<stop offset="0.45" stop-color="#26FDC5"/>
<stop offset="0.5" stop-color="#0CFFE2"/>
<stop offset="0.62" stop-color="#1AFFC4"/>
<stop offset="1" stop-color="#49FF66"/>
</linearGradient>
<linearGradient id="paint5_linear_10416_76425" x1="24.9367" y1="248.997" x2="29.7922" y2="206.696" gradientUnits="userSpaceOnUse">
<stop stop-color="#DCF507"/>
<stop offset="0.05" stop-color="#D3F50F"/>
<stop offset="0.12" stop-color="#BDF627"/>
<stop offset="0.22" stop-color="#99F84D"/>
<stop offset="0.33" stop-color="#66FA82"/>
<stop offset="0.45" stop-color="#26FDC5"/>
<stop offset="0.5" stop-color="#0CFFE2"/>
<stop offset="0.62" stop-color="#1AFFC4"/>
<stop offset="1" stop-color="#49FF66"/>
</linearGradient>
<linearGradient id="paint6_linear_10416_76425" x1="24.9367" y1="248.997" x2="29.7922" y2="206.696" gradientUnits="userSpaceOnUse">
<stop stop-color="#DCF507"/>
<stop offset="0.05" stop-color="#D3F50F"/>
<stop offset="0.12" stop-color="#BDF627"/>
<stop offset="0.22" stop-color="#99F84D"/>
<stop offset="0.33" stop-color="#66FA82"/>
<stop offset="0.45" stop-color="#26FDC5"/>
<stop offset="0.5" stop-color="#0CFFE2"/>
<stop offset="0.62" stop-color="#1AFFC4"/>
<stop offset="1" stop-color="#49FF66"/>
</linearGradient>
<linearGradient id="paint7_linear_10416_76425" x1="24.9367" y1="248.997" x2="29.7922" y2="206.696" gradientUnits="userSpaceOnUse">
<stop stop-color="#DCF507"/>
<stop offset="0.05" stop-color="#D3F50F"/>
<stop offset="0.12" stop-color="#BDF627"/>
<stop offset="0.22" stop-color="#99F84D"/>
<stop offset="0.33" stop-color="#66FA82"/>
<stop offset="0.45" stop-color="#26FDC5"/>
<stop offset="0.5" stop-color="#0CFFE2"/>
<stop offset="0.62" stop-color="#1AFFC4"/>
<stop offset="1" stop-color="#49FF66"/>
</linearGradient>
<linearGradient id="paint8_linear_10416_76425" x1="24.9367" y1="248.997" x2="29.7921" y2="206.696" gradientUnits="userSpaceOnUse">
<stop stop-color="#DCF507"/>
<stop offset="0.05" stop-color="#D3F50F"/>
<stop offset="0.12" stop-color="#BDF627"/>
<stop offset="0.22" stop-color="#99F84D"/>
<stop offset="0.33" stop-color="#66FA82"/>
<stop offset="0.45" stop-color="#26FDC5"/>
<stop offset="0.5" stop-color="#0CFFE2"/>
<stop offset="0.62" stop-color="#1AFFC4"/>
<stop offset="1" stop-color="#49FF66"/>
</linearGradient>
<linearGradient id="paint9_linear_10416_76425" x1="24.9367" y1="248.997" x2="29.7921" y2="206.696" gradientUnits="userSpaceOnUse">
<stop stop-color="#DCF507"/>
<stop offset="0.05" stop-color="#D3F50F"/>
<stop offset="0.12" stop-color="#BDF627"/>
<stop offset="0.22" stop-color="#99F84D"/>
<stop offset="0.33" stop-color="#66FA82"/>
<stop offset="0.45" stop-color="#26FDC5"/>
<stop offset="0.5" stop-color="#0CFFE2"/>
<stop offset="0.62" stop-color="#1AFFC4"/>
<stop offset="1" stop-color="#49FF66"/>
</linearGradient>
<linearGradient id="paint10_linear_10416_76425" x1="24.9367" y1="248.997" x2="29.7922" y2="206.696" gradientUnits="userSpaceOnUse">
<stop stop-color="#DCF507"/>
<stop offset="0.05" stop-color="#D3F50F"/>
<stop offset="0.12" stop-color="#BDF627"/>
<stop offset="0.22" stop-color="#99F84D"/>
<stop offset="0.33" stop-color="#66FA82"/>
<stop offset="0.45" stop-color="#26FDC5"/>
<stop offset="0.5" stop-color="#0CFFE2"/>
<stop offset="0.62" stop-color="#1AFFC4"/>
<stop offset="1" stop-color="#49FF66"/>
</linearGradient>
<linearGradient id="paint11_linear_10416_76425" x1="24.9367" y1="248.997" x2="29.7921" y2="206.696" gradientUnits="userSpaceOnUse">
<stop stop-color="#DCF507"/>
<stop offset="0.05" stop-color="#D3F50F"/>
<stop offset="0.12" stop-color="#BDF627"/>
<stop offset="0.22" stop-color="#99F84D"/>
<stop offset="0.33" stop-color="#66FA82"/>
<stop offset="0.45" stop-color="#26FDC5"/>
<stop offset="0.5" stop-color="#0CFFE2"/>
<stop offset="0.62" stop-color="#1AFFC4"/>
<stop offset="1" stop-color="#49FF66"/>
</linearGradient>
<linearGradient id="paint12_linear_10416_76425" x1="24.9367" y1="248.997" x2="29.7922" y2="206.696" gradientUnits="userSpaceOnUse">
<stop stop-color="#DCF507"/>
<stop offset="0.05" stop-color="#D3F50F"/>
<stop offset="0.12" stop-color="#BDF627"/>
<stop offset="0.22" stop-color="#99F84D"/>
<stop offset="0.33" stop-color="#66FA82"/>
<stop offset="0.45" stop-color="#26FDC5"/>
<stop offset="0.5" stop-color="#0CFFE2"/>
<stop offset="0.62" stop-color="#1AFFC4"/>
<stop offset="1" stop-color="#49FF66"/>
</linearGradient>
<linearGradient id="paint13_linear_10416_76425" x1="24.9367" y1="248.997" x2="29.7922" y2="206.696" gradientUnits="userSpaceOnUse">
<stop stop-color="#DCF507"/>
<stop offset="0.05" stop-color="#D3F50F"/>
<stop offset="0.12" stop-color="#BDF627"/>
<stop offset="0.22" stop-color="#99F84D"/>
<stop offset="0.33" stop-color="#66FA82"/>
<stop offset="0.45" stop-color="#26FDC5"/>
<stop offset="0.5" stop-color="#0CFFE2"/>
<stop offset="0.62" stop-color="#1AFFC4"/>
<stop offset="1" stop-color="#49FF66"/>
</linearGradient>
<linearGradient id="paint14_linear_10416_76425" x1="24.9367" y1="248.997" x2="29.7922" y2="206.696" gradientUnits="userSpaceOnUse">
<stop stop-color="#DCF507"/>
<stop offset="0.05" stop-color="#D3F50F"/>
<stop offset="0.12" stop-color="#BDF627"/>
<stop offset="0.22" stop-color="#99F84D"/>
<stop offset="0.33" stop-color="#66FA82"/>
<stop offset="0.45" stop-color="#26FDC5"/>
<stop offset="0.5" stop-color="#0CFFE2"/>
<stop offset="0.62" stop-color="#1AFFC4"/>
<stop offset="1" stop-color="#49FF66"/>
</linearGradient>
<linearGradient id="paint15_linear_10416_76425" x1="24.9367" y1="248.997" x2="29.7921" y2="206.696" gradientUnits="userSpaceOnUse">
<stop stop-color="#DCF507"/>
<stop offset="0.05" stop-color="#D3F50F"/>
<stop offset="0.12" stop-color="#BDF627"/>
<stop offset="0.22" stop-color="#99F84D"/>
<stop offset="0.33" stop-color="#66FA82"/>
<stop offset="0.45" stop-color="#26FDC5"/>
<stop offset="0.5" stop-color="#0CFFE2"/>
<stop offset="0.62" stop-color="#1AFFC4"/>
<stop offset="1" stop-color="#49FF66"/>
</linearGradient>
<linearGradient id="paint16_linear_10416_76425" x1="24.9367" y1="248.997" x2="29.7922" y2="206.696" gradientUnits="userSpaceOnUse">
<stop stop-color="#DCF507"/>
<stop offset="0.05" stop-color="#D3F50F"/>
<stop offset="0.12" stop-color="#BDF627"/>
<stop offset="0.22" stop-color="#99F84D"/>
<stop offset="0.33" stop-color="#66FA82"/>
<stop offset="0.45" stop-color="#26FDC5"/>
<stop offset="0.5" stop-color="#0CFFE2"/>
<stop offset="0.62" stop-color="#1AFFC4"/>
<stop offset="1" stop-color="#49FF66"/>
</linearGradient>
<linearGradient id="paint17_linear_10416_76425" x1="24.9367" y1="248.997" x2="29.7922" y2="206.696" gradientUnits="userSpaceOnUse">
<stop stop-color="#DCF507"/>
<stop offset="0.05" stop-color="#D3F50F"/>
<stop offset="0.12" stop-color="#BDF627"/>
<stop offset="0.22" stop-color="#99F84D"/>
<stop offset="0.33" stop-color="#66FA82"/>
<stop offset="0.45" stop-color="#26FDC5"/>
<stop offset="0.5" stop-color="#0CFFE2"/>
<stop offset="0.62" stop-color="#1AFFC4"/>
<stop offset="1" stop-color="#49FF66"/>
</linearGradient>
<linearGradient id="paint18_linear_10416_76425" x1="24.9367" y1="248.997" x2="29.7921" y2="206.696" gradientUnits="userSpaceOnUse">
<stop stop-color="#DCF507"/>
<stop offset="0.05" stop-color="#D3F50F"/>
<stop offset="0.12" stop-color="#BDF627"/>
<stop offset="0.22" stop-color="#99F84D"/>
<stop offset="0.33" stop-color="#66FA82"/>
<stop offset="0.45" stop-color="#26FDC5"/>
<stop offset="0.5" stop-color="#0CFFE2"/>
<stop offset="0.62" stop-color="#1AFFC4"/>
<stop offset="1" stop-color="#49FF66"/>
</linearGradient>
<linearGradient id="paint19_linear_10416_76425" x1="24.9367" y1="248.997" x2="29.7921" y2="206.696" gradientUnits="userSpaceOnUse">
<stop stop-color="#DCF507"/>
<stop offset="0.05" stop-color="#D3F50F"/>
<stop offset="0.12" stop-color="#BDF627"/>
<stop offset="0.22" stop-color="#99F84D"/>
<stop offset="0.33" stop-color="#66FA82"/>
<stop offset="0.45" stop-color="#26FDC5"/>
<stop offset="0.5" stop-color="#0CFFE2"/>
<stop offset="0.62" stop-color="#1AFFC4"/>
<stop offset="1" stop-color="#49FF66"/>
</linearGradient>
<linearGradient id="paint20_linear_10416_76425" x1="24.9367" y1="248.997" x2="29.7922" y2="206.696" gradientUnits="userSpaceOnUse">
<stop stop-color="#DCF507"/>
<stop offset="0.05" stop-color="#D3F50F"/>
<stop offset="0.12" stop-color="#BDF627"/>
<stop offset="0.22" stop-color="#99F84D"/>
<stop offset="0.33" stop-color="#66FA82"/>
<stop offset="0.45" stop-color="#26FDC5"/>
<stop offset="0.5" stop-color="#0CFFE2"/>
<stop offset="0.62" stop-color="#1AFFC4"/>
<stop offset="1" stop-color="#49FF66"/>
</linearGradient>
<linearGradient id="paint21_linear_10416_76425" x1="24.9367" y1="248.997" x2="29.7922" y2="206.696" gradientUnits="userSpaceOnUse">
<stop stop-color="#DCF507"/>
<stop offset="0.05" stop-color="#D3F50F"/>
<stop offset="0.12" stop-color="#BDF627"/>
<stop offset="0.22" stop-color="#99F84D"/>
<stop offset="0.33" stop-color="#66FA82"/>
<stop offset="0.45" stop-color="#26FDC5"/>
<stop offset="0.5" stop-color="#0CFFE2"/>
<stop offset="0.62" stop-color="#1AFFC4"/>
<stop offset="1" stop-color="#49FF66"/>
</linearGradient>
<linearGradient id="paint22_linear_10416_76425" x1="310.657" y1="53.5425" x2="289.162" y2="156.425" gradientUnits="userSpaceOnUse">
<stop stop-color="#38FFA9"/>
<stop offset="1" stop-color="#02653A"/>
</linearGradient>
</defs>
</svg>
