<svg width="57" height="57" viewBox="0 0 57 57" fill="none" xmlns="http://www.w3.org/2000/svg">
<path d="M1.0041 28.1148C1.0041 13.142 13.142 1.0041 28.1148 1.0041C43.0876 1.0041 55.2254 13.142 55.2254 28.1148C55.2254 43.0876 43.0876 55.2254 28.1148 55.2254C13.142 55.2254 1.0041 43.0876 1.0041 28.1148Z" fill="white"/>
<path d="M1.0041 28.1148C1.0041 13.142 13.142 1.0041 28.1148 1.0041C43.0876 1.0041 55.2254 13.142 55.2254 28.1148C55.2254 43.0876 43.0876 55.2254 28.1148 55.2254C13.142 55.2254 1.0041 43.0876 1.0041 28.1148Z" fill="#2D2D2D"/>
<path d="M1.0041 28.1148C1.0041 13.142 13.142 1.0041 28.1148 1.0041C43.0876 1.0041 55.2254 13.142 55.2254 28.1148C55.2254 43.0876 43.0876 55.2254 28.1148 55.2254C13.142 55.2254 1.0041 43.0876 1.0041 28.1148Z" stroke="black" stroke-width="2.0082"/>
<path d="M39.3542 17.983C37.3122 17.0435 35.1521 16.3769 32.9356 16C32.6544 16.4922 32.3365 17.1532 32.1143 17.6876C29.7573 17.336 27.3581 17.336 25.001 17.6876C24.7479 17.111 24.4666 16.5485 24.1572 16C21.938 16.3769 19.7778 17.0463 17.733 17.9914C13.6827 24.0303 12.5829 29.9257 13.1314 35.7311C15.5081 37.4975 18.1718 38.842 21.007 39.7055C21.6455 38.842 22.208 37.925 22.6946 36.9687C21.7748 36.6256 20.886 36.2008 20.0394 35.7002C20.2616 35.5342 20.4754 35.3655 20.6807 35.1967C25.6676 37.5537 31.4449 37.5537 36.4318 35.1967C36.6428 35.3711 36.8622 35.5399 37.0816 35.703C36.2349 36.2065 35.3433 36.6312 34.4208 36.9771C34.9045 37.9335 35.4699 38.8476 36.1084 39.7083C38.9436 38.8476 41.6072 37.5031 43.9839 35.7339C44.6252 29.0031 42.8757 23.1611 39.3542 17.983ZM23.3865 32.1646C21.8508 32.1646 20.5907 30.7583 20.5907 29.0313C20.5907 27.3043 21.8227 25.8867 23.3865 25.8867C24.9504 25.8867 26.1992 27.293 26.1852 29.0228C26.1711 30.7526 24.9504 32.1646 23.3865 32.1646ZM33.7232 32.1646C32.1875 32.1646 30.9274 30.7583 30.9274 29.0313C30.9274 27.3043 32.1593 25.8867 33.7232 25.8867C35.2871 25.8867 36.5359 27.293 36.519 29.0228C36.5022 30.7526 35.2871 32.1646 33.7232 32.1646Z" fill="white"/>
</svg>
